{
.appVersion = "3039";
DisplayStrings = (
"/_smart.aGl/eGlottal-ethiopic",
"/kxwaa-ethiopic",
"/kxwi-ethiopic",
"/ba.base",
"/ga.base",
"/ha.base",
"/hha.base",
"/la.base",
"/ma.base",
"/na.base",
"/oPh.base",
"/pa.base",
"/ra.base",
"/sa.base",
"/tsa.base",
"/wa.base",
"/xwaa.spare",
"/ya.base",
"/za.base",
"/aGl.base.cap",
"/ba.base.cap",
"/ga.base.cap",
"/ha.base.cap",
"/hha.base.cap",
"/la.base.cap",
"/ma.base.cap",
"/na.base.cap",
"/oPh.base.cap",
"/pa.base.cap",
"/ra.base.cap",
"/sa.base.cap",
"/tsa.base.cap",
"/tsa.belt.cap",
"/wa.base.cap",
"/ya.base.cap",
"/za.base.cap",
"/xu-ethiopic",
"/ne-ethiopic",
"/nye-ethiopic",
"/ne-ethiopic.liga",
"/nye-ethiopic.liga",
"/hu-ethiopic",
"/shu-ethiopic.liga",
"/ga.base.cap/nya-ethiopic.liga",
"/iGlottal-ethiopic.liga",
"/eGlottal-ethiopic.liga"
);
classes = (
{
code = "hu-ethiopic lu-ethiopic hhu-ethiopic mu-ethiopic szu-ethiopic su-ethiopic shu-ethiopic qu-ethiopic qhu-ethiopic bu-ethiopic vu-ethiopic xu-ethiopic nu-ethiopic nyu-ethiopic ku-ethiopic kxu-ethiopic wu-ethiopic zu-ethiopic zhu-ethiopic yu-ethiopic du-ethiopic ddu-ethiopic ju-ethiopic gu-ethiopic ggu-ethiopic thu-ethiopic chu-ethiopic phu-ethiopic tsu-ethiopic tzu-ethiopic hu-ethiopic.liga hhu-ethiopic.liga mu-ethiopic.liga su-ethiopic.liga shu-ethiopic.liga qu-ethiopic.liga qhu-ethiopic.liga bu-ethiopic.liga vu-ethiopic.liga xu-ethiopic.liga nu-ethiopic.liga nyu-ethiopic.liga ku-ethiopic.liga kxu-ethiopic.liga wu-ethiopic.liga zu-ethiopic.liga zhu-ethiopic.liga du-ethiopic.liga ddu-ethiopic.liga ju-ethiopic.liga gu-ethiopic.liga ggu-ethiopic.liga thu-ethiopic.liga chu-ethiopic.liga phu-ethiopic.liga tsu-ethiopic.liga tzu-ethiopic.liga ";
name = Hu;
},
{

glyphs = (
{
glyphname = .notdef;
lastChange = "2020-12-06 18:37:19 +0000";
layers = (
{
layerId = "A9B054E9-1A63-4AEF-9EE1-561B1DFE8422";
paths = (
{
closed = 1;
nodes = (
"808 0 LINE",
"808 1456 LINE",
"100 1456 LINE",
"100 0 LINE"
);
},
{
closed = 1;
nodes = (
"451 660 LINE",
"709 54 LINE",
"194 54 LINE"
);
},
{
closed = 1;
nodes = (
"154 1359 LINE",
"422 728 LINE",
"154 96 LINE"
);
},
{
closed = 1;
nodes = (
"480 728 LINE",
"754 1371 LINE",
"754 84 LINE"
);
},
{
closed = 1;
nodes = (
"194 1402 LINE",
"709 1402 LINE",
"451 796 LINE"
);
}
);
userData = {
assembly = "PUSHB[ ]	/* 3 values pushed */
12 16 17 
SRP1[ ]	/* SetRefPoint1 */
SRP2[ ]	/* SetRefPoint2 */
IP[ ]	/* InterpolatePts */
PUSHB[ ]	/* 1 value pushed */
12 
SRP0[ ]	/* SetRefPoint0 */
PUSHB[ ]	/* 1 value pushed */
0 
MDRP[10000]	/* MoveDirectRelPt */
PUSHB[ ]	/* 1 value pushed */
12 
SRP0[ ]	/* SetRefPoint0 */
PUSHB[ ]	/* 1 value pushed */
6 
MDRP[10000]	/* MoveDirectRelPt */
PUSHB[ ]	/* 1 value pushed */
12 
SRP0[ ]	/* SetRefPoint0 */
PUSHB[ ]	/* 1 value pushed */
9 
MDRP[10000]	/* MoveDirectRelPt */
PUSHB[ ]	/* 1 value pushed */
12 
SRP0[ ]	/* SetRefPoint0 */
PUSHB[ ]	/* 1 value pushed */
13 
MDRP[10000]	/* MoveDirectRelPt */
SVTCA[0]	/* SetFreedomAndProjectionVectorToAxis */
PUSHB[ ]	/* 1 value pushed */
0 
RCVT[ ]	/* ReadCVT */
IF[ ]	/* If */
PUSHB[ ]	/* 1 value pushed */
2 
MDAP[1]	/* MoveDirectAbsPt */
ELSE[ ]	/* Else */
PUSHB[ ]	/* 2 values pushed */
2 30 
MIAP[0]	/* MoveIndirectAbsPt */
EIF[ ]	/* EndIf */
PUSHB[ ]	/* 1 value pushed */
0 
RCVT[ ]	/* ReadCVT */
IF[ ]	/* If */
PUSHB[ ]	/* 1 value pushed */
0 
MDAP[1]	/* MoveDirectAbsPt */
ELSE[ ]	/* Else */
PUSHB[ ]	/* 2 values pushed */
0 18 
MIAP[0]	/* MoveIndirectAbsPt */
EIF[ ]	/* EndIf */
PUSHB[ ]	/* 3 values pushed */
4 2 0 
SRP1[ ]	/* SetRefPoint1 */
SRP2[ ]	/* SetRefPoint2 */
IP[ ]	/* InterpolatePts */
PUSHB[ ]	/* 3 values pushed */
5 2 0 
SRP1[ ]	/* SetRefPoint1 */
SRP2[ ]	/* SetRefPoint2 */
IP[ ]	/* InterpolatePts */
PUSHB[ ]	/* 3 values pushed */
7 2 0 
SRP1[ ]	/* SetRefPoint1 */
SRP2[ ]	/* SetRefPoint2 */
IP[ ]	/* InterpolatePts */
PUSHB[ ]	/* 3 values pushed */
8 2 0 
SRP1[ ]	/* SetRefPoint1 */
SRP2[ ]	/* SetRefPoint2 */
IP[ ]	/* InterpolatePts */
PUSHB[ ]	/* 2 values pushed */
10 12 
MIRP[10100]	/* MoveIndirectRelPt */
PUSHB[ ]	/* 3 values pushed */
12 2 0 
SRP1[ ]	/* SetRefPoint1 */
SRP2[ ]	/* SetRefPoint2 */
IP[ ]	/* InterpolatePts */
PUSHB[ ]	/* 3 values pushed */
13 2 0 
SRP1[ ]	/* SetRefPoint1 */
SRP2[ ]	/* SetRefPoint2 */
IP[ ]	/* InterpolatePts */
PUSHB[ ]	/* 1 value pushed */
2 
SRP0[ ]	/* SetRefPoint0 */
PUSHB[ ]	/* 2 values pushed */
14 12 
MIRP[10100]	/* MoveIndirectRelPt */
IUP[0]	/* InterpolateUntPts */
IUP[1]	/* InterpolateUntPts */";
};
width = 908;
},
{
layerId = m002;
paths = (
{
closed = 1;
nodes = (
"808 0 LINE",
"808 1456 LINE",
"100 1456 LINE",
"100 0 LINE"
);
},
{
closed = 1;
nodes = (
"451 660 LINE",
"709 54 LINE",
"194 54 LINE"
);
},
{
closed = 1;
nodes = (
"154 1359 LINE",
"422 728 LINE",
"154 96 LINE"
);
},
{
closed = 1;
nodes = (
"480 728 LINE",
"754 1371 LINE",
"754 84 LINE"
);
},
{
closed = 1;
nodes = (
"194 1402 LINE",
"709 1402 LINE",
"451 796 LINE"
);
}
);
userData = {
assembly = "PUSHB[ ]	/* 3 values pushed */
12 16 17 
SRP1[ ]	/* SetRefPoint1 */
SRP2[ ]	/* SetRefPoint2 */
IP[ ]	/* InterpolatePts */
PUSHB[ ]	/* 1 value pushed */
12 
SRP0[ ]	/* SetRefPoint0 */
PUSHB[ ]	/* 1 value pushed */
0 
MDRP[10000]	/* MoveDirectRelPt */
PUSHB[ ]	/* 1 value pushed */
12 
SRP0[ ]	/* SetRefPoint0 */
PUSHB[ ]	/* 1 value pushed */
6 
MDRP[10000]	/* MoveDirectRelPt */
PUSHB[ ]	/* 1 value pushed */
12 
SRP0[ ]	/* SetRefPoint0 */
PUSHB[ ]	/* 1 value pushed */
9 
MDRP[10000]	/* MoveDirectRelPt */
PUSHB[ ]	/* 1 value pushed */
12 
SRP0[ ]	/* SetRefPoint0 */
PUSHB[ ]	/* 1 value pushed */
13 
MDRP[10000]	/* MoveDirectRelPt */
SVTCA[0]	/* SetFreedomAndProjectionVectorToAxis */
PUSHB[ ]	/* 1 value pushed */
0 
RCVT[ ]	/* ReadCVT */
IF[ ]	/* If */
PUSHB[ ]	/* 1 value pushed */
2 
MDAP[1]	/* MoveDirectAbsPt */
ELSE[ ]	/* Else */
PUSHB[ ]	/* 2 values pushed */
2 30 
MIAP[0]	/* MoveIndirectAbsPt */
EIF[ ]	/* EndIf */
PUSHB[ ]	/* 1 value pushed */
0 
RCVT[ ]	/* ReadCVT */
IF[ ]	/* If */
PUSHB[ ]	/* 1 value pushed */
0 
MDAP[1]	/* MoveDirectAbsPt */
ELSE[ ]	/* Else */
PUSHB[ ]	/* 2 values pushed */
0 18 
MIAP[0]	/* MoveIndirectAbsPt */
EIF[ ]	/* EndIf */
PUSHB[ ]	/* 3 values pushed */
4 2 0 
SRP1[ ]	/* SetRefPoint1 */
SRP2[ ]	/* SetRefPoint2 */
IP[ ]	/* InterpolatePts */
PUSHB[ ]	/* 3 values pushed */
5 2 0 
SRP1[ ]	/* SetRefPoint1 */
SRP2[ ]	/* SetRefPoint2 */
IP[ ]	/* InterpolatePts */
PUSHB[ ]	/* 3 values pushed */
7 2 0 
SRP1[ ]	/* SetRefPoint1 */
SRP2[ ]	/* SetRefPoint2 */
IP[ ]	/* InterpolatePts */
PUSHB[ ]	/* 3 values pushed */
8 2 0 
SRP1[ ]	/* SetRefPoint1 */
SRP2[ ]	/* SetRefPoint2 */
IP[ ]	/* InterpolatePts */
PUSHB[ ]	/* 2 values pushed */
10 12 
MIRP[10100]	/* MoveIndirectRelPt */
PUSHB[ ]	/* 3 values pushed */
12 2 0 
SRP1[ ]	/* SetRefPoint1 */
SRP2[ ]	/* SetRefPoint2 */
IP[ ]	/* InterpolatePts */
PUSHB[ ]	/* 3 values pushed */
13 2 0 
SRP1[ ]	/* SetRefPoint1 */
SRP2[ ]	/* SetRefPoint2 */
IP[ ]	/* InterpolatePts */
PUSHB[ ]	/* 1 value pushed */
2 
SRP0[ ]	/* SetRefPoint0 */
PUSHB[ ]	/* 2 values pushed */
14 12 
MIRP[10100]	/* MoveIndirectRelPt */
IUP[0]	/* InterpolateUntPts */
IUP[1]	/* InterpolateUntPts */";
};
width = 908;
},
{
layerId = m003;
paths = (
{
closed = 1;
nodes = (
"808 0 LINE",
"808 1456 LINE",
"100 1456 LINE",
"100 0 LINE"
);
},
{
closed = 1;
nodes = (
"451 660 LINE",
"709 54 LINE",
"194 54 LINE"
);
},
{
closed = 1;
nodes = (
"154 1359 LINE",
"422 728 LINE",
"154 96 LINE"
);
},
{
closed = 1;
nodes = (
"480 728 LINE",
"754 1371 LINE",
"754 84 LINE"
);
},
{
closed = 1;
nodes = (
"194 1402 LINE",
"709 1402 LINE",
"451 796 LINE"
);
}
);
userData = {
assembly = "PUSHB[ ]	/* 3 values pushed */
12 16 17 
SRP1[ ]	/* SetRefPoint1 */
SRP2[ ]	/* SetRefPoint2 */
IP[ ]	/* InterpolatePts */
PUSHB[ ]	/* 1 value pushed */
12 
SRP0[ ]	/* SetRefPoint0 */
PUSHB[ ]	/* 1 value pushed */
0 
MDRP[10000]	/* MoveDirectRelPt */
PUSHB[ ]	/* 1 value pushed */
12 
SRP0[ ]	/* SetRefPoint0 */
PUSHB[ ]	/* 1 value pushed */
6 
MDRP[10000]	/* MoveDirectRelPt */
PUSHB[ ]	/* 1 value pushed */
12 
SRP0[ ]	/* SetRefPoint0 */
PUSHB[ ]	/* 1 value pushed */
9 
MDRP[10000]	/* MoveDirectRelPt */
PUSHB[ ]	/* 1 value pushed */
12 
SRP0[ ]	/* SetRefPoint0 */
PUSHB[ ]	/* 1 value pushed */
13 
MDRP[10000]	/* MoveDirectRelPt */
SVTCA[0]	/* SetFreedomAndProjectionVectorToAxis */
PUSHB[ ]	/* 1 value pushed */
0 
RCVT[ ]	/* ReadCVT */
IF[ ]	/* If */
PUSHB[ ]	/* 1 value pushed */
2 
MDAP[1]	/* MoveDirectAbsPt */
ELSE[ ]	/* Else */
PUSHB[ ]	/* 2 values pushed */
2 30 
MIAP[0]	/* MoveIndirectAbsPt */
EIF[ ]	/* EndIf */
PUSHB[ ]	/* 1 value pushed */
0 
RCVT[ ]	/* ReadCVT */
IF[ ]	/* If */
PUSHB[ ]	/* 1 value pushed */
0 
MDAP[1]	/* MoveDirectAbsPt */
ELSE[ ]	/* Else */
PUSHB[ ]	/* 2 values pushed */
0 18 
MIAP[0]	/* MoveIndirectAbsPt */
EIF[ ]	/* EndIf */
PUSHB[ ]	/* 3 values pushed */
4 2 0 
SRP1[ ]	/* SetRefPoint1 */
SRP2[ ]	/* SetRefPoint2 */
IP[ ]	/* InterpolatePts */
PUSHB[ ]	/* 3 values pushed */
5 2 0 
SRP1[ ]	/* SetRefPoint1 */
SRP2[ ]	/* SetRefPoint2 */
IP[ ]	/* InterpolatePts */
PUSHB[ ]	/* 3 values pushed */
7 2 0 
SRP1[ ]	/* SetRefPoint1 */
SRP2[ ]	/* SetRefPoint2 */
IP[ ]	/* InterpolatePts */
PUSHB[ ]	/* 3 values pushed */
8 2 0 
SRP1[ ]	/* SetRefPoint1 */
SRP2[ ]	/* SetRefPoint2 */
IP[ ]	/* InterpolatePts */
PUSHB[ ]	/* 2 values pushed */
10 12 
MIRP[10100]	/* MoveIndirectRelPt */
PUSHB[ ]	/* 3 values pushed */
12 2 0 
SRP1[ ]	/* SetRefPoint1 */
SRP2[ ]	/* SetRefPoint2 */
IP[ ]	/* InterpolatePts */
PUSHB[ ]	/* 3 values pushed */
13 2 0 
SRP1[ ]	/* SetRefPoint1 */
SRP2[ ]	/* SetRefPoint2 */
IP[ ]	/* InterpolatePts */
PUSHB[ ]	/* 1 value pushed */
2 
SRP0[ ]	/* SetRefPoint0 */
PUSHB[ ]	/* 2 values pushed */
14 12 
MIRP[10100]	/* MoveIndirectRelPt */
IUP[0]	/* InterpolateUntPts */
IUP[1]	/* InterpolateUntPts */";
};
width = 908;
}
);
note = .notdef;
},
{
glyphname = exclam;
lastChange = "2020-12-06 18:37:19 +0000";
layers = (
{
layerId = "A9B054E9-1A63-4AEF-9EE1-561B1DFE8422";
paths = (
{
closed = 1;
nodes = (
"405 447 LINE",
"439 1456 LINE",
"131 1456 LINE",
"165 447 LINE"
);
},
{
closed = 1;
nodes = (
"382.333 -16 OFFCURVE",
"447 48 OFFCURVE",
"447 136 CURVE SMOOTH",
"447 225.333 OFFCURVE",
"382.333 289 OFFCURVE",
"285 289 CURVE SMOOTH",
"189 289 OFFCURVE",
"124 224 OFFCURVE",
"124 136 CURVE SMOOTH",
"124 48 OFFCURVE",
"189 -16 OFFCURVE",
"285 -16 CURVE SMOOTH"
);
}
);
userData = {
assembly = "SVTCA[0]	/* SetFreedomAndProjectionVectorToAxis */
PUSHB[ ]	/* 1 value pushed */
0 
RCVT[ ]	/* ReadCVT */
IF[ ]	/* If */
PUSHB[ ]	/* 1 value pushed */
2 
MDAP[1]	/* MoveDirectAbsPt */
ELSE[ ]	/* Else */
PUSHB[ ]	/* 2 values pushed */
2 30 
MIAP[0]	/* MoveIndirectAbsPt */
EIF[ ]	/* EndIf */
PUSHB[ ]	/* 1 value pushed */
0 
RCVT[ ]	/* ReadCVT */
IF[ ]	/* If */
PUSHB[ ]	/* 1 value pushed */
11 
MDAP[1]	/* MoveDirectAbsPt */
ELSE[ ]	/* Else */
PUSHB[ ]	/* 2 values pushed */
11 18 
MIAP[0]	/* MoveIndirectAbsPt */
EIF[ ]	/* EndIf */
PUSHB[ ]	/* 2 values pushed */
6 5 
PUSHB[ ]	/* 1 value pushed */
10 
CALL[ ]	/* CallFunction */
IF[ ]	/* If */
POP[ ]	/* PopTopStack */
MDRP[11000]	/* MoveDirectRelPt */
ELSE[ ]	/* Else */
MIRP[10100]	/* MoveIndirectRelPt */
EIF[ ]	/* EndIf */
PUSHB[ ]	/* 3 values pushed */
1 6 2 
SRP1[ ]	/* SetRefPoint1 */
SRP2[ ]	/* SetRefPoint2 */
IP[ ]	/* InterpolatePts */
IUP[0]	/* InterpolateUntPts */
IUP[1]	/* InterpolateUntPts */";
};
width = 557;
},
{
layerId = m002;
paths = (
{
closed = 1;
nodes = (
"347 411 LINE",
"361 1456 LINE",
"167 1456 LINE",
"180 411 LINE"
);
},
{
closed = 1;
nodes = (
"341 -11 OFFCURVE",
"379 33 OFFCURVE",
"379 93 CURVE SMOOTH",
"379 153 OFFCURVE",
"341 199 OFFCURVE",
"269 199 CURVE SMOOTH",
"197 199 OFFCURVE",
"160 153 OFFCURVE",
"160 93 CURVE SMOOTH",
"160 33 OFFCURVE",
"197 -11 OFFCURVE",
"269 -11 CURVE SMOOTH"
);
}
);
userData = {
assembly = "SVTCA[0]	/* SetFreedomAndProjectionVectorToAxis */
PUSHB[ ]	/* 1 value pushed */
0 
RCVT[ ]	/* ReadCVT */
IF[ ]	/* If */
PUSHB[ ]	/* 1 value pushed */
2 
MDAP[1]	/* MoveDirectAbsPt */
ELSE[ ]	/* Else */
PUSHB[ ]	/* 2 values pushed */
2 30 
MIAP[0]	/* MoveIndirectAbsPt */
EIF[ ]	/* EndIf */
PUSHB[ ]	/* 1 value pushed */
0 
RCVT[ ]	/* ReadCVT */
IF[ ]	/* If */
PUSHB[ ]	/* 1 value pushed */
11 
MDAP[1]	/* MoveDirectAbsPt */
ELSE[ ]	/* Else */
PUSHB[ ]	/* 2 values pushed */
11 18 
MIAP[0]	/* MoveIndirectAbsPt */
EIF[ ]	/* EndIf */
PUSHB[ ]	/* 2 values pushed */
6 5 
PUSHB[ ]	/* 1 value pushed */
10 
CALL[ ]	/* CallFunction */
IF[ ]	/* If */
POP[ ]	/* PopTopStack */
MDRP[11000]	/* MoveDirectRelPt */
ELSE[ ]	/* Else */
MIRP[10100]	/* MoveIndirectRelPt */
EIF[ ]	/* EndIf */
PUSHB[ ]	/* 3 values pushed */
1 6 2 
SRP1[ ]	/* SetRefPoint1 */
SRP2[ ]	/* SetRefPoint2 */
IP[ ]	/* InterpolatePts */
IUP[0]	/* InterpolateUntPts */
IUP[1]	/* InterpolateUntPts */";
};
width = 527;
},
{
layerId = m003;
paths = (
{
closed = 1;
nodes = (
"221 401 LINE",
"221 1456 LINE",
"167 1456 LINE",
"167 401 LINE"
);
},
{
closed = 1;
nodes = (
"232.667 -6 OFFCURVE",
"258 18.333 OFFCURVE",
"258 49 CURVE SMOOTH",
"258 79.667 OFFCURVE",
"232.667 105 OFFCURVE",
"202 105 CURVE SMOOTH",
"171.333 105 OFFCURVE",
"147 79.667 OFFCURVE",
"147 49 CURVE SMOOTH",
"147 18.333 OFFCURVE",
"171.333 -6 OFFCURVE",
"202 -6 CURVE SMOOTH"
);
}
);
userData = {
assembly = "SVTCA[0]	/* SetFreedomAndProjectionVectorToAxis */
PUSHB[ ]	/* 1 value pushed */
0 
RCVT[ ]	/* ReadCVT */
IF[ ]	/* If */
PUSHB[ ]	/* 1 value pushed */
2 
MDAP[1]	/* MoveDirectAbsPt */
ELSE[ ]	/* Else */
PUSHB[ ]	/* 2 values pushed */
2 30 
MIAP[0]	/* MoveIndirectAbsPt */
EIF[ ]	/* EndIf */
PUSHB[ ]	/* 1 value pushed */
0 
RCVT[ ]	/* ReadCVT */
IF[ ]	/* If */
PUSHB[ ]	/* 1 value pushed */
11 
MDAP[1]	/* MoveDirectAbsPt */
ELSE[ ]	/* Else */
PUSHB[ ]	/* 2 values pushed */
11 18 
MIAP[0]	/* MoveIndirectAbsPt */
EIF[ ]	/* EndIf */
PUSHB[ ]	/* 2 values pushed */
6 5 
PUSHB[ ]	/* 1 value pushed */
10 
CALL[ ]	/* CallFunction */
IF[ ]	/* If */
POP[ ]	/* PopTopStack */
MDRP[11000]	/* MoveDirectRelPt */
ELSE[ ]	/* Else */
MIRP[10100]	/* MoveIndirectRelPt */
EIF[ ]	/* EndIf */
PUSHB[ ]	/* 3 values pushed */
1 6 2 
SRP1[ ]	/* SetRefPoint1 */
SRP2[ ]	/* SetRefPoint2 */
IP[ ]	/* InterpolatePts */
IUP[0]	/* InterpolateUntPts */
IUP[1]	/* InterpolateUntPts */";
};
width = 397;
}
);
note = uni0021;
unicode = 0021;
},
{
glyphname = quotedbl;
lastChange = "2020-12-12 06:31:24 +0000";
layers = (
{
layerId = "A9B054E9-1A63-4AEF-9EE1-561B1DFE8422";
paths = (
{
closed = 1;
nodes = (
"216 987 LINE",
"266 1398 LINE",
"266 1536 LINE",
"64 1536 LINE",
"64 987 LINE"
);
},
{
closed = 1;
nodes = (
"542 987 LINE",
"591 1398 LINE",
"591 1536 LINE",
"390 1536 LINE",
"390 987 LINE"
);
}
);
userData = {
assembly = "SVTCA[0]	/* SetFreedomAndProjectionVectorToAxis */
PUSHB[ ]	/* 1 value pushed */
3 
MDAP[1]	/* MoveDirectAbsPt */
PUSHB[ ]	/* 3 values pushed */
2 10 3 
SRP1[ ]	/* SetRefPoint1 */
SRP2[ ]	/* SetRefPoint2 */
IP[ ]	/* InterpolatePts */
PUSHB[ ]	/* 1 value pushed */
2 
MDAP[1]	/* MoveDirectAbsPt */
PUSHB[ ]	/* 1 value pushed */
7 
MDRP[10000]	/* MoveDirectRelPt */
PUSHB[ ]	/* 1 value pushed */
3 
SRP0[ ]	/* SetRefPoint0 */
PUSHB[ ]	/* 1 value pushed */
8 
MDRP[10000]	/* MoveDirectRelPt */
IUP[0]	/* InterpolateUntPts */
IUP[1]	/* InterpolateUntPts */";
};
width = 657;
},
{
layerId = m002;
paths = (
{
closed = 1;
nodes = (
"507 1042 LINE",
"547 1400 LINE",
"547 1536 LINE",
"406 1536 LINE",
"406 1042 LINE"
);
},
{
closed = 1;
nodes = (
"237 1042 LINE",
"277 1400 LINE",
"277 1536 LINE",
"136 1536 LINE",
"136 1042 LINE"
);
}
);
userData = {
assembly = "SVTCA[0]	/* SetFreedomAndProjectionVectorToAxis */
PUSHB[ ]	/* 1 value pushed */
3 
MDAP[1]	/* MoveDirectAbsPt */
PUSHB[ ]	/* 3 values pushed */
2 10 3 
SRP1[ ]	/* SetRefPoint1 */
SRP2[ ]	/* SetRefPoint2 */
IP[ ]	/* InterpolatePts */
PUSHB[ ]	/* 1 value pushed */
2 
MDAP[1]	/* MoveDirectAbsPt */
PUSHB[ ]	/* 1 value pushed */
7 
MDRP[10000]	/* MoveDirectRelPt */
PUSHB[ ]	/* 1 value pushed */
3 
SRP0[ ]	/* SetRefPoint0 */
PUSHB[ ]	/* 1 value pushed */
8 
MDRP[10000]	/* MoveDirectRelPt */
IUP[0]	/* InterpolateUntPts */
IUP[1]	/* InterpolateUntPts */";
};
width = 655;
},
{
layerId = m003;
paths = (
{
closed = 1;
nodes = (
"381 1122 LINE",
"411 1393 LINE",
"411 1536 LINE",
"351 1536 LINE",
"351 1122 LINE"
);
},
{
closed = 1;
nodes = (
"180 1122 LINE",
"210 1393 LINE",
"210 1536 LINE",
"150 1536 LINE",
"150 1122 LINE"
);
}
);
userData = {
assembly = "SVTCA[0]	/* SetFreedomAndProjectionVectorToAxis */
PUSHB[ ]	/* 1 value pushed */
3 
MDAP[1]	/* MoveDirectAbsPt */
PUSHB[ ]	/* 3 values pushed */
2 10 3 
SRP1[ ]	/* SetRefPoint1 */
SRP2[ ]	/* SetRefPoint2 */
IP[ ]	/* InterpolatePts */
PUSHB[ ]	/* 1 value pushed */
2 
MDAP[1]	/* MoveDirectAbsPt */
PUSHB[ ]	/* 1 value pushed */
7 
MDRP[10000]	/* MoveDirectRelPt */
PUSHB[ ]	/* 1 value pushed */
3 
SRP0[ ]	/* SetRefPoint0 */
PUSHB[ ]	/* 1 value pushed */
8 
MDRP[10000]	/* MoveDirectRelPt */
IUP[0]	/* InterpolateUntPts */
IUP[1]	/* InterpolateUntPts */";
};
width = 521;
}
);
leftKerningGroup = quotedbl;
note = uni0022;
rightKerningGroup = quotedbl;
unicode = 0022;
},
{
glyphname = numbersign;
lastChange = "2020-12-06 18:37:19 +0000";
layers = (
{
layerId = "A9B054E9-1A63-4AEF-9EE1-561B1DFE8422";
paths = (
{
closed = 1;
nodes = (
"402 0 LINE",
"474 410 LINE",
"667 410 LINE",
"595 0 LINE",
"778 0 LINE",
"850 410 LINE",
"1104 410 LINE",
"1104 582 LINE",
"880 582 LINE",
"930 866 LINE",
"1180 866 LINE",
"1180 1040 LINE",
"961 1040 LINE",
"1034 1456 LINE",
"851 1456 LINE",
"778 1040 LINE",
"584 1040 LINE",
"657 1456 LINE",
"475 1456 LINE",
"402 1040 LINE",
"139 1040 LINE",
"139 866 LINE",
"371 866 LINE",
"321 582 LINE",
"64 582 LINE",
"64 410 LINE",
"291 410 LINE",
"219 0 LINE"
);
},
{
closed = 1;
nodes = (
"553 866 LINE",
"747 866 LINE",
"697 582 LINE",
"504 582 LINE"
);
}
);
userData = {
assembly = "SVTCA[0]	/* SetFreedomAndProjectionVectorToAxis */
PUSHB[ ]	/* 1 value pushed */
0 
RCVT[ ]	/* ReadCVT */
IF[ ]	/* If */
PUSHB[ ]	/* 1 value pushed */
12 
MDAP[1]	/* MoveDirectAbsPt */
ELSE[ ]	/* Else */
PUSHB[ ]	/* 2 values pushed */
12 30 
MIAP[0]	/* MoveIndirectAbsPt */
EIF[ ]	/* EndIf */
PUSHB[ ]	/* 1 value pushed */
0 
RCVT[ ]	/* ReadCVT */
IF[ ]	/* If */
PUSHB[ ]	/* 1 value pushed */
16 
MDAP[1]	/* MoveDirectAbsPt */
ELSE[ ]	/* Else */
PUSHB[ ]	/* 2 values pushed */
16 30 
MIAP[0]	/* MoveIndirectAbsPt */
EIF[ ]	/* EndIf */
PUSHB[ ]	/* 1 value pushed */
0 
RCVT[ ]	/* ReadCVT */
IF[ ]	/* If */
PUSHB[ ]	/* 1 value pushed */
2 
MDAP[1]	/* MoveDirectAbsPt */
ELSE[ ]	/* Else */
PUSHB[ ]	/* 2 values pushed */
2 18 
MIAP[0]	/* MoveIndirectAbsPt */
EIF[ ]	/* EndIf */
PUSHB[ ]	/* 1 value pushed */
0 
RCVT[ ]	/* ReadCVT */
IF[ ]	/* If */
PUSHB[ ]	/* 1 value pushed */
26 
MDAP[1]	/* MoveDirectAbsPt */
ELSE[ ]	/* Else */
PUSHB[ ]	/* 2 values pushed */
26 18 
MIAP[0]	/* MoveIndirectAbsPt */
EIF[ ]	/* EndIf */
PUSHB[ ]	/* 3 values pushed */
29 12 2 
SRP1[ ]	/* SetRefPoint1 */
SRP2[ ]	/* SetRefPoint2 */
IP[ ]	/* InterpolatePts */
RUTG[ ]	/* RoundUpToGrid */
PUSHB[ ]	/* 1 value pushed */
29 
MDAP[1]	/* MoveDirectAbsPt */
RTG[ ]	/* RoundToGrid */
PUSHB[ ]	/* 2 values pushed */
0 3 
PUSHB[ ]	/* 1 value pushed */
10 
CALL[ ]	/* CallFunction */
IF[ ]	/* If */
POP[ ]	/* PopTopStack */
MDRP[11000]	/* MoveDirectRelPt */
ELSE[ ]	/* Else */
MIRP[10100]	/* MoveIndirectRelPt */
EIF[ ]	/* EndIf */
PUSHB[ ]	/* 1 value pushed */
4 
MDRP[10000]	/* MoveDirectRelPt */
PUSHB[ ]	/* 1 value pushed */
29 
SRP0[ ]	/* SetRefPoint0 */
PUSHB[ ]	/* 1 value pushed */
6 
MDRP[10000]	/* MoveDirectRelPt */
PUSHB[ ]	/* 1 value pushed */
29 
SRP0[ ]	/* SetRefPoint0 */
PUSHB[ ]	/* 1 value pushed */
11 
MDRP[10000]	/* MoveDirectRelPt */
PUSHB[ ]	/* 1 value pushed */
11 
MDAP[1]	/* MoveDirectAbsPt */
PUSHB[ ]	/* 2 values pushed */
8 3 
PUSHB[ ]	/* 1 value pushed */
10 
CALL[ ]	/* CallFunction */
IF[ ]	/* If */
POP[ ]	/* PopTopStack */
MDRP[11000]	/* MoveDirectRelPt */
ELSE[ ]	/* Else */
MIRP[10100]	/* MoveIndirectRelPt */
EIF[ ]	/* EndIf */
PUSHB[ ]	/* 1 value pushed */
11 
SRP0[ ]	/* SetRefPoint0 */
PUSHB[ ]	/* 1 value pushed */
14 
MDRP[10000]	/* MoveDirectRelPt */
PUSHB[ ]	/* 1 value pushed */
11 
SRP0[ ]	/* SetRefPoint0 */
PUSHB[ ]	/* 1 value pushed */
18 
MDRP[10000]	/* MoveDirectRelPt */
PUSHB[ ]	/* 1 value pushed */
8 
SRP0[ ]	/* SetRefPoint0 */
PUSHB[ ]	/* 1 value pushed */
20 
MDRP[10000]	/* MoveDirectRelPt */
PUSHB[ ]	/* 1 value pushed */
29 
SRP0[ ]	/* SetRefPoint0 */
PUSHB[ ]	/* 1 value pushed */
22 
MDRP[10000]	/* MoveDirectRelPt */
PUSHB[ ]	/* 1 value pushed */
0 
SRP0[ ]	/* SetRefPoint0 */
PUSHB[ ]	/* 1 value pushed */
24 
MDRP[10000]	/* MoveDirectRelPt */
PUSHB[ ]	/* 1 value pushed */
8 
SRP0[ ]	/* SetRefPoint0 */
PUSHB[ ]	/* 1 value pushed */
30 
MDRP[10000]	/* MoveDirectRelPt */
IUP[0]	/* InterpolateUntPts */
IUP[1]	/* InterpolateUntPts */";
};
width = 1220;
},
{
layerId = m002;
paths = (
{
closed = 1;
nodes = (
"421 0 LINE",
"501 410 LINE",
"765 410 LINE",
"685 0 LINE",
"829 0 LINE",
"909 410 LINE",
"1160 410 LINE",
"1160 547 LINE",
"935 547 LINE",
"1004 901 LINE",
"1235 901 LINE",
"1235 1040 LINE",
"1031 1040 LINE",
"1113 1456 LINE",
"969 1456 LINE",
"887 1040 LINE",
"623 1040 LINE",
"705 1456 LINE",
"562 1456 LINE",
"480 1040 LINE",
"195 1040 LINE",
"195 901 LINE",
"453 901 LINE",
"384 547 LINE",
"119 547 LINE",
"119 410 LINE",
"358 410 LINE",
"278 0 LINE"
);
},
{
closed = 1;
nodes = (
"596 901 LINE",
"860 901 LINE",
"791 547 LINE",
"527 547 LINE"
);
}
);
userData = {
assembly = "SVTCA[0]	/* SetFreedomAndProjectionVectorToAxis */
PUSHB[ ]	/* 1 value pushed */
0 
RCVT[ ]	/* ReadCVT */
IF[ ]	/* If */
PUSHB[ ]	/* 1 value pushed */
12 
MDAP[1]	/* MoveDirectAbsPt */
ELSE[ ]	/* Else */
PUSHB[ ]	/* 2 values pushed */
12 30 
MIAP[0]	/* MoveIndirectAbsPt */
EIF[ ]	/* EndIf */
PUSHB[ ]	/* 1 value pushed */
0 
RCVT[ ]	/* ReadCVT */
IF[ ]	/* If */
PUSHB[ ]	/* 1 value pushed */
16 
MDAP[1]	/* MoveDirectAbsPt */
ELSE[ ]	/* Else */
PUSHB[ ]	/* 2 values pushed */
16 30 
MIAP[0]	/* MoveIndirectAbsPt */
EIF[ ]	/* EndIf */
PUSHB[ ]	/* 1 value pushed */
0 
RCVT[ ]	/* ReadCVT */
IF[ ]	/* If */
PUSHB[ ]	/* 1 value pushed */
2 
MDAP[1]	/* MoveDirectAbsPt */
ELSE[ ]	/* Else */
PUSHB[ ]	/* 2 values pushed */
2 18 
MIAP[0]	/* MoveIndirectAbsPt */
EIF[ ]	/* EndIf */
PUSHB[ ]	/* 1 value pushed */
0 
RCVT[ ]	/* ReadCVT */
IF[ ]	/* If */
PUSHB[ ]	/* 1 value pushed */
26 
MDAP[1]	/* MoveDirectAbsPt */
ELSE[ ]	/* Else */
PUSHB[ ]	/* 2 values pushed */
26 18 
MIAP[0]	/* MoveIndirectAbsPt */
EIF[ ]	/* EndIf */
PUSHB[ ]	/* 3 values pushed */
29 12 2 
SRP1[ ]	/* SetRefPoint1 */
SRP2[ ]	/* SetRefPoint2 */
IP[ ]	/* InterpolatePts */
RUTG[ ]	/* RoundUpToGrid */
PUSHB[ ]	/* 1 value pushed */
29 
MDAP[1]	/* MoveDirectAbsPt */
RTG[ ]	/* RoundToGrid */
PUSHB[ ]	/* 2 values pushed */
0 3 
PUSHB[ ]	/* 1 value pushed */
10 
CALL[ ]	/* CallFunction */
IF[ ]	/* If */
POP[ ]	/* PopTopStack */
MDRP[11000]	/* MoveDirectRelPt */
ELSE[ ]	/* Else */
MIRP[10100]	/* MoveIndirectRelPt */
EIF[ ]	/* EndIf */
PUSHB[ ]	/* 1 value pushed */
4 
MDRP[10000]	/* MoveDirectRelPt */
PUSHB[ ]	/* 1 value pushed */
29 
SRP0[ ]	/* SetRefPoint0 */
PUSHB[ ]	/* 1 value pushed */
6 
MDRP[10000]	/* MoveDirectRelPt */
PUSHB[ ]	/* 1 value pushed */
29 
SRP0[ ]	/* SetRefPoint0 */
PUSHB[ ]	/* 1 value pushed */
11 
MDRP[10000]	/* MoveDirectRelPt */
PUSHB[ ]	/* 1 value pushed */
11 
MDAP[1]	/* MoveDirectAbsPt */
PUSHB[ ]	/* 2 values pushed */
8 3 
PUSHB[ ]	/* 1 value pushed */
10 
CALL[ ]	/* CallFunction */
IF[ ]	/* If */
POP[ ]	/* PopTopStack */
MDRP[11000]	/* MoveDirectRelPt */
ELSE[ ]	/* Else */
MIRP[10100]	/* MoveIndirectRelPt */
EIF[ ]	/* EndIf */
PUSHB[ ]	/* 1 value pushed */
11 
SRP0[ ]	/* SetRefPoint0 */
PUSHB[ ]	/* 1 value pushed */
14 
MDRP[10000]	/* MoveDirectRelPt */
PUSHB[ ]	/* 1 value pushed */
11 
SRP0[ ]	/* SetRefPoint0 */
PUSHB[ ]	/* 1 value pushed */
18 
MDRP[10000]	/* MoveDirectRelPt */
PUSHB[ ]	/* 1 value pushed */
8 
SRP0[ ]	/* SetRefPoint0 */
PUSHB[ ]	/* 1 value pushed */
20 
MDRP[10000]	/* MoveDirectRelPt */
PUSHB[ ]	/* 1 value pushed */
29 
SRP0[ ]	/* SetRefPoint0 */
PUSHB[ ]	/* 1 value pushed */
22 
MDRP[10000]	/* MoveDirectRelPt */
PUSHB[ ]	/* 1 value pushed */
0 
SRP0[ ]	/* SetRefPoint0 */
PUSHB[ ]	/* 1 value pushed */
24 
MDRP[10000]	/* MoveDirectRelPt */
PUSHB[ ]	/* 1 value pushed */
8 
SRP0[ ]	/* SetRefPoint0 */
PUSHB[ ]	/* 1 value pushed */
30 
MDRP[10000]	/* MoveDirectRelPt */
IUP[0]	/* InterpolateUntPts */
IUP[1]	/* InterpolateUntPts */";
};
width = 1261;
},
{
layerId = m003;
paths = (
{
closed = 1;
nodes = (
"304 0 LINE",
"378 410 LINE",
"742 410 LINE",
"667 0 LINE",
"723 0 LINE",
"798 410 LINE",
"1092 410 LINE",
"1092 462 LINE",
"807 462 LINE",
"903 986 LINE",
"1167 986 LINE",
"1167 1040 LINE",
"913 1040 LINE",
"989 1456 LINE",
"933 1456 LINE",
"857 1040 LINE",
"492 1040 LINE",
"568 1456 LINE",
"512 1456 LINE",
"437 1040 LINE",
"127 1040 LINE",
"127 986 LINE",
"427 986 LINE",
"332 462 LINE",
"51 462 LINE",
"51 410 LINE",
"322 410 LINE",
"248 0 LINE"
);
},
{
closed = 1;
nodes = (
"482 986 LINE",
"847 986 LINE",
"751 462 LINE",
"388 462 LINE"
);
}
);
userData = {
assembly = "SVTCA[0]	/* SetFreedomAndProjectionVectorToAxis */
PUSHB[ ]	/* 1 value pushed */
0 
RCVT[ ]	/* ReadCVT */
IF[ ]	/* If */
PUSHB[ ]	/* 1 value pushed */
12 
MDAP[1]	/* MoveDirectAbsPt */
ELSE[ ]	/* Else */
PUSHB[ ]	/* 2 values pushed */
12 30 
MIAP[0]	/* MoveIndirectAbsPt */
EIF[ ]	/* EndIf */
PUSHB[ ]	/* 1 value pushed */
0 
RCVT[ ]	/* ReadCVT */
IF[ ]	/* If */
PUSHB[ ]	/* 1 value pushed */
16 
MDAP[1]	/* MoveDirectAbsPt */
ELSE[ ]	/* Else */
PUSHB[ ]	/* 2 values pushed */
16 30 
MIAP[0]	/* MoveIndirectAbsPt */
EIF[ ]	/* EndIf */
PUSHB[ ]	/* 1 value pushed */
0 
RCVT[ ]	/* ReadCVT */
IF[ ]	/* If */
PUSHB[ ]	/* 1 value pushed */
2 
MDAP[1]	/* MoveDirectAbsPt */
ELSE[ ]	/* Else */
PUSHB[ ]	/* 2 values pushed */
2 18 
MIAP[0]	/* MoveIndirectAbsPt */
EIF[ ]	/* EndIf */
PUSHB[ ]	/* 1 value pushed */
0 
RCVT[ ]	/* ReadCVT */
IF[ ]	/* If */
PUSHB[ ]	/* 1 value pushed */
26 
MDAP[1]	/* MoveDirectAbsPt */
ELSE[ ]	/* Else */
PUSHB[ ]	/* 2 values pushed */
26 18 
MIAP[0]	/* MoveIndirectAbsPt */
EIF[ ]	/* EndIf */
PUSHB[ ]	/* 3 values pushed */
29 12 2 
SRP1[ ]	/* SetRefPoint1 */
SRP2[ ]	/* SetRefPoint2 */
IP[ ]	/* InterpolatePts */
RUTG[ ]	/* RoundUpToGrid */
PUSHB[ ]	/* 1 value pushed */
29 
MDAP[1]	/* MoveDirectAbsPt */
RTG[ ]	/* RoundToGrid */
PUSHB[ ]	/* 2 values pushed */
0 3 
PUSHB[ ]	/* 1 value pushed */
10 
CALL[ ]	/* CallFunction */
IF[ ]	/* If */
POP[ ]	/* PopTopStack */
MDRP[11000]	/* MoveDirectRelPt */
ELSE[ ]	/* Else */
MIRP[10100]	/* MoveIndirectRelPt */
EIF[ ]	/* EndIf */
PUSHB[ ]	/* 1 value pushed */
4 
MDRP[10000]	/* MoveDirectRelPt */
PUSHB[ ]	/* 1 value pushed */
29 
SRP0[ ]	/* SetRefPoint0 */
PUSHB[ ]	/* 1 value pushed */
6 
MDRP[10000]	/* MoveDirectRelPt */
PUSHB[ ]	/* 1 value pushed */
29 
SRP0[ ]	/* SetRefPoint0 */
PUSHB[ ]	/* 1 value pushed */
11 
MDRP[10000]	/* MoveDirectRelPt */
PUSHB[ ]	/* 1 value pushed */
11 
MDAP[1]	/* MoveDirectAbsPt */
PUSHB[ ]	/* 2 values pushed */
8 3 
PUSHB[ ]	/* 1 value pushed */
10 
CALL[ ]	/* CallFunction */
IF[ ]	/* If */
POP[ ]	/* PopTopStack */
MDRP[11000]	/* MoveDirectRelPt */
ELSE[ ]	/* Else */
MIRP[10100]	/* MoveIndirectRelPt */
EIF[ ]	/* EndIf */
PUSHB[ ]	/* 1 value pushed */
11 
SRP0[ ]	/* SetRefPoint0 */
PUSHB[ ]	/* 1 value pushed */
14 
MDRP[10000]	/* MoveDirectRelPt */
PUSHB[ ]	/* 1 value pushed */
11 
SRP0[ ]	/* SetRefPoint0 */
PUSHB[ ]	/* 1 value pushed */
18 
MDRP[10000]	/* MoveDirectRelPt */
PUSHB[ ]	/* 1 value pushed */
8 
SRP0[ ]	/* SetRefPoint0 */
PUSHB[ ]	/* 1 value pushed */
20 
MDRP[10000]	/* MoveDirectRelPt */
PUSHB[ ]	/* 1 value pushed */
29 
SRP0[ ]	/* SetRefPoint0 */
PUSHB[ ]	/* 1 value pushed */
22 
MDRP[10000]	/* MoveDirectRelPt */
PUSHB[ ]	/* 1 value pushed */
0 
SRP0[ ]	/* SetRefPoint0 */
PUSHB[ ]	/* 1 value pushed */
24 
MDRP[10000]	/* MoveDirectRelPt */
PUSHB[ ]	/* 1 value pushed */
8 
SRP0[ ]	/* SetRefPoint0 */
PUSHB[ ]	/* 1 value pushed */
30 
MDRP[10000]	/* MoveDirectRelPt */
IUP[0]	/* InterpolateUntPts */
IUP[1]	/* InterpolateUntPts */";
};
width = 1121;
}
);
note = uni0023;
unicode = 0023;
},
{
glyphname = dollar;
lastChange = "2020-12-11 04:50:28 +0000";
layers = (
{
background = {
paths = (
{
closed = 1;
nodes = (
"681 -215 LINE",
"681 -16 LINE",
"929 9.333 OFFCURVE",
"1079 158.333 OFFCURVE",
"1079 385 CURVE SMOOTH",
"1079 566.676 OFFCURVE",
"991.454 677.832 OFFCURVE",
"840 762.5 CURVE SMOOTH",
"718.243 829.704 OFFCURVE",
"557.328 866.158 OFFCURVE",
"480 947 CURVE SMOOTH",
"450.667 977.667 OFFCURVE",
"436 1018.333 OFFCURVE",
"436 1069 CURVE SMOOTH",
"436 1178.333 OFFCURVE",
"498.667 1244 OFFCURVE",
"608 1244 CURVE SMOOTH",
"718.667 1244 OFFCURVE",
"790 1165 OFFCURVE",
"790 1005 CURVE",
"1079 1005 LINE",
"1079 1265 OFFCURVE",
"938 1436.667 OFFCURVE",
"702 1470 CURVE",
"702 1687 LINE",
"542 1687 LINE",
"542 1473 LINE",
"303.333 1449 OFFCURVE",
"147 1295.333 OFFCURVE",
"147 1070 CURVE SMOOTH",
"147 939.333 OFFCURVE",
"191.167 847.5 OFFCURVE",
"266.5 777.5 CURVE SMOOTH",
"304.167 742.5 OFFCURVE",
"349.333 711.5 OFFCURVE",
"402 684.5 CURVE SMOOTH",
"521.019 623.484 OFFCURVE",
"670.965 591.883 OFFCURVE",
"744.5 513.5 CURVE SMOOTH",
"774.833 481.167 OFFCURVE",
"790 437.667 OFFCURVE",
"790 383 CURVE SMOOTH",
"790 277.667 OFFCURVE",
"717.333 211 OFFCURVE",
"600 211 CURVE SMOOTH",
"458.667 211 OFFCURVE",
"381 298.333 OFFCURVE",
"381 457 CURVE",
"92 457 LINE",
"92 183.667 OFFCURVE",
"248.667 12.333 OFFCURVE",
"522 -17 CURVE",
"522 -215 LINE"
);
}
);
};
layerId = "A9B054E9-1A63-4AEF-9EE1-561B1DFE8422";
paths = (
{
closed = 1;
nodes = (
"681 -215 LINE",
"681 -16 LINE",
"925 9 OFFCURVE",
"1079 154 OFFCURVE",
"1079 387 CURVE SMOOTH",
"1079 558 OFFCURVE",
"996 678 OFFCURVE",
"839 763 CURVE SMOOTH",
"682 849 OFFCURVE",
"436 882 OFFCURVE",
"436 1069 CURVE SMOOTH",
"436 1179 OFFCURVE",
"500 1244 OFFCURVE",
"605 1244 CURVE SMOOTH",
"720 1244 OFFCURVE",
"790 1165 OFFCURVE",
"790 1005 CURVE",
"1079 1005 LINE",
"1079 1264 OFFCURVE",
"938 1437 OFFCURVE",
"702 1470 CURVE",
"702 1687 LINE",
"542 1687 LINE",
"542 1473 LINE",
"303 1448 OFFCURVE",
"147 1299 OFFCURVE",
"147 1065 CURVE SMOOTH",
"147 872 OFFCURVE",
"255 759 OFFCURVE",
"403 684 CURVE SMOOTH",
"573 598 OFFCURVE",
"790 577 OFFCURVE",
"790 387 CURVE SMOOTH",
"790 275 OFFCURVE",
"717 211 OFFCURVE",
"598 211 CURVE SMOOTH",
"460 211 OFFCURVE",
"381 297 OFFCURVE",
"381 457 CURVE",
"92 457 LINE",
"92 188 OFFCURVE",
"244 13 OFFCURVE",
"522 -17 CURVE",
"522 -215 LINE"
);
}
);
userData = {
assembly = "SVTCA[0]	/* SetFreedomAndProjectionVectorToAxis */
PUSHB[ ]	/* 1 value pushed */
0 
RCVT[ ]	/* ReadCVT */
IF[ ]	/* If */
PUSHB[ ]	/* 1 value pushed */
9 
MDAP[1]	/* MoveDirectAbsPt */
ELSE[ ]	/* Else */
PUSHB[ ]	/* 2 values pushed */
9 30 
MIAP[0]	/* MoveIndirectAbsPt */
EIF[ ]	/* EndIf */
PUSHB[ ]	/* 1 value pushed */
0 
RCVT[ ]	/* ReadCVT */
IF[ ]	/* If */
PUSHB[ ]	/* 1 value pushed */
34 
MDAP[1]	/* MoveDirectAbsPt */
ELSE[ ]	/* Else */
PUSHB[ ]	/* 2 values pushed */
34 18 
MIAP[0]	/* MoveIndirectAbsPt */
EIF[ ]	/* EndIf */
PUSHB[ ]	/* 3 values pushed */
2 34 9 
SRP1[ ]	/* SetRefPoint1 */
SRP2[ ]	/* SetRefPoint2 */
IP[ ]	/* InterpolatePts */
PUSHB[ ]	/* 1 value pushed */
9 
SRP0[ ]	/* SetRefPoint0 */
PUSHB[ ]	/* 1 value pushed */
12 
MDRP[10000]	/* MoveDirectRelPt */
PUSHB[ ]	/* 1 value pushed */
9 
SRP0[ ]	/* SetRefPoint0 */
PUSHB[ ]	/* 1 value pushed */
16 
MDRP[10000]	/* MoveDirectRelPt */
PUSHB[ ]	/* 1 value pushed */
9 
SRP0[ ]	/* SetRefPoint0 */
PUSHB[ ]	/* 2 values pushed */
19 1 
PUSHB[ ]	/* 1 value pushed */
10 
CALL[ ]	/* CallFunction */
IF[ ]	/* If */
POP[ ]	/* PopTopStack */
MDRP[11000]	/* MoveDirectRelPt */
ELSE[ ]	/* Else */
MIRP[10100]	/* MoveIndirectRelPt */
EIF[ ]	/* EndIf */
PUSHB[ ]	/* 1 value pushed */
2 
SRP0[ ]	/* SetRefPoint0 */
PUSHB[ ]	/* 2 values pushed */
25 1 
PUSHB[ ]	/* 1 value pushed */
10 
CALL[ ]	/* CallFunction */
IF[ ]	/* If */
POP[ ]	/* PopTopStack */
MDRP[11000]	/* MoveDirectRelPt */
ELSE[ ]	/* Else */
MIRP[10100]	/* MoveIndirectRelPt */
EIF[ ]	/* EndIf */
PUSHB[ ]	/* 1 value pushed */
34 
SRP0[ ]	/* SetRefPoint0 */
PUSHB[ ]	/* 1 value pushed */
31 
MDRP[10000]	/* MoveDirectRelPt */
PUSHB[ ]	/* 1 value pushed */
34 
SRP0[ ]	/* SetRefPoint0 */
PUSHB[ ]	/* 1 value pushed */
38 
MDRP[10000]	/* MoveDirectRelPt */
PUSHB[ ]	/* 1 value pushed */
34 
SRP0[ ]	/* SetRefPoint0 */
PUSHB[ ]	/* 2 values pushed */
41 1 
PUSHB[ ]	/* 1 value pushed */
10 
CALL[ ]	/* CallFunction */
IF[ ]	/* If */
POP[ ]	/* PopTopStack */
MDRP[11000]	/* MoveDirectRelPt */
ELSE[ ]	/* Else */
MIRP[10100]	/* MoveIndirectRelPt */
EIF[ ]	/* EndIf */
IUP[0]	/* InterpolateUntPts */
IUP[1]	/* InterpolateUntPts */";
};
width = 1175;
},
{
layerId = m002;
paths = (
{
closed = 1;
nodes = (
"655 -208 LINE",
"655 -17 LINE",
"899 8.333 OFFCURVE",
"1041 151.667 OFFCURVE",
"1041 377 CURVE SMOOTH",
"1041 592.853 OFFCURVE",
"919.514 718.988 OFFCURVE",
"636.5 809.5 CURVE SMOOTH",
"433.167 875.5 OFFCURVE",
"351 946 OFFCURVE",
"351 1082 CURVE SMOOTH",
"351 1228.667 OFFCURVE",
"437.333 1315 OFFCURVE",
"596 1315 CURVE SMOOTH",
"748 1315 OFFCURVE",
"844 1196 OFFCURVE",
"844 1008 CURVE",
"1028 1008 LINE",
"1028 1281.333 OFFCURVE",
"897 1441.333 OFFCURVE",
"673 1472 CURVE",
"673 1692 LINE",
"524 1692 LINE",
"524 1473 LINE",
"301.333 1446.333 OFFCURVE",
"166 1297.667 OFFCURVE",
"166 1079 CURVE SMOOTH",
"166 864.333 OFFCURVE",
"290 730.667 OFFCURVE",
"574 644 CURVE SMOOTH",
"778 576 OFFCURVE",
"856 497.667 OFFCURVE",
"856 375 CURVE SMOOTH",
"856 229.667 OFFCURVE",
"749.667 140 OFFCURVE",
"575 140 CURVE SMOOTH",
"396.333 140 OFFCURVE",
"295 243.667 OFFCURVE",
"295 429 CURVE",
"110 429 LINE",
"110 165 OFFCURVE",
"259 5.667 OFFCURVE",
"507 -17 CURVE",
"507 -208 LINE"
);
}
);
userData = {
assembly = "SVTCA[0]	/* SetFreedomAndProjectionVectorToAxis */
PUSHB[ ]	/* 1 value pushed */
0 
RCVT[ ]	/* ReadCVT */
IF[ ]	/* If */
PUSHB[ ]	/* 1 value pushed */
9 
MDAP[1]	/* MoveDirectAbsPt */
ELSE[ ]	/* Else */
PUSHB[ ]	/* 2 values pushed */
9 30 
MIAP[0]	/* MoveIndirectAbsPt */
EIF[ ]	/* EndIf */
PUSHB[ ]	/* 1 value pushed */
0 
RCVT[ ]	/* ReadCVT */
IF[ ]	/* If */
PUSHB[ ]	/* 1 value pushed */
34 
MDAP[1]	/* MoveDirectAbsPt */
ELSE[ ]	/* Else */
PUSHB[ ]	/* 2 values pushed */
34 18 
MIAP[0]	/* MoveIndirectAbsPt */
EIF[ ]	/* EndIf */
PUSHB[ ]	/* 3 values pushed */
2 34 9 
SRP1[ ]	/* SetRefPoint1 */
SRP2[ ]	/* SetRefPoint2 */
IP[ ]	/* InterpolatePts */
PUSHB[ ]	/* 1 value pushed */
9 
SRP0[ ]	/* SetRefPoint0 */
PUSHB[ ]	/* 1 value pushed */
12 
MDRP[10000]	/* MoveDirectRelPt */
PUSHB[ ]	/* 1 value pushed */
9 
SRP0[ ]	/* SetRefPoint0 */
PUSHB[ ]	/* 1 value pushed */
16 
MDRP[10000]	/* MoveDirectRelPt */
PUSHB[ ]	/* 1 value pushed */
9 
SRP0[ ]	/* SetRefPoint0 */
PUSHB[ ]	/* 2 values pushed */
19 1 
PUSHB[ ]	/* 1 value pushed */
10 
CALL[ ]	/* CallFunction */
IF[ ]	/* If */
POP[ ]	/* PopTopStack */
MDRP[11000]	/* MoveDirectRelPt */
ELSE[ ]	/* Else */
MIRP[10100]	/* MoveIndirectRelPt */
EIF[ ]	/* EndIf */
PUSHB[ ]	/* 1 value pushed */
2 
SRP0[ ]	/* SetRefPoint0 */
PUSHB[ ]	/* 2 values pushed */
25 1 
PUSHB[ ]	/* 1 value pushed */
10 
CALL[ ]	/* CallFunction */
IF[ ]	/* If */
POP[ ]	/* PopTopStack */
MDRP[11000]	/* MoveDirectRelPt */
ELSE[ ]	/* Else */
MIRP[10100]	/* MoveIndirectRelPt */
EIF[ ]	/* EndIf */
PUSHB[ ]	/* 1 value pushed */
34 
SRP0[ ]	/* SetRefPoint0 */
PUSHB[ ]	/* 1 value pushed */
31 
MDRP[10000]	/* MoveDirectRelPt */
PUSHB[ ]	/* 1 value pushed */
34 
SRP0[ ]	/* SetRefPoint0 */
PUSHB[ ]	/* 1 value pushed */
38 
MDRP[10000]	/* MoveDirectRelPt */
PUSHB[ ]	/* 1 value pushed */
34 
SRP0[ ]	/* SetRefPoint0 */
PUSHB[ ]	/* 2 values pushed */
41 1 
PUSHB[ ]	/* 1 value pushed */
10 
CALL[ ]	/* CallFunction */
IF[ ]	/* If */
POP[ ]	/* PopTopStack */
MDRP[11000]	/* MoveDirectRelPt */
ELSE[ ]	/* Else */
MIRP[10100]	/* MoveIndirectRelPt */
EIF[ ]	/* EndIf */
IUP[0]	/* InterpolateUntPts */
IUP[1]	/* InterpolateUntPts */";
};
width = 1150;
},
{
layerId = m003;
paths = (
{
closed = 1;
nodes = (
"620 -208 LINE",
"620 -20 LINE",
"852 -6.667 OFFCURVE",
"1001 134 OFFCURVE",
"1001 346 CURVE SMOOTH",
"1001 598 OFFCURVE",
"817 677 OFFCURVE",
"575 760 CURVE SMOOTH",
"368 831 OFFCURVE",
"222 893 OFFCURVE",
"222 1112 CURVE SMOOTH",
"222 1296 OFFCURVE",
"363 1424 OFFCURVE",
"579 1424 CURVE SMOOTH",
"801.667 1424 OFFCURVE",
"939 1274 OFFCURVE",
"939 1047 CURVE",
"993 1047 LINE",
"993 1305.667 OFFCURVE",
"854.333 1462.667 OFFCURVE",
"609 1476 CURVE",
"609 1663 LINE",
"554 1663 LINE",
"554 1476 LINE",
"324.667 1468 OFFCURVE",
"168 1327.333 OFFCURVE",
"168 1110 CURVE SMOOTH",
"168 867 OFFCURVE",
"335 785 OFFCURVE",
"553.5 709.5 CURVE SMOOTH",
"765 636 OFFCURVE",
"947 568 OFFCURVE",
"947 344 CURVE SMOOTH",
"947 168 OFFCURVE",
"795.333 32 OFFCURVE",
"586 32 CURVE SMOOTH",
"332.667 32 OFFCURVE",
"175 173 OFFCURVE",
"175 409 CURVE",
"121 409 LINE",
"121 146.333 OFFCURVE",
"282.333 -10.333 OFFCURVE",
"565 -21 CURVE",
"565 -208 LINE"
);
}
);
userData = {
assembly = "SVTCA[0]	/* SetFreedomAndProjectionVectorToAxis */
PUSHB[ ]	/* 1 value pushed */
0 
RCVT[ ]	/* ReadCVT */
IF[ ]	/* If */
PUSHB[ ]	/* 1 value pushed */
9 
MDAP[1]	/* MoveDirectAbsPt */
ELSE[ ]	/* Else */
PUSHB[ ]	/* 2 values pushed */
9 30 
MIAP[0]	/* MoveIndirectAbsPt */
EIF[ ]	/* EndIf */
PUSHB[ ]	/* 1 value pushed */
0 
RCVT[ ]	/* ReadCVT */
IF[ ]	/* If */
PUSHB[ ]	/* 1 value pushed */
34 
MDAP[1]	/* MoveDirectAbsPt */
ELSE[ ]	/* Else */
PUSHB[ ]	/* 2 values pushed */
34 18 
MIAP[0]	/* MoveIndirectAbsPt */
EIF[ ]	/* EndIf */
PUSHB[ ]	/* 3 values pushed */
2 34 9 
SRP1[ ]	/* SetRefPoint1 */
SRP2[ ]	/* SetRefPoint2 */
IP[ ]	/* InterpolatePts */
PUSHB[ ]	/* 1 value pushed */
9 
SRP0[ ]	/* SetRefPoint0 */
PUSHB[ ]	/* 1 value pushed */
12 
MDRP[10000]	/* MoveDirectRelPt */
PUSHB[ ]	/* 1 value pushed */
9 
SRP0[ ]	/* SetRefPoint0 */
PUSHB[ ]	/* 1 value pushed */
16 
MDRP[10000]	/* MoveDirectRelPt */
PUSHB[ ]	/* 1 value pushed */
9 
SRP0[ ]	/* SetRefPoint0 */
PUSHB[ ]	/* 2 values pushed */
19 1 
PUSHB[ ]	/* 1 value pushed */
10 
CALL[ ]	/* CallFunction */
IF[ ]	/* If */
POP[ ]	/* PopTopStack */
MDRP[11000]	/* MoveDirectRelPt */
ELSE[ ]	/* Else */
MIRP[10100]	/* MoveIndirectRelPt */
EIF[ ]	/* EndIf */
PUSHB[ ]	/* 1 value pushed */
2 
SRP0[ ]	/* SetRefPoint0 */
PUSHB[ ]	/* 2 values pushed */
25 1 
PUSHB[ ]	/* 1 value pushed */
10 
CALL[ ]	/* CallFunction */
IF[ ]	/* If */
POP[ ]	/* PopTopStack */
MDRP[11000]	/* MoveDirectRelPt */
ELSE[ ]	/* Else */
MIRP[10100]	/* MoveIndirectRelPt */
EIF[ ]	/* EndIf */
PUSHB[ ]	/* 1 value pushed */
34 
SRP0[ ]	/* SetRefPoint0 */
PUSHB[ ]	/* 1 value pushed */
31 
MDRP[10000]	/* MoveDirectRelPt */
PUSHB[ ]	/* 1 value pushed */
34 
SRP0[ ]	/* SetRefPoint0 */
PUSHB[ ]	/* 1 value pushed */
38 
MDRP[10000]	/* MoveDirectRelPt */
PUSHB[ ]	/* 1 value pushed */
34 
SRP0[ ]	/* SetRefPoint0 */
PUSHB[ ]	/* 2 values pushed */
41 1 
PUSHB[ ]	/* 1 value pushed */
10 
CALL[ ]	/* CallFunction */
IF[ ]	/* If */
POP[ ]	/* PopTopStack */
MDRP[11000]	/* MoveDirectRelPt */
ELSE[ ]	/* Else */
MIRP[10100]	/* MoveIndirectRelPt */
EIF[ ]	/* EndIf */
IUP[0]	/* InterpolateUntPts */
IUP[1]	/* InterpolateUntPts */";
};
width = 1121;
}
);
note = uni0024;
unicode = 0024;
},
{
glyphname = percent;
lastChange = "2020-12-06 18:37:19 +0000";
layers = (
{
layerId = "A9B054E9-1A63-4AEF-9EE1-561B1DFE8422";
paths = (
{
closed = 1;
nodes = (
"1180 1247 LINE",
"1039 1323 LINE",
"328 185 LINE",
"469 109 LINE"
);
},
{
closed = 1;
nodes = (
"1299.667 -20 OFFCURVE",
"1424 100.333 OFFCURVE",
"1424 279 CURVE SMOOTH",
"1424 351 LINE SMOOTH",
"1424 541.667 OFFCURVE",
"1296.333 657 OFFCURVE",
"1107 657 CURVE SMOOTH",
"920.333 657 OFFCURVE",
"791 537 OFFCURVE",
"791 357 CURVE SMOOTH",
"791 283 LINE SMOOTH",
"791 100.333 OFFCURVE",
"917 -20 OFFCURVE",
"1109 -20 CURVE SMOOTH"
);
},
{
closed = 1;
nodes = (
"1037 146 OFFCURVE",
"983 205.667 OFFCURVE",
"983 279 CURVE SMOOTH",
"983 354 LINE SMOOTH",
"983 438 OFFCURVE",
"1032.333 490 OFFCURVE",
"1107 490 CURVE SMOOTH",
"1181.667 490 OFFCURVE",
"1231 437 OFFCURVE",
"1231 357 CURVE SMOOTH",
"1231 281 LINE SMOOTH",
"1231 191 OFFCURVE",
"1190.333 146 OFFCURVE",
"1109 146 CURVE SMOOTH"
);
},
{
closed = 1;
nodes = (
"600 800 OFFCURVE",
"727 919 OFFCURVE",
"727 1099 CURVE SMOOTH",
"727 1171 LINE SMOOTH",
"727 1359 OFFCURVE",
"600.667 1477 OFFCURVE",
"410 1477 CURVE SMOOTH",
"222 1477 OFFCURVE",
"95 1354.667 OFFCURVE",
"95 1176 CURVE SMOOTH",
"95 1105 LINE SMOOTH",
"95 918.333 OFFCURVE",
"222.667 800 OFFCURVE",
"412 800 CURVE SMOOTH"
);
},
{
closed = 1;
nodes = (
"337.333 966 OFFCURVE",
"287 1019 OFFCURVE",
"287 1099 CURVE SMOOTH",
"287 1172 LINE SMOOTH",
"287 1258.667 OFFCURVE",
"336.667 1310 OFFCURVE",
"410 1310 CURVE SMOOTH",
"487.333 1310 OFFCURVE",
"534 1256 OFFCURVE",
"534 1176 CURVE SMOOTH",
"534 1102 LINE SMOOTH",
"534 1019.333 OFFCURVE",
"486.667 966 OFFCURVE",
"412 966 CURVE SMOOTH"
);
}
);
userData = {
assembly = "SVTCA[0]	/* SetFreedomAndProjectionVectorToAxis */
PUSHB[ ]	/* 1 value pushed */
0 
RCVT[ ]	/* ReadCVT */
IF[ ]	/* If */
PUSHB[ ]	/* 1 value pushed */
3 
MDAP[1]	/* MoveDirectAbsPt */
ELSE[ ]	/* Else */
PUSHB[ ]	/* 2 values pushed */
3 30 
MIAP[0]	/* MoveIndirectAbsPt */
EIF[ ]	/* EndIf */
PUSHB[ ]	/* 1 value pushed */
0 
RCVT[ ]	/* ReadCVT */
IF[ ]	/* If */
PUSHB[ ]	/* 1 value pushed */
35 
MDAP[1]	/* MoveDirectAbsPt */
ELSE[ ]	/* Else */
PUSHB[ ]	/* 2 values pushed */
35 18 
MIAP[0]	/* MoveIndirectAbsPt */
EIF[ ]	/* EndIf */
PUSHB[ ]	/* 1 value pushed */
3 
SRP0[ ]	/* SetRefPoint0 */
PUSHB[ ]	/* 1 value pushed */
10 
MDRP[10000]	/* MoveDirectRelPt */
PUSHB[ ]	/* 1 value pushed */
10 
MDAP[1]	/* MoveDirectAbsPt */
PUSHB[ ]	/* 2 values pushed */
17 4 
PUSHB[ ]	/* 1 value pushed */
10 
CALL[ ]	/* CallFunction */
IF[ ]	/* If */
POP[ ]	/* PopTopStack */
MDRP[11000]	/* MoveDirectRelPt */
ELSE[ ]	/* Else */
MIRP[10100]	/* MoveIndirectRelPt */
EIF[ ]	/* EndIf */
PUSHB[ ]	/* 1 value pushed */
3 
SRP0[ ]	/* SetRefPoint0 */
PUSHB[ ]	/* 2 values pushed */
24 4 
PUSHB[ ]	/* 1 value pushed */
10 
CALL[ ]	/* CallFunction */
IF[ ]	/* If */
POP[ ]	/* PopTopStack */
MDRP[11000]	/* MoveDirectRelPt */
ELSE[ ]	/* Else */
MIRP[10100]	/* MoveIndirectRelPt */
EIF[ ]	/* EndIf */
PUSHB[ ]	/* 1 value pushed */
35 
SRP0[ ]	/* SetRefPoint0 */
PUSHB[ ]	/* 1 value pushed */
29 
MDRP[10000]	/* MoveDirectRelPt */
PUSHB[ ]	/* 1 value pushed */
29 
MDAP[1]	/* MoveDirectAbsPt */
PUSHB[ ]	/* 1 value pushed */
35 
SRP0[ ]	/* SetRefPoint0 */
PUSHB[ ]	/* 2 values pushed */
42 4 
PUSHB[ ]	/* 1 value pushed */
10 
CALL[ ]	/* CallFunction */
IF[ ]	/* If */
POP[ ]	/* PopTopStack */
MDRP[11000]	/* MoveDirectRelPt */
ELSE[ ]	/* Else */
MIRP[10100]	/* MoveIndirectRelPt */
EIF[ ]	/* EndIf */
PUSHB[ ]	/* 1 value pushed */
29 
SRP0[ ]	/* SetRefPoint0 */
PUSHB[ ]	/* 2 values pushed */
49 4 
PUSHB[ ]	/* 1 value pushed */
10 
CALL[ ]	/* CallFunction */
IF[ ]	/* If */
POP[ ]	/* PopTopStack */
MDRP[11000]	/* MoveDirectRelPt */
ELSE[ ]	/* Else */
MIRP[10100]	/* MoveIndirectRelPt */
EIF[ ]	/* EndIf */
PUSHB[ ]	/* 3 values pushed */
53 35 3 
SRP1[ ]	/* SetRefPoint1 */
SRP2[ ]	/* SetRefPoint2 */
IP[ ]	/* InterpolatePts */
PUSHB[ ]	/* 1 value pushed */
53 
MDAP[1]	/* MoveDirectAbsPt */
PUSHB[ ]	/* 3 values pushed */
55 3 35 
SRP1[ ]	/* SetRefPoint1 */
SRP2[ ]	/* SetRefPoint2 */
IP[ ]	/* InterpolatePts */
PUSHB[ ]	/* 1 value pushed */
55 
MDAP[1]	/* MoveDirectAbsPt */
IUP[0]	/* InterpolateUntPts */
IUP[1]	/* InterpolateUntPts */";
};
width = 1512;
},
{
layerId = m002;
paths = (
{
closed = 1;
nodes = (
"1158 1248 LINE",
"1053 1314 LINE",
"342 176 LINE",
"447 110 LINE"
);
},
{
closed = 1;
nodes = (
"1287.333 -21 OFFCURVE",
"1411 104.333 OFFCURVE",
"1411 279 CURVE SMOOTH",
"1411 350 LINE SMOOTH",
"1411 535.333 OFFCURVE",
"1286.667 657 OFFCURVE",
"1112 657 CURVE SMOOTH",
"937.333 657 OFFCURVE",
"814 531.667 OFFCURVE",
"814 357 CURVE SMOOTH",
"814 285 LINE SMOOTH",
"814 99.667 OFFCURVE",
"940.667 -21 OFFCURVE",
"1114 -21 CURVE SMOOTH"
);
},
{
closed = 1;
nodes = (
"1015.333 99 OFFCURVE",
"952 173.667 OFFCURVE",
"952 279 CURVE SMOOTH",
"952 353 LINE SMOOTH",
"952 465 OFFCURVE",
"1017.333 536 OFFCURVE",
"1112 536 CURVE SMOOTH",
"1209.333 536 OFFCURVE",
"1272 462.333 OFFCURVE",
"1272 357 CURVE SMOOTH",
"1272 283 LINE SMOOTH",
"1272 169.667 OFFCURVE",
"1210 99 OFFCURVE",
"1114 99 CURVE SMOOTH"
);
},
{
closed = 1;
nodes = (
"577 800 OFFCURVE",
"701 923 OFFCURVE",
"701 1099 CURVE SMOOTH",
"701 1170 LINE SMOOTH",
"701 1351.333 OFFCURVE",
"580.333 1477 OFFCURVE",
"403 1477 CURVE SMOOTH",
"228.333 1477 OFFCURVE",
"105 1350.667 OFFCURVE",
"105 1176 CURVE SMOOTH",
"105 1106 LINE SMOOTH",
"105 920.667 OFFCURVE",
"231.667 800 OFFCURVE",
"405 800 CURVE SMOOTH"
);
},
{
closed = 1;
nodes = (
"306.333 920 OFFCURVE",
"243 995 OFFCURVE",
"243 1099 CURVE SMOOTH",
"243 1172 LINE SMOOTH",
"243 1281.333 OFFCURVE",
"304.333 1356 OFFCURVE",
"403 1356 CURVE SMOOTH",
"501.667 1356 OFFCURVE",
"563 1280 OFFCURVE",
"563 1176 CURVE SMOOTH",
"563 1103 LINE SMOOTH",
"563 989.667 OFFCURVE",
"499.667 920 OFFCURVE",
"405 920 CURVE SMOOTH"
);
}
);
userData = {
assembly = "SVTCA[0]	/* SetFreedomAndProjectionVectorToAxis */
PUSHB[ ]	/* 1 value pushed */
0 
RCVT[ ]	/* ReadCVT */
IF[ ]	/* If */
PUSHB[ ]	/* 1 value pushed */
3 
MDAP[1]	/* MoveDirectAbsPt */
ELSE[ ]	/* Else */
PUSHB[ ]	/* 2 values pushed */
3 30 
MIAP[0]	/* MoveIndirectAbsPt */
EIF[ ]	/* EndIf */
PUSHB[ ]	/* 1 value pushed */
0 
RCVT[ ]	/* ReadCVT */
IF[ ]	/* If */
PUSHB[ ]	/* 1 value pushed */
35 
MDAP[1]	/* MoveDirectAbsPt */
ELSE[ ]	/* Else */
PUSHB[ ]	/* 2 values pushed */
35 18 
MIAP[0]	/* MoveIndirectAbsPt */
EIF[ ]	/* EndIf */
PUSHB[ ]	/* 1 value pushed */
3 
SRP0[ ]	/* SetRefPoint0 */
PUSHB[ ]	/* 1 value pushed */
10 
MDRP[10000]	/* MoveDirectRelPt */
PUSHB[ ]	/* 1 value pushed */
10 
MDAP[1]	/* MoveDirectAbsPt */
PUSHB[ ]	/* 2 values pushed */
17 4 
PUSHB[ ]	/* 1 value pushed */
10 
CALL[ ]	/* CallFunction */
IF[ ]	/* If */
POP[ ]	/* PopTopStack */
MDRP[11000]	/* MoveDirectRelPt */
ELSE[ ]	/* Else */
MIRP[10100]	/* MoveIndirectRelPt */
EIF[ ]	/* EndIf */
PUSHB[ ]	/* 1 value pushed */
3 
SRP0[ ]	/* SetRefPoint0 */
PUSHB[ ]	/* 2 values pushed */
24 4 
PUSHB[ ]	/* 1 value pushed */
10 
CALL[ ]	/* CallFunction */
IF[ ]	/* If */
POP[ ]	/* PopTopStack */
MDRP[11000]	/* MoveDirectRelPt */
ELSE[ ]	/* Else */
MIRP[10100]	/* MoveIndirectRelPt */
EIF[ ]	/* EndIf */
PUSHB[ ]	/* 1 value pushed */
35 
SRP0[ ]	/* SetRefPoint0 */
PUSHB[ ]	/* 1 value pushed */
29 
MDRP[10000]	/* MoveDirectRelPt */
PUSHB[ ]	/* 1 value pushed */
29 
MDAP[1]	/* MoveDirectAbsPt */
PUSHB[ ]	/* 1 value pushed */
35 
SRP0[ ]	/* SetRefPoint0 */
PUSHB[ ]	/* 2 values pushed */
42 4 
PUSHB[ ]	/* 1 value pushed */
10 
CALL[ ]	/* CallFunction */
IF[ ]	/* If */
POP[ ]	/* PopTopStack */
MDRP[11000]	/* MoveDirectRelPt */
ELSE[ ]	/* Else */
MIRP[10100]	/* MoveIndirectRelPt */
EIF[ ]	/* EndIf */
PUSHB[ ]	/* 1 value pushed */
29 
SRP0[ ]	/* SetRefPoint0 */
PUSHB[ ]	/* 2 values pushed */
49 4 
PUSHB[ ]	/* 1 value pushed */
10 
CALL[ ]	/* CallFunction */
IF[ ]	/* If */
POP[ ]	/* PopTopStack */
MDRP[11000]	/* MoveDirectRelPt */
ELSE[ ]	/* Else */
MIRP[10100]	/* MoveIndirectRelPt */
EIF[ ]	/* EndIf */
PUSHB[ ]	/* 3 values pushed */
53 35 3 
SRP1[ ]	/* SetRefPoint1 */
SRP2[ ]	/* SetRefPoint2 */
IP[ ]	/* InterpolatePts */
PUSHB[ ]	/* 1 value pushed */
53 
MDAP[1]	/* MoveDirectAbsPt */
PUSHB[ ]	/* 3 values pushed */
55 3 35 
SRP1[ ]	/* SetRefPoint1 */
SRP2[ ]	/* SetRefPoint2 */
IP[ ]	/* InterpolatePts */
PUSHB[ ]	/* 1 value pushed */
55 
MDAP[1]	/* MoveDirectAbsPt */
IUP[0]	/* InterpolateUntPts */
IUP[1]	/* InterpolateUntPts */";
};
width = 1500;
},
{
layerId = m003;
paths = (
{
closed = 1;
nodes = (
"1133 1269 LINE",
"1088 1300 LINE",
"377 162 LINE",
"422 131 LINE"
);
},
{
closed = 1;
nodes = (
"1296.333 -21 OFFCURVE",
"1413 107 OFFCURVE",
"1413 279 CURVE SMOOTH",
"1413 350 LINE SMOOTH",
"1413 531.333 OFFCURVE",
"1297 657 OFFCURVE",
"1141 657 CURVE SMOOTH",
"986.333 657 OFFCURVE",
"870 529 OFFCURVE",
"870 357 CURVE SMOOTH",
"870 284 LINE SMOOTH",
"870 104 OFFCURVE",
"988.333 -21 OFFCURVE",
"1143 -21 CURVE SMOOTH"
);
},
{
closed = 1;
nodes = (
"1011 34 OFFCURVE",
"925 136.333 OFFCURVE",
"925 279 CURVE SMOOTH",
"925 353 LINE SMOOTH",
"925 505 OFFCURVE",
"1009 602 OFFCURVE",
"1141 602 CURVE SMOOTH",
"1274.333 602 OFFCURVE",
"1358 507.667 OFFCURVE",
"1358 357 CURVE SMOOTH",
"1358 284 LINE SMOOTH",
"1358 136 OFFCURVE",
"1273.667 34 OFFCURVE",
"1143 34 CURVE SMOOTH"
);
},
{
closed = 1;
nodes = (
"542.667 800 OFFCURVE",
"657 929.667 OFFCURVE",
"657 1099 CURVE SMOOTH",
"657 1171 LINE SMOOTH",
"657 1348.333 OFFCURVE",
"542 1477 OFFCURVE",
"386 1477 CURVE SMOOTH",
"231.333 1477 OFFCURVE",
"114 1348 OFFCURVE",
"114 1176 CURVE SMOOTH",
"114 1105 LINE SMOOTH",
"114 925 OFFCURVE",
"232 800 OFFCURVE",
"388 800 CURVE SMOOTH"
);
},
{
closed = 1;
nodes = (
"254.667 855 OFFCURVE",
"169 960.333 OFFCURVE",
"169 1099 CURVE SMOOTH",
"169 1169 LINE SMOOTH",
"169 1322.333 OFFCURVE",
"259.333 1422 OFFCURVE",
"386 1422 CURVE SMOOTH",
"515.333 1422 OFFCURVE",
"602 1320 OFFCURVE",
"602 1176 CURVE SMOOTH",
"602 1104 LINE SMOOTH",
"602 956 OFFCURVE",
"516 855 OFFCURVE",
"388 855 CURVE SMOOTH"
);
}
);
userData = {
assembly = "SVTCA[0]	/* SetFreedomAndProjectionVectorToAxis */
PUSHB[ ]	/* 1 value pushed */
0 
RCVT[ ]	/* ReadCVT */
IF[ ]	/* If */
PUSHB[ ]	/* 1 value pushed */
3 
MDAP[1]	/* MoveDirectAbsPt */
ELSE[ ]	/* Else */
PUSHB[ ]	/* 2 values pushed */
3 30 
MIAP[0]	/* MoveIndirectAbsPt */
EIF[ ]	/* EndIf */
PUSHB[ ]	/* 1 value pushed */
0 
RCVT[ ]	/* ReadCVT */
IF[ ]	/* If */
PUSHB[ ]	/* 1 value pushed */
35 
MDAP[1]	/* MoveDirectAbsPt */
ELSE[ ]	/* Else */
PUSHB[ ]	/* 2 values pushed */
35 18 
MIAP[0]	/* MoveIndirectAbsPt */
EIF[ ]	/* EndIf */
PUSHB[ ]	/* 1 value pushed */
3 
SRP0[ ]	/* SetRefPoint0 */
PUSHB[ ]	/* 1 value pushed */
10 
MDRP[10000]	/* MoveDirectRelPt */
PUSHB[ ]	/* 1 value pushed */
10 
MDAP[1]	/* MoveDirectAbsPt */
PUSHB[ ]	/* 2 values pushed */
17 4 
PUSHB[ ]	/* 1 value pushed */
10 
CALL[ ]	/* CallFunction */
IF[ ]	/* If */
POP[ ]	/* PopTopStack */
MDRP[11000]	/* MoveDirectRelPt */
ELSE[ ]	/* Else */
MIRP[10100]	/* MoveIndirectRelPt */
EIF[ ]	/* EndIf */
PUSHB[ ]	/* 1 value pushed */
3 
SRP0[ ]	/* SetRefPoint0 */
PUSHB[ ]	/* 2 values pushed */
24 4 
PUSHB[ ]	/* 1 value pushed */
10 
CALL[ ]	/* CallFunction */
IF[ ]	/* If */
POP[ ]	/* PopTopStack */
MDRP[11000]	/* MoveDirectRelPt */
ELSE[ ]	/* Else */
MIRP[10100]	/* MoveIndirectRelPt */
EIF[ ]	/* EndIf */
PUSHB[ ]	/* 1 value pushed */
35 
SRP0[ ]	/* SetRefPoint0 */
PUSHB[ ]	/* 1 value pushed */
29 
MDRP[10000]	/* MoveDirectRelPt */
PUSHB[ ]	/* 1 value pushed */
29 
MDAP[1]	/* MoveDirectAbsPt */
PUSHB[ ]	/* 1 value pushed */
35 
SRP0[ ]	/* SetRefPoint0 */
PUSHB[ ]	/* 2 values pushed */
42 4 
PUSHB[ ]	/* 1 value pushed */
10 
CALL[ ]	/* CallFunction */
IF[ ]	/* If */
POP[ ]	/* PopTopStack */
MDRP[11000]	/* MoveDirectRelPt */
ELSE[ ]	/* Else */
MIRP[10100]	/* MoveIndirectRelPt */
EIF[ ]	/* EndIf */
PUSHB[ ]	/* 1 value pushed */
29 
SRP0[ ]	/* SetRefPoint0 */
PUSHB[ ]	/* 2 values pushed */
49 4 
PUSHB[ ]	/* 1 value pushed */
10 
CALL[ ]	/* CallFunction */
IF[ ]	/* If */
POP[ ]	/* PopTopStack */
MDRP[11000]	/* MoveDirectRelPt */
ELSE[ ]	/* Else */
MIRP[10100]	/* MoveIndirectRelPt */
EIF[ ]	/* EndIf */
PUSHB[ ]	/* 3 values pushed */
53 35 3 
SRP1[ ]	/* SetRefPoint1 */
SRP2[ ]	/* SetRefPoint2 */
IP[ ]	/* InterpolatePts */
PUSHB[ ]	/* 1 value pushed */
53 
MDAP[1]	/* MoveDirectAbsPt */
PUSHB[ ]	/* 3 values pushed */
55 3 35 
SRP1[ ]	/* SetRefPoint1 */
SRP2[ ]	/* SetRefPoint2 */
IP[ ]	/* InterpolatePts */
PUSHB[ ]	/* 1 value pushed */
55 
MDAP[1]	/* MoveDirectAbsPt */
IUP[0]	/* InterpolateUntPts */
IUP[1]	/* InterpolateUntPts */";
};
width = 1527;
}
);
note = uni0025;
unicode = 0025;
},
{
glyphname = ampersand;
lastChange = "2020-12-06 19:31:30 +0000";
layers = (
{
layerId = "A9B054E9-1A63-4AEF-9EE1-561B1DFE8422";
paths = (
{
closed = 1;
nodes = (
"686.333 -20 OFFCURVE",
"809.667 15.333 OFFCURVE",
"917 86 CURVE",
"992 0 LINE",
"1320 0 LINE",
"1102 253 LINE",
"1189.333 370.333 OFFCURVE",
"1233 523.667 OFFCURVE",
"1233 713 CURVE",
"987 713 LINE",
"987 619.667 OFFCURVE",
"967.333 534.333 OFFCURVE",
"928 457 CURVE",
"677 749 LINE",
"789 830 LINE SMOOTH",
"906.333 918.667 OFFCURVE",
"965 1021 OFFCURVE",
"965 1137 CURVE SMOOTH",
"965 1330.333 OFFCURVE",
"810.333 1476 OFFCURVE",
"593 1476 CURVE SMOOTH",
"350.333 1476 OFFCURVE",
"196 1319.667 OFFCURVE",
"196 1093 CURVE SMOOTH",
"196 982.333 OFFCURVE",
"248.333 886 OFFCURVE",
"335 770 CURVE",
"133.667 630 OFFCURVE",
"71 526.667 OFFCURVE",
"71 392 CURVE SMOOTH",
"71 145.333 OFFCURVE",
"259 -20 OFFCURVE",
"547 -20 CURVE SMOOTH"
);
},
{
closed = 1;
nodes = (
"442.333 212 OFFCURVE",
"361 292 OFFCURVE",
"361 408 CURVE SMOOTH",
"361 476.667 OFFCURVE",
"390.667 536.333 OFFCURVE",
"450 587 CURVE",
"471 602 LINE",
"758 270 LINE",
"696 231.333 OFFCURVE",
"630.333 212 OFFCURVE",
"561 212 CURVE SMOOTH"
);
},
{
closed = 1;
nodes = (
"484.333 984 OFFCURVE",
"455 1047 OFFCURVE",
"455 1097 CURVE SMOOTH",
"455 1185 OFFCURVE",
"509.333 1243 OFFCURVE",
"592 1243 CURVE SMOOTH",
"669.333 1243 OFFCURVE",
"724 1185.667 OFFCURVE",
"724 1119 CURVE SMOOTH",
"724 1052.333 OFFCURVE",
"698.667 1009.667 OFFCURVE",
"620 959 CURVE SMOOTH",
"543 908 LINE"
);
}
);
userData = {
assembly = "SVTCA[0]	/* SetFreedomAndProjectionVectorToAxis */
PUSHB[ ]	/* 1 value pushed */
0 
RCVT[ ]	/* ReadCVT */
IF[ ]	/* If */
PUSHB[ ]	/* 1 value pushed */
9 
MDAP[1]	/* MoveDirectAbsPt */
ELSE[ ]	/* Else */
PUSHB[ ]	/* 2 values pushed */
9 30 
MIAP[0]	/* MoveIndirectAbsPt */
EIF[ ]	/* EndIf */
PUSHB[ ]	/* 1 value pushed */
0 
RCVT[ ]	/* ReadCVT */
IF[ ]	/* If */
PUSHB[ ]	/* 1 value pushed */
28 
MDAP[1]	/* MoveDirectAbsPt */
ELSE[ ]	/* Else */
PUSHB[ ]	/* 2 values pushed */
28 18 
MIAP[0]	/* MoveIndirectAbsPt */
EIF[ ]	/* EndIf */
PUSHB[ ]	/* 1 value pushed */
0 
RCVT[ ]	/* ReadCVT */
IF[ ]	/* If */
PUSHB[ ]	/* 1 value pushed */
24 
MDAP[1]	/* MoveDirectAbsPt */
ELSE[ ]	/* Else */
PUSHB[ ]	/* 2 values pushed */
24 18 
MIAP[0]	/* MoveIndirectAbsPt */
EIF[ ]	/* EndIf */
PUSHB[ ]	/* 3 values pushed */
34 28 9 
SRP1[ ]	/* SetRefPoint1 */
SRP2[ ]	/* SetRefPoint2 */
IP[ ]	/* InterpolatePts */
PUSHB[ ]	/* 3 values pushed */
42 9 28 
SRP1[ ]	/* SetRefPoint1 */
SRP2[ ]	/* SetRefPoint2 */
IP[ ]	/* InterpolatePts */
PUSHB[ ]	/* 3 values pushed */
3 34 42 
SRP1[ ]	/* SetRefPoint1 */
SRP2[ ]	/* SetRefPoint2 */
IP[ ]	/* InterpolatePts */
PUSHB[ ]	/* 3 values pushed */
16 42 34 
SRP1[ ]	/* SetRefPoint1 */
SRP2[ ]	/* SetRefPoint2 */
IP[ ]	/* InterpolatePts */
PUSHB[ ]	/* 3 values pushed */
17 9 28 
SRP1[ ]	/* SetRefPoint1 */
SRP2[ ]	/* SetRefPoint2 */
IP[ ]	/* InterpolatePts */
PUSHB[ ]	/* 3 values pushed */
19 28 9 
SRP1[ ]	/* SetRefPoint1 */
SRP2[ ]	/* SetRefPoint2 */
IP[ ]	/* InterpolatePts */
PUSHB[ ]	/* 3 values pushed */
25 28 9 
SRP1[ ]	/* SetRefPoint1 */
SRP2[ ]	/* SetRefPoint2 */
IP[ ]	/* InterpolatePts */
PUSHB[ ]	/* 3 values pushed */
22 17 25 
SRP1[ ]	/* SetRefPoint1 */
SRP2[ ]	/* SetRefPoint2 */
IP[ ]	/* InterpolatePts */
PUSHB[ ]	/* 1 value pushed */
28 
SRP0[ ]	/* SetRefPoint0 */
PUSHB[ ]	/* 2 values pushed */
31 1 
PUSHB[ ]	/* 1 value pushed */
10 
CALL[ ]	/* CallFunction */
IF[ ]	/* If */
POP[ ]	/* PopTopStack */
MDRP[11000]	/* MoveDirectRelPt */
ELSE[ ]	/* Else */
MIRP[10100]	/* MoveIndirectRelPt */
EIF[ ]	/* EndIf */
PUSHB[ ]	/* 3 values pushed */
33 31 17 
SRP1[ ]	/* SetRefPoint1 */
SRP2[ ]	/* SetRefPoint2 */
IP[ ]	/* InterpolatePts */
PUSHB[ ]	/* 1 value pushed */
9 
SRP0[ ]	/* SetRefPoint0 */
PUSHB[ ]	/* 2 values pushed */
49 1 
PUSHB[ ]	/* 1 value pushed */
10 
CALL[ ]	/* CallFunction */
IF[ ]	/* If */
POP[ ]	/* PopTopStack */
MDRP[11000]	/* MoveDirectRelPt */
ELSE[ ]	/* Else */
MIRP[10100]	/* MoveIndirectRelPt */
EIF[ ]	/* EndIf */
IUP[0]	/* InterpolateUntPts */
IUP[1]	/* InterpolateUntPts */";
};
width = 1344;
},
{
layerId = m002;
paths = (
{
closed = 1;
nodes = (
"709.333 -20 OFFCURVE",
"849.333 27 OFFCURVE",
"948 115 CURVE",
"1045 0 LINE",
"1267 0 LINE",
"1059 249 LINE",
"1141 361 OFFCURVE",
"1182 502 OFFCURVE",
"1182 672 CURVE",
"1015 672 LINE",
"1015 566 OFFCURVE",
"992.333 469.667 OFFCURVE",
"947 383 CURVE",
"623 770 LINE",
"730 849 LINE SMOOTH",
"878 958.333 OFFCURVE",
"930 1050.667 OFFCURVE",
"930 1168 CURVE SMOOTH",
"930 1345.333 OFFCURVE",
"784 1476 OFFCURVE",
"584 1476 CURVE SMOOTH",
"360 1476 OFFCURVE",
"220 1343.333 OFFCURVE",
"220 1122 CURVE SMOOTH",
"220 1027.333 OFFCURVE",
"253.667 946.333 OFFCURVE",
"383 789 CURVE",
"163 633 OFFCURVE",
"101 531 OFFCURVE",
"101 391 CURVE SMOOTH",
"101 144.333 OFFCURVE",
"288 -20 OFFCURVE",
"572 -20 CURVE SMOOTH"
);
},
{
closed = 1;
nodes = (
"394.667 131 OFFCURVE",
"286 233.667 OFFCURVE",
"286 391 CURVE SMOOTH",
"286 477.667 OFFCURVE",
"341.667 562 OFFCURVE",
"453 644 CURVE SMOOTH",
"486 668 LINE",
"841 243 LINE",
"759.667 168.333 OFFCURVE",
"670 131 OFFCURVE",
"572 131 CURVE SMOOTH"
);
},
{
closed = 1;
nodes = (
"444.333 984 OFFCURVE",
"405 1064 OFFCURVE",
"405 1128 CURVE SMOOTH",
"405 1241.333 OFFCURVE",
"473.667 1324 OFFCURVE",
"583 1324 CURVE SMOOTH",
"684.333 1324 OFFCURVE",
"759 1257.333 OFFCURVE",
"759 1168 CURVE SMOOTH",
"759 1085.333 OFFCURVE",
"731.667 1035 OFFCURVE",
"641 971 CURVE SMOOTH",
"523 888 LINE"
);
}
);
userData = {
assembly = "SVTCA[0]	/* SetFreedomAndProjectionVectorToAxis */
PUSHB[ ]	/* 1 value pushed */
0 
RCVT[ ]	/* ReadCVT */
IF[ ]	/* If */
PUSHB[ ]	/* 1 value pushed */
9 
MDAP[1]	/* MoveDirectAbsPt */
ELSE[ ]	/* Else */
PUSHB[ ]	/* 2 values pushed */
9 30 
MIAP[0]	/* MoveIndirectAbsPt */
EIF[ ]	/* EndIf */
PUSHB[ ]	/* 1 value pushed */
0 
RCVT[ ]	/* ReadCVT */
IF[ ]	/* If */
PUSHB[ ]	/* 1 value pushed */
28 
MDAP[1]	/* MoveDirectAbsPt */
ELSE[ ]	/* Else */
PUSHB[ ]	/* 2 values pushed */
28 18 
MIAP[0]	/* MoveIndirectAbsPt */
EIF[ ]	/* EndIf */
PUSHB[ ]	/* 1 value pushed */
0 
RCVT[ ]	/* ReadCVT */
IF[ ]	/* If */
PUSHB[ ]	/* 1 value pushed */
24 
MDAP[1]	/* MoveDirectAbsPt */
ELSE[ ]	/* Else */
PUSHB[ ]	/* 2 values pushed */
24 18 
MIAP[0]	/* MoveIndirectAbsPt */
EIF[ ]	/* EndIf */
PUSHB[ ]	/* 3 values pushed */
34 28 9 
SRP1[ ]	/* SetRefPoint1 */
SRP2[ ]	/* SetRefPoint2 */
IP[ ]	/* InterpolatePts */
PUSHB[ ]	/* 3 values pushed */
42 9 28 
SRP1[ ]	/* SetRefPoint1 */
SRP2[ ]	/* SetRefPoint2 */
IP[ ]	/* InterpolatePts */
PUSHB[ ]	/* 3 values pushed */
3 34 42 
SRP1[ ]	/* SetRefPoint1 */
SRP2[ ]	/* SetRefPoint2 */
IP[ ]	/* InterpolatePts */
PUSHB[ ]	/* 3 values pushed */
16 42 34 
SRP1[ ]	/* SetRefPoint1 */
SRP2[ ]	/* SetRefPoint2 */
IP[ ]	/* InterpolatePts */
PUSHB[ ]	/* 3 values pushed */
17 9 28 
SRP1[ ]	/* SetRefPoint1 */
SRP2[ ]	/* SetRefPoint2 */
IP[ ]	/* InterpolatePts */
PUSHB[ ]	/* 3 values pushed */
19 28 9 
SRP1[ ]	/* SetRefPoint1 */
SRP2[ ]	/* SetRefPoint2 */
IP[ ]	/* InterpolatePts */
PUSHB[ ]	/* 3 values pushed */
25 28 9 
SRP1[ ]	/* SetRefPoint1 */
SRP2[ ]	/* SetRefPoint2 */
IP[ ]	/* InterpolatePts */
PUSHB[ ]	/* 3 values pushed */
22 17 25 
SRP1[ ]	/* SetRefPoint1 */
SRP2[ ]	/* SetRefPoint2 */
IP[ ]	/* InterpolatePts */
PUSHB[ ]	/* 1 value pushed */
28 
SRP0[ ]	/* SetRefPoint0 */
PUSHB[ ]	/* 2 values pushed */
31 1 
PUSHB[ ]	/* 1 value pushed */
10 
CALL[ ]	/* CallFunction */
IF[ ]	/* If */
POP[ ]	/* PopTopStack */
MDRP[11000]	/* MoveDirectRelPt */
ELSE[ ]	/* Else */
MIRP[10100]	/* MoveIndirectRelPt */
EIF[ ]	/* EndIf */
PUSHB[ ]	/* 3 values pushed */
33 31 17 
SRP1[ ]	/* SetRefPoint1 */
SRP2[ ]	/* SetRefPoint2 */
IP[ ]	/* InterpolatePts */
PUSHB[ ]	/* 1 value pushed */
9 
SRP0[ ]	/* SetRefPoint0 */
PUSHB[ ]	/* 2 values pushed */
49 1 
PUSHB[ ]	/* 1 value pushed */
10 
CALL[ ]	/* CallFunction */
IF[ ]	/* If */
POP[ ]	/* PopTopStack */
MDRP[11000]	/* MoveDirectRelPt */
ELSE[ ]	/* Else */
MIRP[10100]	/* MoveIndirectRelPt */
EIF[ ]	/* EndIf */
IUP[0]	/* InterpolateUntPts */
IUP[1]	/* InterpolateUntPts */";
};
width = 1273;
},
{
layerId = m003;
paths = (
{
closed = 1;
nodes = (
"700.333 -20 OFFCURVE",
"841.333 45.333 OFFCURVE",
"972 176 CURVE",
"1129 0 LINE",
"1196 0 LINE",
"1006 216 LINE",
"1094.667 335.333 OFFCURVE",
"1139 474 OFFCURVE",
"1139 632 CURVE",
"1084 632 LINE",
"1084 489.333 OFFCURVE",
"1045.667 364.667 OFFCURVE",
"969 258 CURVE",
"494 797 LINE",
"650 921 LINE SMOOTH",
"775.333 1025 OFFCURVE",
"838 1122.333 OFFCURVE",
"838 1213 CURVE SMOOTH",
"838 1369 OFFCURVE",
"728.667 1477 OFFCURVE",
"562 1477 CURVE SMOOTH",
"380.667 1477 OFFCURVE",
"257 1355 OFFCURVE",
"257 1167 CURVE SMOOTH",
"257 1053.667 OFFCURVE",
"304.667 946 OFFCURVE",
"422 802 CURVE",
"180.333 600.667 OFFCURVE",
"115 482.667 OFFCURVE",
"115 352 CURVE SMOOTH",
"115 124 OFFCURVE",
"281 -20 OFFCURVE",
"549 -20 CURVE SMOOTH"
);
},
{
closed = 1;
nodes = (
"318.333 34 OFFCURVE",
"169 162.667 OFFCURVE",
"169 352 CURVE SMOOTH",
"169 473.333 OFFCURVE",
"244.667 587 OFFCURVE",
"402 723 CURVE",
"454 764 LINE",
"937 217 LINE",
"835.667 99.667 OFFCURVE",
"697 34 OFFCURVE",
"549 34 CURVE SMOOTH"
);
},
{
closed = 1;
nodes = (
"362 952 OFFCURVE",
"312 1063.667 OFFCURVE",
"312 1169 CURVE SMOOTH",
"312 1319.667 OFFCURVE",
"411.333 1423 OFFCURVE",
"562 1423 CURVE SMOOTH",
"691.333 1423 OFFCURVE",
"782 1335.667 OFFCURVE",
"782 1213 CURVE SMOOTH",
"782 1133.667 OFFCURVE",
"733.667 1053.667 OFFCURVE",
"637 973 CURVE SMOOTH",
"462 834 LINE"
);
}
);
userData = {
assembly = "SVTCA[0]	/* SetFreedomAndProjectionVectorToAxis */
PUSHB[ ]	/* 1 value pushed */
0 
RCVT[ ]	/* ReadCVT */
IF[ ]	/* If */
PUSHB[ ]	/* 1 value pushed */
9 
MDAP[1]	/* MoveDirectAbsPt */
ELSE[ ]	/* Else */
PUSHB[ ]	/* 2 values pushed */
9 30 
MIAP[0]	/* MoveIndirectAbsPt */
EIF[ ]	/* EndIf */
PUSHB[ ]	/* 1 value pushed */
0 
RCVT[ ]	/* ReadCVT */
IF[ ]	/* If */
PUSHB[ ]	/* 1 value pushed */
28 
MDAP[1]	/* MoveDirectAbsPt */
ELSE[ ]	/* Else */
PUSHB[ ]	/* 2 values pushed */
28 18 
MIAP[0]	/* MoveIndirectAbsPt */
EIF[ ]	/* EndIf */
PUSHB[ ]	/* 1 value pushed */
0 
RCVT[ ]	/* ReadCVT */
IF[ ]	/* If */
PUSHB[ ]	/* 1 value pushed */
24 
MDAP[1]	/* MoveDirectAbsPt */
ELSE[ ]	/* Else */
PUSHB[ ]	/* 2 values pushed */
24 18 
MIAP[0]	/* MoveIndirectAbsPt */
EIF[ ]	/* EndIf */
PUSHB[ ]	/* 3 values pushed */
34 28 9 
SRP1[ ]	/* SetRefPoint1 */
SRP2[ ]	/* SetRefPoint2 */
IP[ ]	/* InterpolatePts */
PUSHB[ ]	/* 3 values pushed */
42 9 28 
SRP1[ ]	/* SetRefPoint1 */
SRP2[ ]	/* SetRefPoint2 */
IP[ ]	/* InterpolatePts */
PUSHB[ ]	/* 3 values pushed */
3 34 42 
SRP1[ ]	/* SetRefPoint1 */
SRP2[ ]	/* SetRefPoint2 */
IP[ ]	/* InterpolatePts */
PUSHB[ ]	/* 3 values pushed */
16 42 34 
SRP1[ ]	/* SetRefPoint1 */
SRP2[ ]	/* SetRefPoint2 */
IP[ ]	/* InterpolatePts */
PUSHB[ ]	/* 3 values pushed */
17 9 28 
SRP1[ ]	/* SetRefPoint1 */
SRP2[ ]	/* SetRefPoint2 */
IP[ ]	/* InterpolatePts */
PUSHB[ ]	/* 3 values pushed */
19 28 9 
SRP1[ ]	/* SetRefPoint1 */
SRP2[ ]	/* SetRefPoint2 */
IP[ ]	/* InterpolatePts */
PUSHB[ ]	/* 3 values pushed */
25 28 9 
SRP1[ ]	/* SetRefPoint1 */
SRP2[ ]	/* SetRefPoint2 */
IP[ ]	/* InterpolatePts */
PUSHB[ ]	/* 3 values pushed */
22 17 25 
SRP1[ ]	/* SetRefPoint1 */
SRP2[ ]	/* SetRefPoint2 */
IP[ ]	/* InterpolatePts */
PUSHB[ ]	/* 1 value pushed */
28 
SRP0[ ]	/* SetRefPoint0 */
PUSHB[ ]	/* 2 values pushed */
31 1 
PUSHB[ ]	/* 1 value pushed */
10 
CALL[ ]	/* CallFunction */
IF[ ]	/* If */
POP[ ]	/* PopTopStack */
MDRP[11000]	/* MoveDirectRelPt */
ELSE[ ]	/* Else */
MIRP[10100]	/* MoveIndirectRelPt */
EIF[ ]	/* EndIf */
PUSHB[ ]	/* 3 values pushed */
33 31 17 
SRP1[ ]	/* SetRefPoint1 */
SRP2[ ]	/* SetRefPoint2 */
IP[ ]	/* InterpolatePts */
PUSHB[ ]	/* 1 value pushed */
9 
SRP0[ ]	/* SetRefPoint0 */
PUSHB[ ]	/* 2 values pushed */
49 1 
PUSHB[ ]	/* 1 value pushed */
10 
CALL[ ]	/* CallFunction */
IF[ ]	/* If */
POP[ ]	/* PopTopStack */
MDRP[11000]	/* MoveDirectRelPt */
ELSE[ ]	/* Else */
MIRP[10100]	/* MoveIndirectRelPt */
EIF[ ]	/* EndIf */
IUP[0]	/* InterpolateUntPts */
IUP[1]	/* InterpolateUntPts */";
};
width = 1247;
}
);
note = uni0026;
unicode = 0026;
},
{
glyphname = quotesingle;
lastChange = "2020-12-12 06:31:49 +0000";
layers = (
{
layerId = "A9B054E9-1A63-4AEF-9EE1-561B1DFE8422";
paths = (
{
closed = 1;
nodes = (
"226 985 LINE",
"275 1389 LINE",
"275 1536 LINE",
"63 1536 LINE",
"63 985 LINE"
);
}
);
userData = {
assembly = "SVTCA[0]	/* SetFreedomAndProjectionVectorToAxis */
PUSHB[ ]	/* 1 value pushed */
3 
MDAP[1]	/* MoveDirectAbsPt */
PUSHB[ ]	/* 3 values pushed */
2 5 3 
SRP1[ ]	/* SetRefPoint1 */
SRP2[ ]	/* SetRefPoint2 */
IP[ ]	/* InterpolatePts */
PUSHB[ ]	/* 1 value pushed */
2 
MDAP[1]	/* MoveDirectAbsPt */
IUP[0]	/* InterpolateUntPts */
IUP[1]	/* InterpolateUntPts */";
};
width = 331;
},
{
layerId = m002;
paths = (
{
closed = 1;
nodes = (
"212 1057 LINE",
"253 1425 LINE",
"253 1536 LINE",
"103 1536 LINE",
"103 1057 LINE"
);
}
);
userData = {
assembly = "SVTCA[0]	/* SetFreedomAndProjectionVectorToAxis */
PUSHB[ ]	/* 1 value pushed */
3 
MDAP[1]	/* MoveDirectAbsPt */
PUSHB[ ]	/* 3 values pushed */
2 5 3 
SRP1[ ]	/* SetRefPoint1 */
SRP2[ ]	/* SetRefPoint2 */
IP[ ]	/* InterpolatePts */
PUSHB[ ]	/* 1 value pushed */
2 
MDAP[1]	/* MoveDirectAbsPt */
IUP[0]	/* InterpolateUntPts */
IUP[1]	/* InterpolateUntPts */";
};
width = 357;
},
{
layerId = m003;
paths = (
{
closed = 1;
nodes = (
"166 1122 LINE",
"200 1367 LINE",
"200 1536 LINE",
"145 1536 LINE",
"136 1122 LINE"
);
}
);
userData = {
assembly = "SVTCA[0]	/* SetFreedomAndProjectionVectorToAxis */
PUSHB[ ]	/* 1 value pushed */
3 
MDAP[1]	/* MoveDirectAbsPt */
PUSHB[ ]	/* 3 values pushed */
2 5 3 
SRP1[ ]	/* SetRefPoint1 */
SRP2[ ]	/* SetRefPoint2 */
IP[ ]	/* InterpolatePts */
PUSHB[ ]	/* 1 value pushed */
2 
MDAP[1]	/* MoveDirectAbsPt */
IUP[0]	/* InterpolateUntPts */
IUP[1]	/* InterpolateUntPts */";
};
width = 340;
}
);
leftKerningGroup = quotedbl;
note = uni0027;
rightKerningGroup = quotedbl;
unicode = 0027;
},
{
glyphname = parenleft;
lastChange = "2020-12-11 04:50:29 +0000";
layers = (
{
layerId = "A9B054E9-1A63-4AEF-9EE1-561B1DFE8422";
paths = (
{
closed = 1;
nodes = (
"679 -302 LINE",
"585 -231 OFFCURVE",
"510 -122 OFFCURVE",
"458 20 CURVE SMOOTH",
"400 175 OFFCURVE",
"369 370 OFFCURVE",
"369 598 CURVE SMOOTH",
"369 785 OFFCURVE",
"394 954 OFFCURVE",
"440 1095 CURVE SMOOTH",
"493 1257 OFFCURVE",
"575 1383 OFFCURVE",
"679 1460 CURVE {name = \"❌\";}",
"623 1616 LINE",
"438 1533 OFFCURVE",
"266 1304 OFFCURVE",
"185 1028 CURVE SMOOTH",
"144 890 OFFCURVE",
"124 745 OFFCURVE",
"124 592 CURVE SMOOTH",
"129 246 OFFCURVE",
"213 -34 OFFCURVE",
"370 -240 CURVE SMOOTH",
"448 -343 OFFCURVE",
"532 -414 OFFCURVE",
"623 -455 CURVE"
);
}
);
userData = {
assembly = "SVTCA[0]	/* SetFreedomAndProjectionVectorToAxis */
PUSHB[ ]	/* 1 value pushed */
14 
MDAP[1]	/* MoveDirectAbsPt */
PUSHB[ ]	/* 1 value pushed */
4 
MDAP[1]	/* MoveDirectAbsPt */
IUP[0]	/* InterpolateUntPts */
IUP[1]	/* InterpolateUntPts */";
};
width = 719;
},
{
layerId = m002;
paths = (
{
closed = 1;
nodes = (
"661 -357 LINE",
"535 -254 OFFCURVE",
"448 -100 OFFCURVE",
"393 73 CURVE SMOOTH",
"341 234 OFFCURVE",
"318 411 OFFCURVE",
"318 579 CURVE SMOOTH",
"324 782 OFFCURVE",
"353 959 OFFCURVE",
"400 1106 CURVE SMOOTH",
"461 1296 OFFCURVE",
"551 1437 OFFCURVE",
"661 1521 CURVE",
"623 1643 LINE",
"471 1561 OFFCURVE",
"353 1406 OFFCURVE",
"271 1225 CURVE SMOOTH",
"180 1024 OFFCURVE",
"133 790 OFFCURVE",
"133 591 CURVE SMOOTH",
"133 275.667 OFFCURVE",
"211.667 4.667 OFFCURVE",
"369 -222 CURVE SMOOTH",
"449.667 -338 OFFCURVE",
"534.333 -420.667 OFFCURVE",
"623 -470 CURVE"
);
}
);
userData = {
assembly = "SVTCA[0]	/* SetFreedomAndProjectionVectorToAxis */
PUSHB[ ]	/* 1 value pushed */
14 
MDAP[1]	/* MoveDirectAbsPt */
PUSHB[ ]	/* 1 value pushed */
4 
MDAP[1]	/* MoveDirectAbsPt */
IUP[0]	/* InterpolateUntPts */
IUP[1]	/* InterpolateUntPts */";
};
width = 700;
},
{
layerId = m003;
paths = (
{
closed = 1;
nodes = (
"581 -427 LINE",
"414 -316 OFFCURVE",
"301 -36 OFFCURVE",
"252 162.5 CURVE SMOOTH",
"218.667 298.167 OFFCURVE",
"202 432 OFFCURVE",
"202 616 CURVE SMOOTH",
"206 876 OFFCURVE",
"280 1160.333 OFFCURVE",
"396 1363 CURVE SMOOTH",
"454 1464.333 OFFCURVE",
"515.667 1536.667 OFFCURVE",
"581 1580 CURVE",
"562 1623 LINE",
"411 1528 OFFCURVE",
"272 1290 OFFCURVE",
"201 1011 CURVE SMOOTH",
"166 872 OFFCURVE",
"148 730 OFFCURVE",
"148 586 CURVE SMOOTH",
"148 259 OFFCURVE",
"223 -27 OFFCURVE",
"350.5 -238.5 CURVE SMOOTH",
"414.167 -344.167 OFFCURVE",
"484.667 -421.333 OFFCURVE",
"562 -470 CURVE"
);
}
);
userData = {
assembly = "SVTCA[0]	/* SetFreedomAndProjectionVectorToAxis */
PUSHB[ ]	/* 1 value pushed */
14 
MDAP[1]	/* MoveDirectAbsPt */
PUSHB[ ]	/* 1 value pushed */
4 
MDAP[1]	/* MoveDirectAbsPt */
IUP[0]	/* InterpolateUntPts */
IUP[1]	/* InterpolateUntPts */";
};
width = 607;
}
);
note = uni0028;
unicode = 0028;
},
{
glyphname = parenright;
lastChange = "2020-12-09 22:10:43 +0000";
layers = (
{
layerId = "A9B054E9-1A63-4AEF-9EE1-561B1DFE8422";
paths = (
{
closed = 1;
nodes = (
"281.333 -375 OFFCURVE",
"457.333 -144.667 OFFCURVE",
"544 134 CURVE SMOOTH",
"587.333 273.333 OFFCURVE",
"609 418.333 OFFCURVE",
"609 569 CURVE SMOOTH",
"606 793 OFFCURVE",
"566 993 OFFCURVE",
"492 1163 CURVE SMOOTH",
"417 1337 OFFCURVE",
"277 1537 OFFCURVE",
"96 1616 CURVE",
"40 1463 LINE",
"131 1392 OFFCURVE",
"205 1284 OFFCURVE",
"257 1144 CURVE SMOOTH",
"317 984 OFFCURVE",
"349 781 OFFCURVE",
"349 541 CURVE SMOOTH",
"347 341 OFFCURVE",
"315 160 OFFCURVE",
"258 13 CURVE SMOOTH",
"206 -124 OFFCURVE",
"131 -233 OFFCURVE",
"40 -302 CURVE",
"96 -455 LINE"
);
}
);
userData = {
assembly = "SVTCA[0]	/* SetFreedomAndProjectionVectorToAxis */
PUSHB[ ]	/* 1 value pushed */
14 
MDAP[1]	/* MoveDirectAbsPt */
PUSHB[ ]	/* 1 value pushed */
4 
MDAP[1]	/* MoveDirectAbsPt */
IUP[0]	/* InterpolateUntPts */
IUP[1]	/* InterpolateUntPts */";
};
width = 722;
},
{
layerId = m002;
paths = (
{
closed = 1;
nodes = (
"253 -372.667 OFFCURVE",
"430.5 -119.167 OFFCURVE",
"508.5 153.5 CURVE SMOOTH",
"547.5 289.833 OFFCURVE",
"567 432.333 OFFCURVE",
"567 581 CURVE SMOOTH",
"567 894.333 OFFCURVE",
"487.833 1171 OFFCURVE",
"328.5 1399 CURVE SMOOTH",
"248.833 1513 OFFCURVE",
"165 1594.333 OFFCURVE",
"77 1643 CURVE",
"38 1530 LINE",
"168.667 1423.333 OFFCURVE",
"278.333 1224.167 OFFCURVE",
"337 983.5 CURVE SMOOTH",
"366.333 863.167 OFFCURVE",
"381 733 OFFCURVE",
"381 593 CURVE SMOOTH",
"380 360 OFFCURVE",
"346 171 OFFCURVE",
"286 12 CURVE SMOOTH",
"227 -149 OFFCURVE",
"141 -278 OFFCURVE",
"38 -357 CURVE",
"77 -470 LINE"
);
}
);
userData = {
assembly = "SVTCA[0]	/* SetFreedomAndProjectionVectorToAxis */
PUSHB[ ]	/* 1 value pushed */
14 
MDAP[1]	/* MoveDirectAbsPt */
PUSHB[ ]	/* 1 value pushed */
4 
MDAP[1]	/* MoveDirectAbsPt */
IUP[0]	/* InterpolateUntPts */
IUP[1]	/* InterpolateUntPts */";
};
width = 712;
},
{
layerId = m003;
paths = (
{
closed = 1;
nodes = (
"201.667 -372.667 OFFCURVE",
"336.167 -150.167 OFFCURVE",
"407.5 130.5 CURVE SMOOTH",
"443.167 270.833 OFFCURVE",
"461 416 OFFCURVE",
"461 566 CURVE SMOOTH",
"461 880.667 OFFCURVE",
"387.5 1164.667 OFFCURVE",
"257.5 1386 CURVE SMOOTH",
"192.5 1496.667 OFFCURVE",
"122.333 1575.667 OFFCURVE",
"47 1623 CURVE",
"28 1580 LINE",
"161.333 1492 OFFCURVE",
"288 1266.833 OFFCURVE",
"356 995.5 CURVE SMOOTH",
"390 859.833 OFFCURVE",
"407 724.667 OFFCURVE",
"407 590 CURVE SMOOTH",
"407 292.667 OFFCURVE",
"339.667 21 OFFCURVE",
"221 -195 CURVE SMOOTH",
"161.667 -303 OFFCURVE",
"97.333 -380.333 OFFCURVE",
"28 -427 CURVE",
"47 -470 LINE"
);
}
);
userData = {
assembly = "SVTCA[0]	/* SetFreedomAndProjectionVectorToAxis */
PUSHB[ ]	/* 1 value pushed */
14 
MDAP[1]	/* MoveDirectAbsPt */
PUSHB[ ]	/* 1 value pushed */
4 
MDAP[1]	/* MoveDirectAbsPt */
IUP[0]	/* InterpolateUntPts */
IUP[1]	/* InterpolateUntPts */";
};
width = 623;
}
);
note = uni0029;
unicode = 0029;
},
{
glyphname = asterisk;
lastChange = "2020-12-12 06:38:22 +0000";
layers = (
{
layerId = "A9B054E9-1A63-4AEF-9EE1-561B1DFE8422";
paths = (
{
closed = 1;
nodes = (
"805 685 LINE",
"595 951 LINE",
"915 1040 LINE",
"856 1223 LINE",
"553 1100 LINE",
"573 1456 LINE",
"377 1456 LINE",
"397 1107 LINE",
"86 1232 LINE",
"27 1051 LINE",
"341 962 LINE",
"125 690 LINE",
"284 582 LINE",
"464 864 LINE",
"646 572 LINE"
);
}
);
userData = {
assembly = "SVTCA[0]	/* SetFreedomAndProjectionVectorToAxis */
PUSHB[ ]	/* 1 value pushed */
0 
RCVT[ ]	/* ReadCVT */
IF[ ]	/* If */
PUSHB[ ]	/* 1 value pushed */
4 
MDAP[1]	/* MoveDirectAbsPt */
ELSE[ ]	/* Else */
PUSHB[ ]	/* 2 values pushed */
4 30 
MIAP[0]	/* MoveIndirectAbsPt */
EIF[ ]	/* EndIf */
PUSHB[ ]	/* 1 value pushed */
0 
MDRP[10000]	/* MoveDirectRelPt */
RTHG[ ]	/* RoundToHalfGrid */
PUSHB[ ]	/* 1 value pushed */
0 
MDAP[1]	/* MoveDirectAbsPt */
RTG[ ]	/* RoundToGrid */
PUSHB[ ]	/* 1 value pushed */
9 
MDRP[10000]	/* MoveDirectRelPt */
RTHG[ ]	/* RoundToHalfGrid */
PUSHB[ ]	/* 1 value pushed */
9 
MDAP[1]	/* MoveDirectAbsPt */
RTG[ ]	/* RoundToGrid */
IUP[0]	/* InterpolateUntPts */
IUP[1]	/* InterpolateUntPts */";
};
width = 928;
},
{
layerId = m002;
paths = (
{
closed = 1;
nodes = (
"744 703 LINE",
"546 974 LINE",
"853 1065 LINE",
"807 1217 LINE",
"510 1107 LINE",
"520 1456 LINE",
"367 1456 LINE",
"376 1112 LINE",
"74 1224 LINE",
"28 1073 LINE",
"330 983 LINE",
"129 707 LINE",
"254 616 LINE",
"434 897 LINE",
"620 609 LINE"
);
}
);
userData = {
assembly = "SVTCA[0]	/* SetFreedomAndProjectionVectorToAxis */
PUSHB[ ]	/* 1 value pushed */
0 
RCVT[ ]	/* ReadCVT */
IF[ ]	/* If */
PUSHB[ ]	/* 1 value pushed */
4 
MDAP[1]	/* MoveDirectAbsPt */
ELSE[ ]	/* Else */
PUSHB[ ]	/* 2 values pushed */
4 30 
MIAP[0]	/* MoveIndirectAbsPt */
EIF[ ]	/* EndIf */
PUSHB[ ]	/* 1 value pushed */
0 
MDRP[10000]	/* MoveDirectRelPt */
RTHG[ ]	/* RoundToHalfGrid */
PUSHB[ ]	/* 1 value pushed */
0 
MDAP[1]	/* MoveDirectAbsPt */
RTG[ ]	/* RoundToGrid */
PUSHB[ ]	/* 1 value pushed */
9 
MDRP[10000]	/* MoveDirectRelPt */
RTHG[ ]	/* RoundToHalfGrid */
PUSHB[ ]	/* 1 value pushed */
9 
MDAP[1]	/* MoveDirectAbsPt */
RTG[ ]	/* RoundToGrid */
IUP[0]	/* InterpolateUntPts */
IUP[1]	/* InterpolateUntPts */";
};
width = 882;
},
{
layerId = m003;
paths = (
{
closed = 1;
nodes = (
"432 986 LINE",
"674 664 LINE",
"721 697 LINE",
"472 1014 LINE",
"832 1151 LINE",
"812 1204 LINE",
"460 1061 LINE",
"460 1456 LINE",
"410 1456 LINE",
"410 1062 LINE",
"48 1195 LINE",
"30 1141 LINE",
"393 1017 LINE",
"159 693 LINE",
"204 661 LINE"
);
}
);
userData = {
assembly = "SVTCA[0]	/* SetFreedomAndProjectionVectorToAxis */
PUSHB[ ]	/* 1 value pushed */
0 
RCVT[ ]	/* ReadCVT */
IF[ ]	/* If */
PUSHB[ ]	/* 1 value pushed */
4 
MDAP[1]	/* MoveDirectAbsPt */
ELSE[ ]	/* Else */
PUSHB[ ]	/* 2 values pushed */
4 30 
MIAP[0]	/* MoveIndirectAbsPt */
EIF[ ]	/* EndIf */
PUSHB[ ]	/* 1 value pushed */
0 
MDRP[10000]	/* MoveDirectRelPt */
RTHG[ ]	/* RoundToHalfGrid */
PUSHB[ ]	/* 1 value pushed */
0 
MDAP[1]	/* MoveDirectAbsPt */
RTG[ ]	/* RoundToGrid */
PUSHB[ ]	/* 1 value pushed */
9 
MDRP[10000]	/* MoveDirectRelPt */
RTHG[ ]	/* RoundToHalfGrid */
PUSHB[ ]	/* 1 value pushed */
9 
MDAP[1]	/* MoveDirectAbsPt */
RTG[ ]	/* RoundToGrid */
IUP[0]	/* InterpolateUntPts */
IUP[1]	/* InterpolateUntPts */";
};
width = 856;
}
);
note = uni002A;
unicode = 002A;
},
{
glyphname = plus;
lastChange = "2020-12-06 18:37:18 +0000";
layers = (
{
layerId = "A9B054E9-1A63-4AEF-9EE1-561B1DFE8422";
paths = (
{
closed = 1;
nodes = (
"694 146 LINE",
"694 554 LINE",
"1055 554 LINE",
"1055 815 LINE",
"694 815 LINE",
"694 1206 LINE",
"419 1206 LINE",
"419 815 LINE",
"57 815 LINE",
"57 554 LINE",
"419 554 LINE",
"419 146 LINE"
);
}
);
userData = {
assembly = "SVTCA[0]	/* SetFreedomAndProjectionVectorToAxis */
PUSHB[ ]	/* 1 value pushed */
9 
MDAP[1]	/* MoveDirectAbsPt */
PUSHB[ ]	/* 1 value pushed */
0 
MDRP[10000]	/* MoveDirectRelPt */
PUSHB[ ]	/* 1 value pushed */
9 
SRP0[ ]	/* SetRefPoint0 */
PUSHB[ ]	/* 2 values pushed */
6 1 
PUSHB[ ]	/* 1 value pushed */
10 
CALL[ ]	/* CallFunction */
IF[ ]	/* If */
POP[ ]	/* PopTopStack */
MDRP[11000]	/* MoveDirectRelPt */
ELSE[ ]	/* Else */
MIRP[10100]	/* MoveIndirectRelPt */
EIF[ ]	/* EndIf */
PUSHB[ ]	/* 1 value pushed */
3 
MDRP[10000]	/* MoveDirectRelPt */
IUP[0]	/* InterpolateUntPts */
IUP[1]	/* InterpolateUntPts */";
};
width = 1118;
},
{
layerId = m002;
paths = (
{
closed = 1;
nodes = (
"670 146 LINE",
"670 606 LINE",
"1076 606 LINE",
"1076 781 LINE",
"670 781 LINE",
"670 1206 LINE",
"484 1206 LINE",
"484 781 LINE",
"78 781 LINE",
"78 606 LINE",
"484 606 LINE",
"484 146 LINE"
);
}
);
userData = {
assembly = "SVTCA[0]	/* SetFreedomAndProjectionVectorToAxis */
PUSHB[ ]	/* 1 value pushed */
9 
MDAP[1]	/* MoveDirectAbsPt */
PUSHB[ ]	/* 1 value pushed */
0 
MDRP[10000]	/* MoveDirectRelPt */
PUSHB[ ]	/* 1 value pushed */
9 
SRP0[ ]	/* SetRefPoint0 */
PUSHB[ ]	/* 2 values pushed */
6 1 
PUSHB[ ]	/* 1 value pushed */
10 
CALL[ ]	/* CallFunction */
IF[ ]	/* If */
POP[ ]	/* PopTopStack */
MDRP[11000]	/* MoveDirectRelPt */
ELSE[ ]	/* Else */
MIRP[10100]	/* MoveIndirectRelPt */
EIF[ ]	/* EndIf */
PUSHB[ ]	/* 1 value pushed */
3 
MDRP[10000]	/* MoveDirectRelPt */
IUP[0]	/* InterpolateUntPts */
IUP[1]	/* InterpolateUntPts */";
};
width = 1161;
},
{
layerId = m003;
paths = (
{
closed = 1;
nodes = (
"590 146 LINE",
"590 649 LINE",
"1071 649 LINE",
"1071 702 LINE",
"590 702 LINE",
"590 1206 LINE",
"535 1206 LINE",
"535 702 LINE",
"73 702 LINE",
"73 649 LINE",
"535 649 LINE",
"535 146 LINE"
);
}
);
userData = {
assembly = "SVTCA[0]	/* SetFreedomAndProjectionVectorToAxis */
PUSHB[ ]	/* 1 value pushed */
9 
MDAP[1]	/* MoveDirectAbsPt */
PUSHB[ ]	/* 1 value pushed */
0 
MDRP[10000]	/* MoveDirectRelPt */
PUSHB[ ]	/* 1 value pushed */
9 
SRP0[ ]	/* SetRefPoint0 */
PUSHB[ ]	/* 2 values pushed */
6 1 
PUSHB[ ]	/* 1 value pushed */
10 
CALL[ ]	/* CallFunction */
IF[ ]	/* If */
POP[ ]	/* PopTopStack */
MDRP[11000]	/* MoveDirectRelPt */
ELSE[ ]	/* Else */
MIRP[10100]	/* MoveIndirectRelPt */
EIF[ ]	/* EndIf */
PUSHB[ ]	/* 1 value pushed */
3 
MDRP[10000]	/* MoveDirectRelPt */
IUP[0]	/* InterpolateUntPts */
IUP[1]	/* InterpolateUntPts */";
};
width = 1151;
}
);
note = uni002B;
unicode = 002B;
},
{
glyphname = comma;
lastChange = "2020-12-12 06:39:10 +0000";
layers = (
{
layerId = "A9B054E9-1A63-4AEF-9EE1-561B1DFE8422";
paths = (
{
closed = 1;
nodes = (
"300.667 -266.333 OFFCURVE",
"381.667 -102 OFFCURVE",
"383 46 CURVE SMOOTH",
"383 246 LINE",
"140 246 LINE",
"140 22 LINE SMOOTH",
"138.667 -58.667 OFFCURVE",
"115.667 -139.667 OFFCURVE",
"35 -286 CURVE",
"186 -365 LINE"
);
}
);
userData = {
assembly = "SVTCA[0]	/* SetFreedomAndProjectionVectorToAxis */
PUSHB[ ]	/* 1 value pushed */
9 
MDAP[1]	/* MoveDirectAbsPt */
PUSHB[ ]	/* 2 values pushed */
4 5 
PUSHB[ ]	/* 1 value pushed */
10 
CALL[ ]	/* CallFunction */
IF[ ]	/* If */
POP[ ]	/* PopTopStack */
MDRP[11000]	/* MoveDirectRelPt */
ELSE[ ]	/* Else */
MIRP[10100]	/* MoveIndirectRelPt */
EIF[ ]	/* EndIf */
PUSHB[ ]	/* 1 value pushed */
0 
MDRP[10000]	/* MoveDirectRelPt */
PUSHB[ ]	/* 1 value pushed */
0 
MDAP[1]	/* MoveDirectAbsPt */
IUP[0]	/* InterpolateUntPts */
IUP[1]	/* InterpolateUntPts */";
};
width = 500;
},
{
layerId = m002;
paths = (
{
closed = 1;
nodes = (
"234 -208.667 OFFCURVE",
"308 -60.667 OFFCURVE",
"308 74 CURVE SMOOTH",
"308 219 LINE",
"127 219 LINE",
"127 52 LINE SMOOTH",
"124.333 -40.667 OFFCURVE",
"91.667 -130.667 OFFCURVE",
"29 -218 CURVE",
"134 -290 LINE"
);
}
);
userData = {
assembly = "SVTCA[0]	/* SetFreedomAndProjectionVectorToAxis */
PUSHB[ ]	/* 1 value pushed */
9 
MDAP[1]	/* MoveDirectAbsPt */
PUSHB[ ]	/* 2 values pushed */
4 5 
PUSHB[ ]	/* 1 value pushed */
10 
CALL[ ]	/* CallFunction */
IF[ ]	/* If */
POP[ ]	/* PopTopStack */
MDRP[11000]	/* MoveDirectRelPt */
ELSE[ ]	/* Else */
MIRP[10100]	/* MoveIndirectRelPt */
EIF[ ]	/* EndIf */
PUSHB[ ]	/* 1 value pushed */
0 
MDRP[10000]	/* MoveDirectRelPt */
PUSHB[ ]	/* 1 value pushed */
0 
MDAP[1]	/* MoveDirectAbsPt */
IUP[0]	/* InterpolateUntPts */
IUP[1]	/* InterpolateUntPts */";
};
width = 402;
},
{
layerId = m003;
paths = (
{
closed = 1;
nodes = (
"197 -182.333 OFFCURVE",
"232.333 -93 OFFCURVE",
"235 13 CURVE SMOOTH",
"235 159 LINE",
"180 159 LINE",
"180 -8 LINE",
"175.333 -82 OFFCURVE",
"146 -153.667 OFFCURVE",
"92 -223 CURVE",
"129 -255 LINE"
);
}
);
userData = {
assembly = "SVTCA[0]	/* SetFreedomAndProjectionVectorToAxis */
PUSHB[ ]	/* 1 value pushed */
9 
MDAP[1]	/* MoveDirectAbsPt */
PUSHB[ ]	/* 2 values pushed */
4 5 
PUSHB[ ]	/* 1 value pushed */
10 
CALL[ ]	/* CallFunction */
IF[ ]	/* If */
POP[ ]	/* PopTopStack */
MDRP[11000]	/* MoveDirectRelPt */
ELSE[ ]	/* Else */
MIRP[10100]	/* MoveIndirectRelPt */
EIF[ ]	/* EndIf */
PUSHB[ ]	/* 1 value pushed */
0 
MDRP[10000]	/* MoveDirectRelPt */
PUSHB[ ]	/* 1 value pushed */
0 
MDAP[1]	/* MoveDirectAbsPt */
IUP[0]	/* InterpolateUntPts */
IUP[1]	/* InterpolateUntPts */";
};
width = 383;
}
);
leftKerningGroup = comma;
note = uni002C;
rightKerningGroup = comma;
unicode = 002C;
},
{
glyphname = hyphen;
lastChange = "2020-12-06 18:37:18 +0000";
layers = (
{
layerId = "A9B054E9-1A63-4AEF-9EE1-561B1DFE8422";
paths = (
{
closed = 1;
nodes = (
"673 507 LINE",
"673 740 LINE",
"110 740 LINE",
"110 507 LINE"
);
}
);
userData = {
assembly = "SVTCA[0]	/* SetFreedomAndProjectionVectorToAxis */
PUSHB[ ]	/* 1 value pushed */
2 
MDAP[1]	/* MoveDirectAbsPt */
PUSHB[ ]	/* 2 values pushed */
1 1 
PUSHB[ ]	/* 1 value pushed */
10 
CALL[ ]	/* CallFunction */
IF[ ]	/* If */
POP[ ]	/* PopTopStack */
MDRP[11000]	/* MoveDirectRelPt */
ELSE[ ]	/* Else */
MIRP[10100]	/* MoveIndirectRelPt */
EIF[ ]	/* EndIf */
IUP[0]	/* InterpolateUntPts */
IUP[1]	/* InterpolateUntPts */";
};
width = 794;
},
{
layerId = m002;
paths = (
{
closed = 1;
nodes = (
"525 543 LINE",
"525 694 LINE",
"37 694 LINE",
"37 543 LINE"
);
}
);
userData = {
assembly = "SVTCA[0]	/* SetFreedomAndProjectionVectorToAxis */
PUSHB[ ]	/* 1 value pushed */
2 
MDAP[1]	/* MoveDirectAbsPt */
PUSHB[ ]	/* 2 values pushed */
1 1 
PUSHB[ ]	/* 1 value pushed */
10 
CALL[ ]	/* CallFunction */
IF[ ]	/* If */
POP[ ]	/* PopTopStack */
MDRP[11000]	/* MoveDirectRelPt */
ELSE[ ]	/* Else */
MIRP[10100]	/* MoveIndirectRelPt */
EIF[ ]	/* EndIf */
IUP[0]	/* InterpolateUntPts */
IUP[1]	/* InterpolateUntPts */";
};
width = 565;
},
{
layerId = m003;
paths = (
{
closed = 1;
nodes = (
"531 639 LINE",
"531 693 LINE",
"61 693 LINE",
"61 639 LINE"
);
}
);
userData = {
assembly = "SVTCA[0]	/* SetFreedomAndProjectionVectorToAxis */
PUSHB[ ]	/* 1 value pushed */
2 
MDAP[1]	/* MoveDirectAbsPt */
PUSHB[ ]	/* 2 values pushed */
1 1 
PUSHB[ ]	/* 1 value pushed */
10 
CALL[ ]	/* CallFunction */
IF[ ]	/* If */
POP[ ]	/* PopTopStack */
MDRP[11000]	/* MoveDirectRelPt */
ELSE[ ]	/* Else */
MIRP[10100]	/* MoveIndirectRelPt */
EIF[ ]	/* EndIf */
IUP[0]	/* InterpolateUntPts */
IUP[1]	/* InterpolateUntPts */";
};
width = 607;
}
);
leftKerningGroup = hyphen;
note = uni002D;
unicode = 002D;
},
{
glyphname = period;
lastChange = "2020-12-06 18:37:18 +0000";
layers = (
{
layerId = "A9B054E9-1A63-4AEF-9EE1-561B1DFE8422";
paths = (
{
closed = 1;
nodes = (
"385 -11 OFFCURVE",
"453 51.333 OFFCURVE",
"453 142 CURVE SMOOTH",
"453 234 OFFCURVE",
"383.667 297 OFFCURVE",
"289 297 CURVE SMOOTH",
"195.667 297 OFFCURVE",
"126 234 OFFCURVE",
"126 142 CURVE SMOOTH",
"126 51.333 OFFCURVE",
"194.333 -11 OFFCURVE",
"289 -11 CURVE SMOOTH"
);
}
);
userData = {
assembly = "SVTCA[0]	/* SetFreedomAndProjectionVectorToAxis */
PUSHB[ ]	/* 1 value pushed */
0 
RCVT[ ]	/* ReadCVT */
IF[ ]	/* If */
PUSHB[ ]	/* 1 value pushed */
7 
MDAP[1]	/* MoveDirectAbsPt */
ELSE[ ]	/* Else */
PUSHB[ ]	/* 2 values pushed */
7 18 
MIAP[0]	/* MoveIndirectAbsPt */
EIF[ ]	/* EndIf */
PUSHB[ ]	/* 2 values pushed */
2 5 
PUSHB[ ]	/* 1 value pushed */
10 
CALL[ ]	/* CallFunction */
IF[ ]	/* If */
POP[ ]	/* PopTopStack */
MDRP[11000]	/* MoveDirectRelPt */
ELSE[ ]	/* Else */
MIRP[10100]	/* MoveIndirectRelPt */
EIF[ ]	/* EndIf */
IUP[0]	/* InterpolateUntPts */
IUP[1]	/* InterpolateUntPts */";
};
width = 595;
},
{
layerId = m002;
paths = (
{
closed = 1;
nodes = (
"334 -11 OFFCURVE",
"374 35.667 OFFCURVE",
"374 97 CURVE SMOOTH",
"374 161 OFFCURVE",
"334 209 OFFCURVE",
"258 209 CURVE SMOOTH",
"182 209 OFFCURVE",
"144 161 OFFCURVE",
"144 97 CURVE SMOOTH",
"144 35.667 OFFCURVE",
"182 -11 OFFCURVE",
"258 -11 CURVE SMOOTH"
);
}
);
userData = {
assembly = "SVTCA[0]	/* SetFreedomAndProjectionVectorToAxis */
PUSHB[ ]	/* 1 value pushed */
0 
RCVT[ ]	/* ReadCVT */
IF[ ]	/* If */
PUSHB[ ]	/* 1 value pushed */
7 
MDAP[1]	/* MoveDirectAbsPt */
ELSE[ ]	/* Else */
PUSHB[ ]	/* 2 values pushed */
7 18 
MIAP[0]	/* MoveIndirectAbsPt */
EIF[ ]	/* EndIf */
PUSHB[ ]	/* 2 values pushed */
2 5 
PUSHB[ ]	/* 1 value pushed */
10 
CALL[ ]	/* CallFunction */
IF[ ]	/* If */
POP[ ]	/* PopTopStack */
MDRP[11000]	/* MoveDirectRelPt */
ELSE[ ]	/* Else */
MIRP[10100]	/* MoveIndirectRelPt */
EIF[ ]	/* EndIf */
IUP[0]	/* InterpolateUntPts */
IUP[1]	/* InterpolateUntPts */";
};
width = 539;
},
{
layerId = m003;
paths = (
{
closed = 1;
nodes = (
"232.667 -6 OFFCURVE",
"258 18.333 OFFCURVE",
"258 49 CURVE SMOOTH",
"258 79.667 OFFCURVE",
"232.667 105 OFFCURVE",
"202 105 CURVE SMOOTH",
"171.333 105 OFFCURVE",
"147 79.667 OFFCURVE",
"147 49 CURVE SMOOTH",
"147 18.333 OFFCURVE",
"171.333 -6 OFFCURVE",
"202 -6 CURVE SMOOTH"
);
}
);
userData = {
assembly = "SVTCA[0]	/* SetFreedomAndProjectionVectorToAxis */
PUSHB[ ]	/* 1 value pushed */
0 
RCVT[ ]	/* ReadCVT */
IF[ ]	/* If */
PUSHB[ ]	/* 1 value pushed */
7 
MDAP[1]	/* MoveDirectAbsPt */
ELSE[ ]	/* Else */
PUSHB[ ]	/* 2 values pushed */
7 18 
MIAP[0]	/* MoveIndirectAbsPt */
EIF[ ]	/* EndIf */
PUSHB[ ]	/* 2 values pushed */
2 5 
PUSHB[ ]	/* 1 value pushed */
10 
CALL[ ]	/* CallFunction */
IF[ ]	/* If */
POP[ ]	/* PopTopStack */
MDRP[11000]	/* MoveDirectRelPt */
ELSE[ ]	/* Else */
MIRP[10100]	/* MoveIndirectRelPt */
EIF[ ]	/* EndIf */
IUP[0]	/* InterpolateUntPts */
IUP[1]	/* InterpolateUntPts */";
};
width = 439;
}
);
leftKerningGroup = comma;
note = uni002E;
rightKerningGroup = comma;
unicode = 002E;
},
{
glyphname = slash;
lastChange = "2020-12-06 18:37:18 +0000";
layers = (
{
layerId = "A9B054E9-1A63-4AEF-9EE1-561B1DFE8422";
paths = (
{
closed = 1;
nodes = (
"202 -125 LINE",
"738 1456 LINE",
"523 1456 LINE",
"-13 -125 LINE"
);
}
);
userData = {
assembly = "SVTCA[0]	/* SetFreedomAndProjectionVectorToAxis */
PUSHB[ ]	/* 1 value pushed */
0 
MDAP[1]	/* MoveDirectAbsPt */
PUSHB[ ]	/* 1 value pushed */
0 
RCVT[ ]	/* ReadCVT */
IF[ ]	/* If */
PUSHB[ ]	/* 1 value pushed */
2 
MDAP[1]	/* MoveDirectAbsPt */
ELSE[ ]	/* Else */
PUSHB[ ]	/* 2 values pushed */
2 30 
MIAP[0]	/* MoveIndirectAbsPt */
EIF[ ]	/* EndIf */
IUP[0]	/* InterpolateUntPts */
IUP[1]	/* InterpolateUntPts */";
};
width = 765;
},
{
layerId = m002;
paths = (
{
closed = 1;
nodes = (
"177 -125 LINE",
"784 1456 LINE",
"626 1456 LINE",
"18 -125 LINE"
);
}
);
userData = {
assembly = "SVTCA[0]	/* SetFreedomAndProjectionVectorToAxis */
PUSHB[ ]	/* 1 value pushed */
0 
MDAP[1]	/* MoveDirectAbsPt */
PUSHB[ ]	/* 1 value pushed */
0 
RCVT[ ]	/* ReadCVT */
IF[ ]	/* If */
PUSHB[ ]	/* 1 value pushed */
2 
MDAP[1]	/* MoveDirectAbsPt */
ELSE[ ]	/* Else */
PUSHB[ ]	/* 2 values pushed */
2 30 
MIAP[0]	/* MoveIndirectAbsPt */
EIF[ ]	/* EndIf */
IUP[0]	/* InterpolateUntPts */
IUP[1]	/* InterpolateUntPts */";
};
width = 844;
},
{
layerId = m003;
paths = (
{
closed = 1;
nodes = (
"101 -125 LINE",
"709 1456 LINE",
"650 1456 LINE",
"42 -125 LINE"
);
}
);
userData = {
assembly = "SVTCA[0]	/* SetFreedomAndProjectionVectorToAxis */
PUSHB[ ]	/* 1 value pushed */
0 
MDAP[1]	/* MoveDirectAbsPt */
PUSHB[ ]	/* 1 value pushed */
0 
RCVT[ ]	/* ReadCVT */
IF[ ]	/* If */
PUSHB[ ]	/* 1 value pushed */
2 
MDAP[1]	/* MoveDirectAbsPt */
ELSE[ ]	/* Else */
PUSHB[ ]	/* 2 values pushed */
2 30 
MIAP[0]	/* MoveIndirectAbsPt */
EIF[ ]	/* EndIf */
IUP[0]	/* InterpolateUntPts */
IUP[1]	/* InterpolateUntPts */";
};
width = 782;
}
);
note = uni002F;
unicode = 002F;
},
{
glyphname = zero;
lastChange = "2020-12-06 18:37:19 +0000";
layers = (
{
layerId = "A9B054E9-1A63-4AEF-9EE1-561B1DFE8422";
paths = (
{
closed = 1;
nodes = (
"909.333 -20 OFFCURVE",
"1079 199.333 OFFCURVE",
"1079 602 CURVE SMOOTH",
"1079 870 LINE SMOOTH",
"1075 1260.667 OFFCURVE",
"903.333 1476 OFFCURVE",
"586 1476 CURVE SMOOTH",
"268.667 1476 OFFCURVE",
"95 1261.667 OFFCURVE",
"95 855 CURVE SMOOTH",
"95 587 LINE SMOOTH",
"99 196.333 OFFCURVE",
"270.667 -20 OFFCURVE",
"588 -20 CURVE SMOOTH"
);
},
{
closed = 1;
nodes = (
"445.333 213 OFFCURVE",
"384 326.667 OFFCURVE",
"384 564 CURVE SMOOTH",
"384 918 LINE SMOOTH",
"388 1140.667 OFFCURVE",
"450 1242 OFFCURVE",
"586 1242 CURVE SMOOTH",
"726 1242 OFFCURVE",
"790 1137.333 OFFCURVE",
"790 896 CURVE SMOOTH",
"790 550 LINE SMOOTH",
"787.333 322 OFFCURVE",
"729.333 213 OFFCURVE",
"588 213 CURVE SMOOTH"
);
}
);
userData = {
assembly = "SVTCA[0]	/* SetFreedomAndProjectionVectorToAxis */
PUSHB[ ]	/* 1 value pushed */
0 
RCVT[ ]	/* ReadCVT */
IF[ ]	/* If */
PUSHB[ ]	/* 1 value pushed */
10 
MDAP[1]	/* MoveDirectAbsPt */
ELSE[ ]	/* Else */
PUSHB[ ]	/* 2 values pushed */
10 30 
MIAP[0]	/* MoveIndirectAbsPt */
EIF[ ]	/* EndIf */
PUSHB[ ]	/* 1 value pushed */
0 
RCVT[ ]	/* ReadCVT */
IF[ ]	/* If */
PUSHB[ ]	/* 1 value pushed */
3 
MDAP[1]	/* MoveDirectAbsPt */
ELSE[ ]	/* Else */
PUSHB[ ]	/* 2 values pushed */
3 18 
MIAP[0]	/* MoveIndirectAbsPt */
EIF[ ]	/* EndIf */
PUSHB[ ]	/* 1 value pushed */
10 
SRP0[ ]	/* SetRefPoint0 */
PUSHB[ ]	/* 2 values pushed */
17 1 
PUSHB[ ]	/* 1 value pushed */
10 
CALL[ ]	/* CallFunction */
IF[ ]	/* If */
POP[ ]	/* PopTopStack */
MDRP[11000]	/* MoveDirectRelPt */
ELSE[ ]	/* Else */
MIRP[10100]	/* MoveIndirectRelPt */
EIF[ ]	/* EndIf */
PUSHB[ ]	/* 1 value pushed */
3 
SRP0[ ]	/* SetRefPoint0 */
PUSHB[ ]	/* 2 values pushed */
24 1 
PUSHB[ ]	/* 1 value pushed */
10 
CALL[ ]	/* CallFunction */
IF[ ]	/* If */
POP[ ]	/* PopTopStack */
MDRP[11000]	/* MoveDirectRelPt */
ELSE[ ]	/* Else */
MIRP[10100]	/* MoveIndirectRelPt */
EIF[ ]	/* EndIf */
IUP[0]	/* InterpolateUntPts */
IUP[1]	/* InterpolateUntPts */";
};
width = 1175;
},
{
layerId = m002;
paths = (
{
closed = 1;
nodes = (
"890.667 -20 OFFCURVE",
"1034 187.667 OFFCURVE",
"1034 621 CURVE SMOOTH",
"1034 861 LINE SMOOTH",
"1030 1279.667 OFFCURVE",
"887.333 1476 OFFCURVE",
"574 1476 CURVE SMOOTH",
"258 1476 OFFCURVE",
"115 1271 OFFCURVE",
"115 843 CURVE SMOOTH",
"115 596 LINE SMOOTH",
"120.333 186.667 OFFCURVE",
"265.333 -20 OFFCURVE",
"576 -20 CURVE SMOOTH"
);
},
{
closed = 1;
nodes = (
"390.667 131 OFFCURVE",
"300 277.333 OFFCURVE",
"300 592 CURVE SMOOTH",
"300 888 LINE SMOOTH",
"302.667 1184 OFFCURVE",
"384.667 1324 OFFCURVE",
"574 1324 CURVE SMOOTH",
"764.667 1324 OFFCURVE",
"849 1187.333 OFFCURVE",
"849 874 CURVE SMOOTH",
"849 571 LINE SMOOTH",
"845 267 OFFCURVE",
"758.667 131 OFFCURVE",
"576 131 CURVE SMOOTH"
);
}
);
userData = {
assembly = "SVTCA[0]	/* SetFreedomAndProjectionVectorToAxis */
PUSHB[ ]	/* 1 value pushed */
0 
RCVT[ ]	/* ReadCVT */
IF[ ]	/* If */
PUSHB[ ]	/* 1 value pushed */
10 
MDAP[1]	/* MoveDirectAbsPt */
ELSE[ ]	/* Else */
PUSHB[ ]	/* 2 values pushed */
10 30 
MIAP[0]	/* MoveIndirectAbsPt */
EIF[ ]	/* EndIf */
PUSHB[ ]	/* 1 value pushed */
0 
RCVT[ ]	/* ReadCVT */
IF[ ]	/* If */
PUSHB[ ]	/* 1 value pushed */
3 
MDAP[1]	/* MoveDirectAbsPt */
ELSE[ ]	/* Else */
PUSHB[ ]	/* 2 values pushed */
3 18 
MIAP[0]	/* MoveIndirectAbsPt */
EIF[ ]	/* EndIf */
PUSHB[ ]	/* 1 value pushed */
10 
SRP0[ ]	/* SetRefPoint0 */
PUSHB[ ]	/* 2 values pushed */
17 1 
PUSHB[ ]	/* 1 value pushed */
10 
CALL[ ]	/* CallFunction */
IF[ ]	/* If */
POP[ ]	/* PopTopStack */
MDRP[11000]	/* MoveDirectRelPt */
ELSE[ ]	/* Else */
MIRP[10100]	/* MoveIndirectRelPt */
EIF[ ]	/* EndIf */
PUSHB[ ]	/* 1 value pushed */
3 
SRP0[ ]	/* SetRefPoint0 */
PUSHB[ ]	/* 2 values pushed */
24 1 
PUSHB[ ]	/* 1 value pushed */
10 
CALL[ ]	/* CallFunction */
IF[ ]	/* If */
POP[ ]	/* PopTopStack */
MDRP[11000]	/* MoveDirectRelPt */
ELSE[ ]	/* Else */
MIRP[10100]	/* MoveIndirectRelPt */
EIF[ ]	/* EndIf */
IUP[0]	/* InterpolateUntPts */
IUP[1]	/* InterpolateUntPts */";
};
width = 1150;
},
{
layerId = m003;
paths = (
{
closed = 1;
nodes = (
"836.667 -20 OFFCURVE",
"996 203.333 OFFCURVE",
"996 594 CURVE SMOOTH",
"996 858 LINE SMOOTH",
"996 1250 OFFCURVE",
"836 1477 OFFCURVE",
"560 1477 CURVE SMOOTH",
"285.333 1477 OFFCURVE",
"125 1248.667 OFFCURVE",
"125 862 CURVE SMOOTH",
"125 598 LINE SMOOTH",
"125 206 OFFCURVE",
"288.667 -20 OFFCURVE",
"562 -20 CURVE SMOOTH"
);
},
{
closed = 1;
nodes = (
"320.667 34 OFFCURVE",
"179 244 OFFCURVE",
"179 596 CURVE SMOOTH",
"179 857 LINE SMOOTH",
"179 1215.667 OFFCURVE",
"314.667 1423 OFFCURVE",
"560 1423 CURVE SMOOTH",
"804 1423 OFFCURVE",
"942 1215.333 OFFCURVE",
"942 862 CURVE SMOOTH",
"942 601 LINE SMOOTH",
"942 242.333 OFFCURVE",
"804.667 34 OFFCURVE",
"562 34 CURVE SMOOTH"
);
}
);
userData = {
assembly = "SVTCA[0]	/* SetFreedomAndProjectionVectorToAxis */
PUSHB[ ]	/* 1 value pushed */
0 
RCVT[ ]	/* ReadCVT */
IF[ ]	/* If */
PUSHB[ ]	/* 1 value pushed */
10 
MDAP[1]	/* MoveDirectAbsPt */
ELSE[ ]	/* Else */
PUSHB[ ]	/* 2 values pushed */
10 30 
MIAP[0]	/* MoveIndirectAbsPt */
EIF[ ]	/* EndIf */
PUSHB[ ]	/* 1 value pushed */
0 
RCVT[ ]	/* ReadCVT */
IF[ ]	/* If */
PUSHB[ ]	/* 1 value pushed */
3 
MDAP[1]	/* MoveDirectAbsPt */
ELSE[ ]	/* Else */
PUSHB[ ]	/* 2 values pushed */
3 18 
MIAP[0]	/* MoveIndirectAbsPt */
EIF[ ]	/* EndIf */
PUSHB[ ]	/* 1 value pushed */
10 
SRP0[ ]	/* SetRefPoint0 */
PUSHB[ ]	/* 2 values pushed */
17 1 
PUSHB[ ]	/* 1 value pushed */
10 
CALL[ ]	/* CallFunction */
IF[ ]	/* If */
POP[ ]	/* PopTopStack */
MDRP[11000]	/* MoveDirectRelPt */
ELSE[ ]	/* Else */
MIRP[10100]	/* MoveIndirectRelPt */
EIF[ ]	/* EndIf */
PUSHB[ ]	/* 1 value pushed */
3 
SRP0[ ]	/* SetRefPoint0 */
PUSHB[ ]	/* 2 values pushed */
24 1 
PUSHB[ ]	/* 1 value pushed */
10 
CALL[ ]	/* CallFunction */
IF[ ]	/* If */
POP[ ]	/* PopTopStack */
MDRP[11000]	/* MoveDirectRelPt */
ELSE[ ]	/* Else */
MIRP[10100]	/* MoveIndirectRelPt */
EIF[ ]	/* EndIf */
IUP[0]	/* InterpolateUntPts */
IUP[1]	/* InterpolateUntPts */";
};
width = 1121;
}
);
note = uni0030;
unicode = 0030;
},
{
glyphname = one;
lastChange = "2020-12-11 04:50:29 +0000";
layers = (
{
layerId = "A9B054E9-1A63-4AEF-9EE1-561B1DFE8422";
paths = (
{
closed = 1;
nodes = (
"801 0 LINE",
"801 1458 LINE {name = \"❌\";}",
"770 1458 LINE {name = \"❌\";}",
"167 1242 LINE",
"167 1007 LINE",
"512 1114 LINE",
"512 0 LINE"
);
}
);
userData = {
assembly = "SVTCA[0]	/* SetFreedomAndProjectionVectorToAxis */
PUSHB[ ]	/* 1 value pushed */
0 
RCVT[ ]	/* ReadCVT */
IF[ ]	/* If */
PUSHB[ ]	/* 1 value pushed */
5 
MDAP[1]	/* MoveDirectAbsPt */
ELSE[ ]	/* Else */
PUSHB[ ]	/* 2 values pushed */
5 30 
MIAP[0]	/* MoveIndirectAbsPt */
EIF[ ]	/* EndIf */
PUSHB[ ]	/* 1 value pushed */
0 
RCVT[ ]	/* ReadCVT */
IF[ ]	/* If */
PUSHB[ ]	/* 1 value pushed */
0 
MDAP[1]	/* MoveDirectAbsPt */
ELSE[ ]	/* Else */
PUSHB[ ]	/* 2 values pushed */
0 18 
MIAP[0]	/* MoveIndirectAbsPt */
EIF[ ]	/* EndIf */
PUSHB[ ]	/* 3 values pushed */
4 0 5 
SRP1[ ]	/* SetRefPoint1 */
SRP2[ ]	/* SetRefPoint2 */
IP[ ]	/* InterpolatePts */
PUSHB[ ]	/* 1 value pushed */
4 
MDAP[1]	/* MoveDirectAbsPt */
PUSHB[ ]	/* 2 values pushed */
3 1 
PUSHB[ ]	/* 1 value pushed */
10 
CALL[ ]	/* CallFunction */
IF[ ]	/* If */
POP[ ]	/* PopTopStack */
MDRP[11000]	/* MoveDirectRelPt */
ELSE[ ]	/* Else */
MIRP[10100]	/* MoveIndirectRelPt */
EIF[ ]	/* EndIf */
PUSHB[ ]	/* 3 values pushed */
2 3 5 
SRP1[ ]	/* SetRefPoint1 */
SRP2[ ]	/* SetRefPoint2 */
IP[ ]	/* InterpolatePts */
IUP[0]	/* InterpolateUntPts */
IUP[1]	/* InterpolateUntPts */";
};
width = 1175;
},
{
layerId = m002;
paths = (
{
closed = 1;
nodes = (
"729 0 LINE",
"729 1463 LINE",
"700 1463 LINE",
"170 1264 LINE",
"170 1096 LINE",
"543 1233 LINE",
"543 0 LINE"
);
}
);
userData = {
assembly = "SVTCA[0]	/* SetFreedomAndProjectionVectorToAxis */
PUSHB[ ]	/* 1 value pushed */
0 
RCVT[ ]	/* ReadCVT */
IF[ ]	/* If */
PUSHB[ ]	/* 1 value pushed */
5 
MDAP[1]	/* MoveDirectAbsPt */
ELSE[ ]	/* Else */
PUSHB[ ]	/* 2 values pushed */
5 30 
MIAP[0]	/* MoveIndirectAbsPt */
EIF[ ]	/* EndIf */
PUSHB[ ]	/* 1 value pushed */
0 
RCVT[ ]	/* ReadCVT */
IF[ ]	/* If */
PUSHB[ ]	/* 1 value pushed */
0 
MDAP[1]	/* MoveDirectAbsPt */
ELSE[ ]	/* Else */
PUSHB[ ]	/* 2 values pushed */
0 18 
MIAP[0]	/* MoveIndirectAbsPt */
EIF[ ]	/* EndIf */
PUSHB[ ]	/* 3 values pushed */
4 0 5 
SRP1[ ]	/* SetRefPoint1 */
SRP2[ ]	/* SetRefPoint2 */
IP[ ]	/* InterpolatePts */
PUSHB[ ]	/* 1 value pushed */
4 
MDAP[1]	/* MoveDirectAbsPt */
PUSHB[ ]	/* 2 values pushed */
3 1 
PUSHB[ ]	/* 1 value pushed */
10 
CALL[ ]	/* CallFunction */
IF[ ]	/* If */
POP[ ]	/* PopTopStack */
MDRP[11000]	/* MoveDirectRelPt */
ELSE[ ]	/* Else */
MIRP[10100]	/* MoveIndirectRelPt */
EIF[ ]	/* EndIf */
PUSHB[ ]	/* 3 values pushed */
2 3 5 
SRP1[ ]	/* SetRefPoint1 */
SRP2[ ]	/* SetRefPoint2 */
IP[ ]	/* InterpolatePts */
IUP[0]	/* InterpolateUntPts */
IUP[1]	/* InterpolateUntPts */";
};
width = 1150;
},
{
layerId = m003;
paths = (
{
closed = 1;
nodes = (
"659 0 LINE",
"659 1460 LINE {name = \"❌\";}",
"648 1460 LINE {name = \"❌\";}",
"187 1290 LINE",
"187 1231 LINE",
"605 1388 LINE",
"605 0 LINE"
);
}
);
userData = {
assembly = "SVTCA[0]	/* SetFreedomAndProjectionVectorToAxis */
PUSHB[ ]	/* 1 value pushed */
0 
RCVT[ ]	/* ReadCVT */
IF[ ]	/* If */
PUSHB[ ]	/* 1 value pushed */
5 
MDAP[1]	/* MoveDirectAbsPt */
ELSE[ ]	/* Else */
PUSHB[ ]	/* 2 values pushed */
5 30 
MIAP[0]	/* MoveIndirectAbsPt */
EIF[ ]	/* EndIf */
PUSHB[ ]	/* 1 value pushed */
0 
RCVT[ ]	/* ReadCVT */
IF[ ]	/* If */
PUSHB[ ]	/* 1 value pushed */
0 
MDAP[1]	/* MoveDirectAbsPt */
ELSE[ ]	/* Else */
PUSHB[ ]	/* 2 values pushed */
0 18 
MIAP[0]	/* MoveIndirectAbsPt */
EIF[ ]	/* EndIf */
PUSHB[ ]	/* 3 values pushed */
4 0 5 
SRP1[ ]	/* SetRefPoint1 */
SRP2[ ]	/* SetRefPoint2 */
IP[ ]	/* InterpolatePts */
PUSHB[ ]	/* 1 value pushed */
4 
MDAP[1]	/* MoveDirectAbsPt */
PUSHB[ ]	/* 2 values pushed */
3 1 
PUSHB[ ]	/* 1 value pushed */
10 
CALL[ ]	/* CallFunction */
IF[ ]	/* If */
POP[ ]	/* PopTopStack */
MDRP[11000]	/* MoveDirectRelPt */
ELSE[ ]	/* Else */
MIRP[10100]	/* MoveIndirectRelPt */
EIF[ ]	/* EndIf */
PUSHB[ ]	/* 3 values pushed */
2 3 5 
SRP1[ ]	/* SetRefPoint1 */
SRP2[ ]	/* SetRefPoint2 */
IP[ ]	/* InterpolatePts */
IUP[0]	/* InterpolateUntPts */
IUP[1]	/* InterpolateUntPts */";
};
width = 1121;
}
);
note = uni0031;
unicode = 0031;
},
{
glyphname = two;
lastChange = "2020-12-11 04:50:29 +0000";
layers = (
{
layerId = "A9B054E9-1A63-4AEF-9EE1-561B1DFE8422";
paths = (
{
closed = 1;
nodes = (
"1097 0 LINE",
"1097 233 LINE",
"471 233 LINE",
"802 582 LINE SMOOTH",
"983.333 780.667 OFFCURVE",
"1050 919 OFFCURVE",
"1050 1063 CURVE SMOOTH",
"1050 1325.667 OFFCURVE",
"876 1476 OFFCURVE",
"576 1476 CURVE SMOOTH",
"278 1476 OFFCURVE",
"70 1272 OFFCURVE",
"70 998 CURVE",
"360 998 LINE",
"360 1144.667 OFFCURVE",
"440.333 1243 OFFCURVE",
"571 1243 CURVE SMOOTH",
"692.333 1243 OFFCURVE",
"760 1164.333 OFFCURVE",
"760 1035 CURVE SMOOTH",
"760 940.333 OFFCURVE",
"699.333 841.333 OFFCURVE",
"570 700 CURVE SMOOTH",
"99 198 LINE",
"99 0 LINE"
);
}
);
userData = {
assembly = "SVTCA[0]	/* SetFreedomAndProjectionVectorToAxis */
PUSHB[ ]	/* 1 value pushed */
0 
RCVT[ ]	/* ReadCVT */
IF[ ]	/* If */
PUSHB[ ]	/* 1 value pushed */
16 
MDAP[1]	/* MoveDirectAbsPt */
ELSE[ ]	/* Else */
PUSHB[ ]	/* 2 values pushed */
16 30 
MIAP[0]	/* MoveIndirectAbsPt */
EIF[ ]	/* EndIf */
PUSHB[ ]	/* 1 value pushed */
0 
RCVT[ ]	/* ReadCVT */
IF[ ]	/* If */
PUSHB[ ]	/* 1 value pushed */
0 
MDAP[1]	/* MoveDirectAbsPt */
ELSE[ ]	/* Else */
PUSHB[ ]	/* 2 values pushed */
0 18 
MIAP[0]	/* MoveIndirectAbsPt */
EIF[ ]	/* EndIf */
PUSHB[ ]	/* 2 values pushed */
23 1 
PUSHB[ ]	/* 1 value pushed */
10 
CALL[ ]	/* CallFunction */
IF[ ]	/* If */
POP[ ]	/* PopTopStack */
MDRP[11000]	/* MoveDirectRelPt */
ELSE[ ]	/* Else */
MIRP[10100]	/* MoveIndirectRelPt */
EIF[ ]	/* EndIf */
PUSHB[ ]	/* 1 value pushed */
2 
MDRP[10000]	/* MoveDirectRelPt */
PUSHB[ ]	/* 3 values pushed */
3 16 23 
SRP1[ ]	/* SetRefPoint1 */
SRP2[ ]	/* SetRefPoint2 */
IP[ ]	/* InterpolatePts */
PUSHB[ ]	/* 1 value pushed */
16 
SRP0[ ]	/* SetRefPoint0 */
PUSHB[ ]	/* 2 values pushed */
9 1 
PUSHB[ ]	/* 1 value pushed */
10 
CALL[ ]	/* CallFunction */
IF[ ]	/* If */
POP[ ]	/* PopTopStack */
MDRP[11000]	/* MoveDirectRelPt */
ELSE[ ]	/* Else */
MIRP[10100]	/* MoveIndirectRelPt */
EIF[ ]	/* EndIf */
PUSHB[ ]	/* 1 value pushed */
16 
SRP0[ ]	/* SetRefPoint0 */
PUSHB[ ]	/* 1 value pushed */
12 
MDRP[10000]	/* MoveDirectRelPt */
PUSHB[ ]	/* 3 values pushed */
21 23 16 
SRP1[ ]	/* SetRefPoint1 */
SRP2[ ]	/* SetRefPoint2 */
IP[ ]	/* InterpolatePts */
IUP[0]	/* InterpolateUntPts */
IUP[1]	/* InterpolateUntPts */";
};
width = 1175;
},
{
layerId = m002;
paths = (
{
closed = 1;
nodes = (
"1075 0 LINE",
"1075 151 LINE",
"344 151 LINE",
"734 574 LINE SMOOTH",
"916.667 772 OFFCURVE",
"1008 942.667 OFFCURVE",
"1008 1086 CURVE SMOOTH",
"1008 1322 OFFCURVE",
"839.667 1476 OFFCURVE",
"569 1476 CURVE SMOOTH",
"279.667 1476 OFFCURVE",
"93 1295 OFFCURVE",
"93 1027 CURVE",
"278 1027 LINE",
"278 1213.667 OFFCURVE",
"385 1324 OFFCURVE",
"569 1324 CURVE SMOOTH",
"722.333 1324 OFFCURVE",
"822 1216 OFFCURVE",
"822 1064 CURVE SMOOTH",
"822 950.667 OFFCURVE",
"774.333 862.333 OFFCURVE",
"625 693 CURVE SMOOTH",
"121 133 LINE",
"121 0 LINE"
);
}
);
userData = {
assembly = "SVTCA[0]	/* SetFreedomAndProjectionVectorToAxis */
PUSHB[ ]	/* 1 value pushed */
0 
RCVT[ ]	/* ReadCVT */
IF[ ]	/* If */
PUSHB[ ]	/* 1 value pushed */
16 
MDAP[1]	/* MoveDirectAbsPt */
ELSE[ ]	/* Else */
PUSHB[ ]	/* 2 values pushed */
16 30 
MIAP[0]	/* MoveIndirectAbsPt */
EIF[ ]	/* EndIf */
PUSHB[ ]	/* 1 value pushed */
0 
RCVT[ ]	/* ReadCVT */
IF[ ]	/* If */
PUSHB[ ]	/* 1 value pushed */
0 
MDAP[1]	/* MoveDirectAbsPt */
ELSE[ ]	/* Else */
PUSHB[ ]	/* 2 values pushed */
0 18 
MIAP[0]	/* MoveIndirectAbsPt */
EIF[ ]	/* EndIf */
PUSHB[ ]	/* 2 values pushed */
23 1 
PUSHB[ ]	/* 1 value pushed */
10 
CALL[ ]	/* CallFunction */
IF[ ]	/* If */
POP[ ]	/* PopTopStack */
MDRP[11000]	/* MoveDirectRelPt */
ELSE[ ]	/* Else */
MIRP[10100]	/* MoveIndirectRelPt */
EIF[ ]	/* EndIf */
PUSHB[ ]	/* 1 value pushed */
2 
MDRP[10000]	/* MoveDirectRelPt */
PUSHB[ ]	/* 3 values pushed */
3 16 23 
SRP1[ ]	/* SetRefPoint1 */
SRP2[ ]	/* SetRefPoint2 */
IP[ ]	/* InterpolatePts */
PUSHB[ ]	/* 1 value pushed */
16 
SRP0[ ]	/* SetRefPoint0 */
PUSHB[ ]	/* 2 values pushed */
9 1 
PUSHB[ ]	/* 1 value pushed */
10 
CALL[ ]	/* CallFunction */
IF[ ]	/* If */
POP[ ]	/* PopTopStack */
MDRP[11000]	/* MoveDirectRelPt */
ELSE[ ]	/* Else */
MIRP[10100]	/* MoveIndirectRelPt */
EIF[ ]	/* EndIf */
PUSHB[ ]	/* 1 value pushed */
16 
SRP0[ ]	/* SetRefPoint0 */
PUSHB[ ]	/* 1 value pushed */
12 
MDRP[10000]	/* MoveDirectRelPt */
PUSHB[ ]	/* 3 values pushed */
21 23 16 
SRP1[ ]	/* SetRefPoint1 */
SRP2[ ]	/* SetRefPoint2 */
IP[ ]	/* InterpolatePts */
IUP[0]	/* InterpolateUntPts */
IUP[1]	/* InterpolateUntPts */";
};
width = 1150;
},
{
layerId = m003;
paths = (
{
closed = 1;
nodes = (
"1024 0 LINE",
"1024 54 LINE",
"224 54 LINE",
"755 678 LINE",
"882.333 836 OFFCURVE",
"946 971.667 OFFCURVE",
"946 1085 CURVE SMOOTH",
"946 1331.667 OFFCURVE",
"794.667 1476 OFFCURVE",
"536 1476 CURVE SMOOTH",
"289 1476 OFFCURVE",
"117 1282 OFFCURVE",
"117 1045 CURVE",
"171 1045 LINE",
"171 1261 OFFCURVE",
"328 1422 OFFCURVE",
"536 1422 CURVE SMOOTH",
"761.333 1422 OFFCURVE",
"891 1298.333 OFFCURVE",
"891 1085 CURVE SMOOTH",
"891 961 OFFCURVE",
"812.667 817.667 OFFCURVE",
"650 627 CURVE SMOOTH",
"153 54 LINE",
"153 0 LINE"
);
}
);
userData = {
assembly = "SVTCA[0]	/* SetFreedomAndProjectionVectorToAxis */
PUSHB[ ]	/* 1 value pushed */
0 
RCVT[ ]	/* ReadCVT */
IF[ ]	/* If */
PUSHB[ ]	/* 1 value pushed */
16 
MDAP[1]	/* MoveDirectAbsPt */
ELSE[ ]	/* Else */
PUSHB[ ]	/* 2 values pushed */
16 30 
MIAP[0]	/* MoveIndirectAbsPt */
EIF[ ]	/* EndIf */
PUSHB[ ]	/* 1 value pushed */
0 
RCVT[ ]	/* ReadCVT */
IF[ ]	/* If */
PUSHB[ ]	/* 1 value pushed */
0 
MDAP[1]	/* MoveDirectAbsPt */
ELSE[ ]	/* Else */
PUSHB[ ]	/* 2 values pushed */
0 18 
MIAP[0]	/* MoveIndirectAbsPt */
EIF[ ]	/* EndIf */
PUSHB[ ]	/* 2 values pushed */
23 1 
PUSHB[ ]	/* 1 value pushed */
10 
CALL[ ]	/* CallFunction */
IF[ ]	/* If */
POP[ ]	/* PopTopStack */
MDRP[11000]	/* MoveDirectRelPt */
ELSE[ ]	/* Else */
MIRP[10100]	/* MoveIndirectRelPt */
EIF[ ]	/* EndIf */
PUSHB[ ]	/* 1 value pushed */
2 
MDRP[10000]	/* MoveDirectRelPt */
PUSHB[ ]	/* 3 values pushed */
3 16 23 
SRP1[ ]	/* SetRefPoint1 */
SRP2[ ]	/* SetRefPoint2 */
IP[ ]	/* InterpolatePts */
PUSHB[ ]	/* 1 value pushed */
16 
SRP0[ ]	/* SetRefPoint0 */
PUSHB[ ]	/* 2 values pushed */
9 1 
PUSHB[ ]	/* 1 value pushed */
10 
CALL[ ]	/* CallFunction */
IF[ ]	/* If */
POP[ ]	/* PopTopStack */
MDRP[11000]	/* MoveDirectRelPt */
ELSE[ ]	/* Else */
MIRP[10100]	/* MoveIndirectRelPt */
EIF[ ]	/* EndIf */
PUSHB[ ]	/* 1 value pushed */
16 
SRP0[ ]	/* SetRefPoint0 */
PUSHB[ ]	/* 1 value pushed */
12 
MDRP[10000]	/* MoveDirectRelPt */
PUSHB[ ]	/* 3 values pushed */
21 23 16 
SRP1[ ]	/* SetRefPoint1 */
SRP2[ ]	/* SetRefPoint2 */
IP[ ]	/* InterpolatePts */
IUP[0]	/* InterpolateUntPts */
IUP[1]	/* InterpolateUntPts */";
};
width = 1121;
}
);
note = uni0032;
unicode = 0032;
},
{
glyphname = three;
lastChange = "2020-12-11 04:50:29 +0000";
layers = (
{
layerId = "A9B054E9-1A63-4AEF-9EE1-561B1DFE8422";
paths = (
{
closed = 1;
nodes = (
"869.667 -20 OFFCURVE",
"1075 149.333 OFFCURVE",
"1075 408 CURVE SMOOTH",
"1075 568 OFFCURVE",
"995 689.333 OFFCURVE",
"831 748 CURVE",
"963 808 OFFCURVE",
"1052 927.667 OFFCURVE",
"1052 1061 CURVE SMOOTH",
"1052 1319.667 OFFCURVE",
"867 1476 OFFCURVE",
"559 1476 CURVE SMOOTH",
"304 1476 OFFCURVE",
"82 1326 OFFCURVE",
"82 1079 CURVE {name = \"❌\";}",
"371 1079 LINE {name = \"❌\";}",
"371 1176.333 OFFCURVE",
"455.333 1243 OFFCURVE",
"566 1243 CURVE SMOOTH",
"688.667 1243 OFFCURVE",
"763 1174.333 OFFCURVE",
"763 1057 CURVE SMOOTH",
"763 935.667 OFFCURVE",
"693.667 856 OFFCURVE",
"547 856 CURVE SMOOTH",
"393 856 LINE",
"393 630 LINE",
"546 630 LINE SMOOTH",
"706 630 OFFCURVE",
"786 557.333 OFFCURVE",
"786 412 CURVE SMOOTH",
"786 292 OFFCURVE",
"703.333 213 OFFCURVE",
"566 213 CURVE SMOOTH",
"446 213 OFFCURVE",
"353 289.667 OFFCURVE",
"353 399 CURVE",
"64 399 LINE",
"64 147 OFFCURVE",
"268.333 -20 OFFCURVE",
"559 -20 CURVE SMOOTH"
);
}
);
userData = {
assembly = "SVTCA[0]	/* SetFreedomAndProjectionVectorToAxis */
PUSHB[ ]	/* 1 value pushed */
0 
RCVT[ ]	/* ReadCVT */
IF[ ]	/* If */
PUSHB[ ]	/* 1 value pushed */
13 
MDAP[1]	/* MoveDirectAbsPt */
ELSE[ ]	/* Else */
PUSHB[ ]	/* 2 values pushed */
13 30 
MIAP[0]	/* MoveIndirectAbsPt */
EIF[ ]	/* EndIf */
PUSHB[ ]	/* 1 value pushed */
0 
RCVT[ ]	/* ReadCVT */
IF[ ]	/* If */
PUSHB[ ]	/* 1 value pushed */
25 
MDAP[1]	/* MoveDirectAbsPt */
ELSE[ ]	/* Else */
PUSHB[ ]	/* 2 values pushed */
25 18 
MIAP[0]	/* MoveIndirectAbsPt */
EIF[ ]	/* EndIf */
PUSHB[ ]	/* 3 values pushed */
0 13 25 
SRP1[ ]	/* SetRefPoint1 */
SRP2[ ]	/* SetRefPoint2 */
IP[ ]	/* InterpolatePts */
PUSHB[ ]	/* 1 value pushed */
0 
MDAP[1]	/* MoveDirectAbsPt */
PUSHB[ ]	/* 3 values pushed */
207 0 1 
DELTAP1[ ]	/* DeltaExceptionP1 */
PUSHB[ ]	/* 3 values pushed */
159 0 1 
DELTAP2[ ]	/* DeltaExceptionP2 */
PUSHB[ ]	/* 3 values pushed */
47 0 1 
DELTAP1[ ]	/* DeltaExceptionP1 */
PUSHB[ ]	/* 3 values pushed */
95 0 1 
DELTAP3[ ]	/* DeltaExceptionP3 */
PUSHB[ ]	/* 1 value pushed */
13 
SRP0[ ]	/* SetRefPoint0 */
PUSHB[ ]	/* 2 values pushed */
6 1 
PUSHB[ ]	/* 1 value pushed */
10 
CALL[ ]	/* CallFunction */
IF[ ]	/* If */
POP[ ]	/* PopTopStack */
MDRP[11000]	/* MoveDirectRelPt */
ELSE[ ]	/* Else */
MIRP[10100]	/* MoveIndirectRelPt */
EIF[ ]	/* EndIf */
PUSHB[ ]	/* 1 value pushed */
13 
SRP0[ ]	/* SetRefPoint0 */
PUSHB[ ]	/* 1 value pushed */
9 
MDRP[10000]	/* MoveDirectRelPt */
PUSHB[ ]	/* 1 value pushed */
0 
SRP0[ ]	/* SetRefPoint0 */
PUSHB[ ]	/* 2 values pushed */
38 1 
PUSHB[ ]	/* 1 value pushed */
10 
CALL[ ]	/* CallFunction */
IF[ ]	/* If */
POP[ ]	/* PopTopStack */
MDRP[11000]	/* MoveDirectRelPt */
ELSE[ ]	/* Else */
MIRP[10100]	/* MoveIndirectRelPt */
EIF[ ]	/* EndIf */
PUSHB[ ]	/* 3 values pushed */
19 38 0 
SRP1[ ]	/* SetRefPoint1 */
SRP2[ ]	/* SetRefPoint2 */
IP[ ]	/* InterpolatePts */
PUSHB[ ]	/* 1 value pushed */
25 
SRP0[ ]	/* SetRefPoint0 */
PUSHB[ ]	/* 1 value pushed */
28 
MDRP[10000]	/* MoveDirectRelPt */
PUSHB[ ]	/* 1 value pushed */
25 
SRP0[ ]	/* SetRefPoint0 */
PUSHB[ ]	/* 2 values pushed */
31 1 
PUSHB[ ]	/* 1 value pushed */
10 
CALL[ ]	/* CallFunction */
IF[ ]	/* If */
POP[ ]	/* PopTopStack */
MDRP[11000]	/* MoveDirectRelPt */
ELSE[ ]	/* Else */
MIRP[10100]	/* MoveIndirectRelPt */
EIF[ ]	/* EndIf */
IUP[0]	/* InterpolateUntPts */
IUP[1]	/* InterpolateUntPts */";
};
width = 1175;
},
{
layerId = m002;
paths = (
{
closed = 1;
nodes = (
"829.333 -20 OFFCURVE",
"1017 144.667 OFFCURVE",
"1017 406 CURVE SMOOTH",
"1017 575.333 OFFCURVE",
"926 696.333 OFFCURVE",
"766 747 CURVE",
"907.333 805.667 OFFCURVE",
"995 937.333 OFFCURVE",
"995 1064 CURVE SMOOTH",
"995 1322.667 OFFCURVE",
"829.667 1476 OFFCURVE",
"555 1476 CURVE SMOOTH",
"295 1476 OFFCURVE",
"107 1304.667 OFFCURVE",
"107 1074 CURVE",
"292 1074 LINE",
"292 1224.667 OFFCURVE",
"395 1324 OFFCURVE",
"555 1324 CURVE SMOOTH",
"725 1324 OFFCURVE",
"810 1238.667 OFFCURVE",
"810 1068 CURVE SMOOTH",
"810 916 OFFCURVE",
"703.667 820.667 OFFCURVE",
"529 818 CURVE SMOOTH",
"390 818 LINE",
"390 667 LINE",
"529 667 LINE SMOOTH",
"725 664.333 OFFCURVE",
"832 571.333 OFFCURVE",
"832 402 CURVE SMOOTH",
"832 227.333 OFFCURVE",
"734.667 131 OFFCURVE",
"556 131 CURVE SMOOTH",
"388 131 OFFCURVE",
"280 230.667 OFFCURVE",
"280 384 CURVE",
"94 384 LINE",
"94 141.333 OFFCURVE",
"282.667 -20 OFFCURVE",
"556 -20 CURVE SMOOTH"
);
}
);
userData = {
assembly = "SVTCA[0]	/* SetFreedomAndProjectionVectorToAxis */
PUSHB[ ]	/* 1 value pushed */
0 
RCVT[ ]	/* ReadCVT */
IF[ ]	/* If */
PUSHB[ ]	/* 1 value pushed */
13 
MDAP[1]	/* MoveDirectAbsPt */
ELSE[ ]	/* Else */
PUSHB[ ]	/* 2 values pushed */
13 30 
MIAP[0]	/* MoveIndirectAbsPt */
EIF[ ]	/* EndIf */
PUSHB[ ]	/* 1 value pushed */
0 
RCVT[ ]	/* ReadCVT */
IF[ ]	/* If */
PUSHB[ ]	/* 1 value pushed */
25 
MDAP[1]	/* MoveDirectAbsPt */
ELSE[ ]	/* Else */
PUSHB[ ]	/* 2 values pushed */
25 18 
MIAP[0]	/* MoveIndirectAbsPt */
EIF[ ]	/* EndIf */
PUSHB[ ]	/* 3 values pushed */
0 13 25 
SRP1[ ]	/* SetRefPoint1 */
SRP2[ ]	/* SetRefPoint2 */
IP[ ]	/* InterpolatePts */
PUSHB[ ]	/* 1 value pushed */
0 
MDAP[1]	/* MoveDirectAbsPt */
PUSHB[ ]	/* 3 values pushed */
207 0 1 
DELTAP1[ ]	/* DeltaExceptionP1 */
PUSHB[ ]	/* 3 values pushed */
159 0 1 
DELTAP2[ ]	/* DeltaExceptionP2 */
PUSHB[ ]	/* 3 values pushed */
47 0 1 
DELTAP1[ ]	/* DeltaExceptionP1 */
PUSHB[ ]	/* 3 values pushed */
95 0 1 
DELTAP3[ ]	/* DeltaExceptionP3 */
PUSHB[ ]	/* 1 value pushed */
13 
SRP0[ ]	/* SetRefPoint0 */
PUSHB[ ]	/* 2 values pushed */
6 1 
PUSHB[ ]	/* 1 value pushed */
10 
CALL[ ]	/* CallFunction */
IF[ ]	/* If */
POP[ ]	/* PopTopStack */
MDRP[11000]	/* MoveDirectRelPt */
ELSE[ ]	/* Else */
MIRP[10100]	/* MoveIndirectRelPt */
EIF[ ]	/* EndIf */
PUSHB[ ]	/* 1 value pushed */
13 
SRP0[ ]	/* SetRefPoint0 */
PUSHB[ ]	/* 1 value pushed */
9 
MDRP[10000]	/* MoveDirectRelPt */
PUSHB[ ]	/* 1 value pushed */
0 
SRP0[ ]	/* SetRefPoint0 */
PUSHB[ ]	/* 2 values pushed */
38 1 
PUSHB[ ]	/* 1 value pushed */
10 
CALL[ ]	/* CallFunction */
IF[ ]	/* If */
POP[ ]	/* PopTopStack */
MDRP[11000]	/* MoveDirectRelPt */
ELSE[ ]	/* Else */
MIRP[10100]	/* MoveIndirectRelPt */
EIF[ ]	/* EndIf */
PUSHB[ ]	/* 3 values pushed */
19 38 0 
SRP1[ ]	/* SetRefPoint1 */
SRP2[ ]	/* SetRefPoint2 */
IP[ ]	/* InterpolatePts */
PUSHB[ ]	/* 1 value pushed */
25 
SRP0[ ]	/* SetRefPoint0 */
PUSHB[ ]	/* 1 value pushed */
28 
MDRP[10000]	/* MoveDirectRelPt */
PUSHB[ ]	/* 1 value pushed */
25 
SRP0[ ]	/* SetRefPoint0 */
PUSHB[ ]	/* 2 values pushed */
31 1 
PUSHB[ ]	/* 1 value pushed */
10 
CALL[ ]	/* CallFunction */
IF[ ]	/* If */
POP[ ]	/* PopTopStack */
MDRP[11000]	/* MoveDirectRelPt */
ELSE[ ]	/* Else */
MIRP[10100]	/* MoveIndirectRelPt */
EIF[ ]	/* EndIf */
IUP[0]	/* InterpolateUntPts */
IUP[1]	/* InterpolateUntPts */";
};
width = 1150;
},
{
layerId = m003;
paths = (
{
closed = 1;
nodes = (
"834.333 -20 OFFCURVE",
"1007 138 OFFCURVE",
"1007 386 CURVE SMOOTH",
"1007 578 OFFCURVE",
"893.667 701 OFFCURVE",
"703 745 CURVE",
"869.667 795.667 OFFCURVE",
"975 926.333 OFFCURVE",
"975 1081 CURVE SMOOTH",
"975 1323.667 OFFCURVE",
"816 1476 OFFCURVE",
"564 1476 CURVE SMOOTH",
"186.364 1472.953 OFFCURVE",
"88.42 1100.684 OFFCURVE",
"134 1074 CURVE",
"188 1074 LINE",
"188 1282 OFFCURVE",
"345.333 1422 OFFCURVE",
"564 1422 CURVE SMOOTH",
"788 1422 OFFCURVE",
"921 1291.667 OFFCURVE",
"921 1085 CURVE SMOOTH",
"921 903.667 OFFCURVE",
"767 774 OFFCURVE",
"539 770 CURVE SMOOTH",
"417 770 LINE",
"417 714 LINE",
"531 714 LINE SMOOTH",
"807 712.667 OFFCURVE",
"953 596.667 OFFCURVE",
"953 382 CURVE SMOOTH",
"953 164.667 OFFCURVE",
"811.667 34 OFFCURVE",
"573 34 CURVE SMOOTH",
"333 34 OFFCURVE",
"157 192 OFFCURVE",
"157 405 CURVE",
"103 405 LINE",
"103 138 OFFCURVE",
"322 -20 OFFCURVE",
"573 -20 CURVE SMOOTH"
);
}
);
userData = {
assembly = "SVTCA[0]	/* SetFreedomAndProjectionVectorToAxis */
PUSHB[ ]	/* 1 value pushed */
0 
RCVT[ ]	/* ReadCVT */
IF[ ]	/* If */
PUSHB[ ]	/* 1 value pushed */
13 
MDAP[1]	/* MoveDirectAbsPt */
ELSE[ ]	/* Else */
PUSHB[ ]	/* 2 values pushed */
13 30 
MIAP[0]	/* MoveIndirectAbsPt */
EIF[ ]	/* EndIf */
PUSHB[ ]	/* 1 value pushed */
0 
RCVT[ ]	/* ReadCVT */
IF[ ]	/* If */
PUSHB[ ]	/* 1 value pushed */
25 
MDAP[1]	/* MoveDirectAbsPt */
ELSE[ ]	/* Else */
PUSHB[ ]	/* 2 values pushed */
25 18 
MIAP[0]	/* MoveIndirectAbsPt */
EIF[ ]	/* EndIf */
PUSHB[ ]	/* 3 values pushed */
0 13 25 
SRP1[ ]	/* SetRefPoint1 */
SRP2[ ]	/* SetRefPoint2 */
IP[ ]	/* InterpolatePts */
PUSHB[ ]	/* 1 value pushed */
0 
MDAP[1]	/* MoveDirectAbsPt */
PUSHB[ ]	/* 3 values pushed */
207 0 1 
DELTAP1[ ]	/* DeltaExceptionP1 */
PUSHB[ ]	/* 3 values pushed */
159 0 1 
DELTAP2[ ]	/* DeltaExceptionP2 */
PUSHB[ ]	/* 3 values pushed */
47 0 1 
DELTAP1[ ]	/* DeltaExceptionP1 */
PUSHB[ ]	/* 3 values pushed */
95 0 1 
DELTAP3[ ]	/* DeltaExceptionP3 */
PUSHB[ ]	/* 1 value pushed */
13 
SRP0[ ]	/* SetRefPoint0 */
PUSHB[ ]	/* 2 values pushed */
6 1 
PUSHB[ ]	/* 1 value pushed */
10 
CALL[ ]	/* CallFunction */
IF[ ]	/* If */
POP[ ]	/* PopTopStack */
MDRP[11000]	/* MoveDirectRelPt */
ELSE[ ]	/* Else */
MIRP[10100]	/* MoveIndirectRelPt */
EIF[ ]	/* EndIf */
PUSHB[ ]	/* 1 value pushed */
13 
SRP0[ ]	/* SetRefPoint0 */
PUSHB[ ]	/* 1 value pushed */
9 
MDRP[10000]	/* MoveDirectRelPt */
PUSHB[ ]	/* 1 value pushed */
0 
SRP0[ ]	/* SetRefPoint0 */
PUSHB[ ]	/* 2 values pushed */
38 1 
PUSHB[ ]	/* 1 value pushed */
10 
CALL[ ]	/* CallFunction */
IF[ ]	/* If */
POP[ ]	/* PopTopStack */
MDRP[11000]	/* MoveDirectRelPt */
ELSE[ ]	/* Else */
MIRP[10100]	/* MoveIndirectRelPt */
EIF[ ]	/* EndIf */
PUSHB[ ]	/* 3 values pushed */
19 38 0 
SRP1[ ]	/* SetRefPoint1 */
SRP2[ ]	/* SetRefPoint2 */
IP[ ]	/* InterpolatePts */
PUSHB[ ]	/* 1 value pushed */
25 
SRP0[ ]	/* SetRefPoint0 */
PUSHB[ ]	/* 1 value pushed */
28 
MDRP[10000]	/* MoveDirectRelPt */
PUSHB[ ]	/* 1 value pushed */
25 
SRP0[ ]	/* SetRefPoint0 */
PUSHB[ ]	/* 2 values pushed */
31 1 
PUSHB[ ]	/* 1 value pushed */
10 
CALL[ ]	/* CallFunction */
IF[ ]	/* If */
POP[ ]	/* PopTopStack */
MDRP[11000]	/* MoveDirectRelPt */
ELSE[ ]	/* Else */
MIRP[10100]	/* MoveIndirectRelPt */
EIF[ ]	/* EndIf */
IUP[0]	/* InterpolateUntPts */
IUP[1]	/* InterpolateUntPts */";
};
width = 1121;
}
);
note = uni0033;
unicode = 0033;
},
{
glyphname = four;
lastChange = "2020-12-11 02:36:53 +0000";
layers = (
{
layerId = "A9B054E9-1A63-4AEF-9EE1-561B1DFE8422";
paths = (
{
closed = 1;
nodes = (
"954 0 LINE",
"954 315 LINE",
"1119 315 LINE",
"1119 548 LINE",
"954 548 LINE",
"954 1456 LINE",
"662 1456 LINE",
"55 497 LINE",
"68 315 LINE",
"665 315 LINE",
"665 0 LINE"
);
},
{
closed = 1;
nodes = (
"665 1062 LINE",
"665 548 LINE",
"343 548 LINE"
);
}
);
userData = {
assembly = "SVTCA[0]	/* SetFreedomAndProjectionVectorToAxis */
PUSHB[ ]	/* 1 value pushed */
0 
RCVT[ ]	/* ReadCVT */
IF[ ]	/* If */
PUSHB[ ]	/* 1 value pushed */
9 
MDAP[1]	/* MoveDirectAbsPt */
ELSE[ ]	/* Else */
PUSHB[ ]	/* 2 values pushed */
9 30 
MIAP[0]	/* MoveIndirectAbsPt */
EIF[ ]	/* EndIf */
PUSHB[ ]	/* 1 value pushed */
0 
RCVT[ ]	/* ReadCVT */
IF[ ]	/* If */
PUSHB[ ]	/* 1 value pushed */
4 
MDAP[1]	/* MoveDirectAbsPt */
ELSE[ ]	/* Else */
PUSHB[ ]	/* 2 values pushed */
4 18 
MIAP[0]	/* MoveIndirectAbsPt */
EIF[ ]	/* EndIf */
PUSHB[ ]	/* 3 values pushed */
1 9 4 
SRP1[ ]	/* SetRefPoint1 */
SRP2[ ]	/* SetRefPoint2 */
IP[ ]	/* InterpolatePts */
PUSHB[ ]	/* 1 value pushed */
1 
MDAP[1]	/* MoveDirectAbsPt */
PUSHB[ ]	/* 2 values pushed */
2 1 
PUSHB[ ]	/* 1 value pushed */
10 
CALL[ ]	/* CallFunction */
IF[ ]	/* If */
POP[ ]	/* PopTopStack */
MDRP[11000]	/* MoveDirectRelPt */
ELSE[ ]	/* Else */
MIRP[10100]	/* MoveIndirectRelPt */
EIF[ ]	/* EndIf */
PUSHB[ ]	/* 1 value pushed */
6 
MDRP[10000]	/* MoveDirectRelPt */
PUSHB[ ]	/* 1 value pushed */
1 
SRP0[ ]	/* SetRefPoint0 */
PUSHB[ ]	/* 1 value pushed */
11 
MDRP[10000]	/* MoveDirectRelPt */
PUSHB[ ]	/* 3 values pushed */
8 6 11 
SRP1[ ]	/* SetRefPoint1 */
SRP2[ ]	/* SetRefPoint2 */
IP[ ]	/* InterpolatePts */
PUSHB[ ]	/* 3 values pushed */
13 9 4 
SRP1[ ]	/* SetRefPoint1 */
SRP2[ ]	/* SetRefPoint2 */
IP[ ]	/* InterpolatePts */
IUP[0]	/* InterpolateUntPts */
IUP[1]	/* InterpolateUntPts */";
};
width = 1175;
},
{
layerId = m002;
paths = (
{
closed = 1;
nodes = (
"902 0 LINE",
"902 338 LINE",
"1104 338 LINE",
"1104 489 LINE",
"902 489 LINE",
"902 1456 LINE",
"705 1456 LINE",
"53 447 LINE",
"53 338 LINE",
"716 338 LINE",
"716 0 LINE"
);
},
{
closed = 1;
nodes = (
"716 1203 LINE",
"716 489 LINE",
"263 489 LINE"
);
}
);
userData = {
assembly = "SVTCA[0]	/* SetFreedomAndProjectionVectorToAxis */
PUSHB[ ]	/* 1 value pushed */
0 
RCVT[ ]	/* ReadCVT */
IF[ ]	/* If */
PUSHB[ ]	/* 1 value pushed */
9 
MDAP[1]	/* MoveDirectAbsPt */
ELSE[ ]	/* Else */
PUSHB[ ]	/* 2 values pushed */
9 30 
MIAP[0]	/* MoveIndirectAbsPt */
EIF[ ]	/* EndIf */
PUSHB[ ]	/* 1 value pushed */
0 
RCVT[ ]	/* ReadCVT */
IF[ ]	/* If */
PUSHB[ ]	/* 1 value pushed */
4 
MDAP[1]	/* MoveDirectAbsPt */
ELSE[ ]	/* Else */
PUSHB[ ]	/* 2 values pushed */
4 18 
MIAP[0]	/* MoveIndirectAbsPt */
EIF[ ]	/* EndIf */
PUSHB[ ]	/* 3 values pushed */
1 9 4 
SRP1[ ]	/* SetRefPoint1 */
SRP2[ ]	/* SetRefPoint2 */
IP[ ]	/* InterpolatePts */
PUSHB[ ]	/* 1 value pushed */
1 
MDAP[1]	/* MoveDirectAbsPt */
PUSHB[ ]	/* 2 values pushed */
2 1 
PUSHB[ ]	/* 1 value pushed */
10 
CALL[ ]	/* CallFunction */
IF[ ]	/* If */
POP[ ]	/* PopTopStack */
MDRP[11000]	/* MoveDirectRelPt */
ELSE[ ]	/* Else */
MIRP[10100]	/* MoveIndirectRelPt */
EIF[ ]	/* EndIf */
PUSHB[ ]	/* 1 value pushed */
6 
MDRP[10000]	/* MoveDirectRelPt */
PUSHB[ ]	/* 1 value pushed */
1 
SRP0[ ]	/* SetRefPoint0 */
PUSHB[ ]	/* 1 value pushed */
11 
MDRP[10000]	/* MoveDirectRelPt */
PUSHB[ ]	/* 3 values pushed */
8 6 11 
SRP1[ ]	/* SetRefPoint1 */
SRP2[ ]	/* SetRefPoint2 */
IP[ ]	/* InterpolatePts */
PUSHB[ ]	/* 3 values pushed */
13 9 4 
SRP1[ ]	/* SetRefPoint1 */
SRP2[ ]	/* SetRefPoint2 */
IP[ ]	/* InterpolatePts */
IUP[0]	/* InterpolateUntPts */
IUP[1]	/* InterpolateUntPts */";
};
width = 1150;
},
{
layerId = m003;
paths = (
{
closed = 1;
nodes = (
"842 0 LINE",
"842 397 LINE",
"1094 397 LINE",
"1094 451 LINE",
"842 451 LINE",
"842 1456 LINE",
"777 1456 LINE",
"82 427 LINE",
"82 397 LINE",
"788 397 LINE",
"788 0 LINE"
);
},
{
closed = 1;
nodes = (
"788 1391 LINE",
"788 451 LINE",
"166 451 LINE"
);
}
);
userData = {
assembly = "SVTCA[0]	/* SetFreedomAndProjectionVectorToAxis */
PUSHB[ ]	/* 1 value pushed */
0 
RCVT[ ]	/* ReadCVT */
IF[ ]	/* If */
PUSHB[ ]	/* 1 value pushed */
9 
MDAP[1]	/* MoveDirectAbsPt */
ELSE[ ]	/* Else */
PUSHB[ ]	/* 2 values pushed */
9 30 
MIAP[0]	/* MoveIndirectAbsPt */
EIF[ ]	/* EndIf */
PUSHB[ ]	/* 1 value pushed */
0 
RCVT[ ]	/* ReadCVT */
IF[ ]	/* If */
PUSHB[ ]	/* 1 value pushed */
4 
MDAP[1]	/* MoveDirectAbsPt */
ELSE[ ]	/* Else */
PUSHB[ ]	/* 2 values pushed */
4 18 
MIAP[0]	/* MoveIndirectAbsPt */
EIF[ ]	/* EndIf */
PUSHB[ ]	/* 3 values pushed */
1 9 4 
SRP1[ ]	/* SetRefPoint1 */
SRP2[ ]	/* SetRefPoint2 */
IP[ ]	/* InterpolatePts */
PUSHB[ ]	/* 1 value pushed */
1 
MDAP[1]	/* MoveDirectAbsPt */
PUSHB[ ]	/* 2 values pushed */
2 1 
PUSHB[ ]	/* 1 value pushed */
10 
CALL[ ]	/* CallFunction */
IF[ ]	/* If */
POP[ ]	/* PopTopStack */
MDRP[11000]	/* MoveDirectRelPt */
ELSE[ ]	/* Else */
MIRP[10100]	/* MoveIndirectRelPt */
EIF[ ]	/* EndIf */
PUSHB[ ]	/* 1 value pushed */
6 
MDRP[10000]	/* MoveDirectRelPt */
PUSHB[ ]	/* 1 value pushed */
1 
SRP0[ ]	/* SetRefPoint0 */
PUSHB[ ]	/* 1 value pushed */
11 
MDRP[10000]	/* MoveDirectRelPt */
PUSHB[ ]	/* 3 values pushed */
8 6 11 
SRP1[ ]	/* SetRefPoint1 */
SRP2[ ]	/* SetRefPoint2 */
IP[ ]	/* InterpolatePts */
PUSHB[ ]	/* 3 values pushed */
13 9 4 
SRP1[ ]	/* SetRefPoint1 */
SRP2[ ]	/* SetRefPoint2 */
IP[ ]	/* InterpolatePts */
IUP[0]	/* InterpolateUntPts */
IUP[1]	/* InterpolateUntPts */";
};
width = 1121;
}
);
note = uni0034;
unicode = 0034;
},
{
glyphname = five;
lastChange = "2020-12-09 01:01:34 +0000";
layers = (
{
layerId = "A9B054E9-1A63-4AEF-9EE1-561B1DFE8422";
paths = (
{
closed = 1;
nodes = (
"913 -20 OFFCURVE",
"1090 191 OFFCURVE",
"1090 467 CURVE SMOOTH",
"1090 776.333 OFFCURVE",
"923.333 957 OFFCURVE",
"646 957 CURVE SMOOTH",
"568.667 957 OFFCURVE",
"495.667 938.667 OFFCURVE",
"427 902 CURVE",
"463 1215 LINE",
"1042 1215 LINE",
"1042 1456 LINE",
"226 1456 LINE",
"142 716 LINE",
"372 659 LINE",
"441 723 OFFCURVE",
"498.333 739 OFFCURVE",
"567 739 CURVE SMOOTH",
"716.333 739 OFFCURVE",
"801 648.333 OFFCURVE",
"801 483 CURVE SMOOTH",
"801 311 OFFCURVE",
"727.667 213 OFFCURVE",
"597 213 CURVE SMOOTH",
"479.667 213 OFFCURVE",
"403 283.667 OFFCURVE",
"391 405 CURVE",
"105 405 LINE",
"116.184 29.12 OFFCURVE",
"500 -20 OFFCURVE",
"598 -20 CURVE SMOOTH"
);
}
);
userData = {
assembly = "SVTCA[0]	/* SetFreedomAndProjectionVectorToAxis */
PUSHB[ ]	/* 1 value pushed */
0 
RCVT[ ]	/* ReadCVT */
IF[ ]	/* If */
PUSHB[ ]	/* 1 value pushed */
1 
MDAP[1]	/* MoveDirectAbsPt */
ELSE[ ]	/* Else */
PUSHB[ ]	/* 2 values pushed */
1 30 
MIAP[0]	/* MoveIndirectAbsPt */
EIF[ ]	/* EndIf */
PUSHB[ ]	/* 1 value pushed */
0 
RCVT[ ]	/* ReadCVT */
IF[ ]	/* If */
PUSHB[ ]	/* 1 value pushed */
13 
MDAP[1]	/* MoveDirectAbsPt */
ELSE[ ]	/* Else */
PUSHB[ ]	/* 2 values pushed */
13 18 
MIAP[0]	/* MoveIndirectAbsPt */
EIF[ ]	/* EndIf */
PUSHB[ ]	/* 1 value pushed */
1 
SRP0[ ]	/* SetRefPoint0 */
PUSHB[ ]	/* 2 values pushed */
4 1 
PUSHB[ ]	/* 1 value pushed */
10 
CALL[ ]	/* CallFunction */
IF[ ]	/* If */
POP[ ]	/* PopTopStack */
MDRP[11000]	/* MoveDirectRelPt */
ELSE[ ]	/* Else */
MIRP[10100]	/* MoveIndirectRelPt */
EIF[ ]	/* EndIf */
PUSHB[ ]	/* 3 values pushed */
7 13 1 
SRP1[ ]	/* SetRefPoint1 */
SRP2[ ]	/* SetRefPoint2 */
IP[ ]	/* InterpolatePts */
PUSHB[ ]	/* 1 value pushed */
7 
MDAP[1]	/* MoveDirectAbsPt */
PUSHB[ ]	/* 2 values pushed */
26 1 
PUSHB[ ]	/* 1 value pushed */
10 
CALL[ ]	/* CallFunction */
IF[ ]	/* If */
POP[ ]	/* PopTopStack */
MDRP[11000]	/* MoveDirectRelPt */
ELSE[ ]	/* Else */
MIRP[10100]	/* MoveIndirectRelPt */
EIF[ ]	/* EndIf */
PUSHB[ ]	/* 3 values pushed */
5 7 26 
SRP1[ ]	/* SetRefPoint1 */
SRP2[ ]	/* SetRefPoint2 */
IP[ ]	/* InterpolatePts */
PUSHB[ ]	/* 1 value pushed */
13 
SRP0[ ]	/* SetRefPoint0 */
PUSHB[ ]	/* 1 value pushed */
17 
MDRP[10000]	/* MoveDirectRelPt */
PUSHB[ ]	/* 1 value pushed */
13 
SRP0[ ]	/* SetRefPoint0 */
PUSHB[ ]	/* 2 values pushed */
20 1 
PUSHB[ ]	/* 1 value pushed */
10 
CALL[ ]	/* CallFunction */
IF[ ]	/* If */
POP[ ]	/* PopTopStack */
MDRP[11000]	/* MoveDirectRelPt */
ELSE[ ]	/* Else */
MIRP[10100]	/* MoveIndirectRelPt */
EIF[ ]	/* EndIf */
PUSHB[ ]	/* 1 value pushed */
7 
SRP0[ ]	/* SetRefPoint0 */
PUSHB[ ]	/* 1 value pushed */
29 
MDRP[10000]	/* MoveDirectRelPt */
IUP[0]	/* InterpolateUntPts */
IUP[1]	/* InterpolateUntPts */";
};
width = 1175;
},
{
layerId = m002;
paths = (
{
closed = 1;
nodes = (
"898.667 -20 OFFCURVE",
"1069 164 OFFCURVE",
"1069 464 CURVE SMOOTH",
"1069 762.667 OFFCURVE",
"901.333 951 OFFCURVE",
"636 951 CURVE SMOOTH",
"545.333 951 OFFCURVE",
"464.333 930 OFFCURVE",
"393 888 CURVE",
"437 1285 LINE",
"1026 1285 LINE",
"1026 1456 LINE",
"280 1456 LINE",
"206 730 LINE",
"354 692 LINE",
"449 767.333 OFFCURVE",
"512.333 785 OFFCURVE",
"593 785 CURVE SMOOTH",
"769 785 OFFCURVE",
"884 656.667 OFFCURVE",
"884 462 CURVE SMOOTH",
"884 255.333 OFFCURVE",
"780 131 OFFCURVE",
"608 131 CURVE SMOOTH",
"450.667 131 OFFCURVE",
"351.667 216.333 OFFCURVE",
"329 383 CURVE",
"154 383 LINE",
"176.667 131 OFFCURVE",
"350.667 -20 OFFCURVE",
"608 -20 CURVE SMOOTH"
);
}
);
userData = {
assembly = "SVTCA[0]	/* SetFreedomAndProjectionVectorToAxis */
PUSHB[ ]	/* 1 value pushed */
0 
RCVT[ ]	/* ReadCVT */
IF[ ]	/* If */
PUSHB[ ]	/* 1 value pushed */
1 
MDAP[1]	/* MoveDirectAbsPt */
ELSE[ ]	/* Else */
PUSHB[ ]	/* 2 values pushed */
1 30 
MIAP[0]	/* MoveIndirectAbsPt */
EIF[ ]	/* EndIf */
PUSHB[ ]	/* 1 value pushed */
0 
RCVT[ ]	/* ReadCVT */
IF[ ]	/* If */
PUSHB[ ]	/* 1 value pushed */
13 
MDAP[1]	/* MoveDirectAbsPt */
ELSE[ ]	/* Else */
PUSHB[ ]	/* 2 values pushed */
13 18 
MIAP[0]	/* MoveIndirectAbsPt */
EIF[ ]	/* EndIf */
PUSHB[ ]	/* 1 value pushed */
1 
SRP0[ ]	/* SetRefPoint0 */
PUSHB[ ]	/* 2 values pushed */
4 1 
PUSHB[ ]	/* 1 value pushed */
10 
CALL[ ]	/* CallFunction */
IF[ ]	/* If */
POP[ ]	/* PopTopStack */
MDRP[11000]	/* MoveDirectRelPt */
ELSE[ ]	/* Else */
MIRP[10100]	/* MoveIndirectRelPt */
EIF[ ]	/* EndIf */
PUSHB[ ]	/* 3 values pushed */
7 13 1 
SRP1[ ]	/* SetRefPoint1 */
SRP2[ ]	/* SetRefPoint2 */
IP[ ]	/* InterpolatePts */
PUSHB[ ]	/* 1 value pushed */
7 
MDAP[1]	/* MoveDirectAbsPt */
PUSHB[ ]	/* 2 values pushed */
26 1 
PUSHB[ ]	/* 1 value pushed */
10 
CALL[ ]	/* CallFunction */
IF[ ]	/* If */
POP[ ]	/* PopTopStack */
MDRP[11000]	/* MoveDirectRelPt */
ELSE[ ]	/* Else */
MIRP[10100]	/* MoveIndirectRelPt */
EIF[ ]	/* EndIf */
PUSHB[ ]	/* 3 values pushed */
5 7 26 
SRP1[ ]	/* SetRefPoint1 */
SRP2[ ]	/* SetRefPoint2 */
IP[ ]	/* InterpolatePts */
PUSHB[ ]	/* 1 value pushed */
13 
SRP0[ ]	/* SetRefPoint0 */
PUSHB[ ]	/* 1 value pushed */
17 
MDRP[10000]	/* MoveDirectRelPt */
PUSHB[ ]	/* 1 value pushed */
13 
SRP0[ ]	/* SetRefPoint0 */
PUSHB[ ]	/* 2 values pushed */
20 1 
PUSHB[ ]	/* 1 value pushed */
10 
CALL[ ]	/* CallFunction */
IF[ ]	/* If */
POP[ ]	/* PopTopStack */
MDRP[11000]	/* MoveDirectRelPt */
ELSE[ ]	/* Else */
MIRP[10100]	/* MoveIndirectRelPt */
EIF[ ]	/* EndIf */
PUSHB[ ]	/* 1 value pushed */
7 
SRP0[ ]	/* SetRefPoint0 */
PUSHB[ ]	/* 1 value pushed */
29 
MDRP[10000]	/* MoveDirectRelPt */
IUP[0]	/* InterpolateUntPts */
IUP[1]	/* InterpolateUntPts */";
};
width = 1150;
},
{
layerId = m003;
paths = (
{
closed = 1;
nodes = (
"878 -20 OFFCURVE",
"1024 148 OFFCURVE",
"1024 464 CURVE SMOOTH",
"1024 736 OFFCURVE",
"855.333 916 OFFCURVE",
"594 916 CURVE SMOOTH",
"484.667 916 OFFCURVE",
"358.333 876.333 OFFCURVE",
"289 819 CURVE",
"348 1403 LINE",
"1009 1403 LINE",
"1009 1456 LINE",
"299 1456 LINE",
"231 762 LINE",
"272 746 LINE",
"354.667 826 OFFCURVE",
"455 862 OFFCURVE",
"595 862 CURVE SMOOTH",
"823 862 OFFCURVE",
"969 704.667 OFFCURVE",
"969 462 CURVE SMOOTH",
"969 180.667 OFFCURVE",
"854 34 OFFCURVE",
"614 34 CURVE SMOOTH",
"388.667 34 OFFCURVE",
"258.333 155 OFFCURVE",
"237 383 CURVE",
"182 383 LINE",
"202 131 OFFCURVE",
"364.667 -20 OFFCURVE",
"614 -20 CURVE SMOOTH"
);
}
);
userData = {
assembly = "SVTCA[0]	/* SetFreedomAndProjectionVectorToAxis */
PUSHB[ ]	/* 1 value pushed */
0 
RCVT[ ]	/* ReadCVT */
IF[ ]	/* If */
PUSHB[ ]	/* 1 value pushed */
1 
MDAP[1]	/* MoveDirectAbsPt */
ELSE[ ]	/* Else */
PUSHB[ ]	/* 2 values pushed */
1 30 
MIAP[0]	/* MoveIndirectAbsPt */
EIF[ ]	/* EndIf */
PUSHB[ ]	/* 1 value pushed */
0 
RCVT[ ]	/* ReadCVT */
IF[ ]	/* If */
PUSHB[ ]	/* 1 value pushed */
13 
MDAP[1]	/* MoveDirectAbsPt */
ELSE[ ]	/* Else */
PUSHB[ ]	/* 2 values pushed */
13 18 
MIAP[0]	/* MoveIndirectAbsPt */
EIF[ ]	/* EndIf */
PUSHB[ ]	/* 1 value pushed */
1 
SRP0[ ]	/* SetRefPoint0 */
PUSHB[ ]	/* 2 values pushed */
4 1 
PUSHB[ ]	/* 1 value pushed */
10 
CALL[ ]	/* CallFunction */
IF[ ]	/* If */
POP[ ]	/* PopTopStack */
MDRP[11000]	/* MoveDirectRelPt */
ELSE[ ]	/* Else */
MIRP[10100]	/* MoveIndirectRelPt */
EIF[ ]	/* EndIf */
PUSHB[ ]	/* 3 values pushed */
7 13 1 
SRP1[ ]	/* SetRefPoint1 */
SRP2[ ]	/* SetRefPoint2 */
IP[ ]	/* InterpolatePts */
PUSHB[ ]	/* 1 value pushed */
7 
MDAP[1]	/* MoveDirectAbsPt */
PUSHB[ ]	/* 2 values pushed */
26 1 
PUSHB[ ]	/* 1 value pushed */
10 
CALL[ ]	/* CallFunction */
IF[ ]	/* If */
POP[ ]	/* PopTopStack */
MDRP[11000]	/* MoveDirectRelPt */
ELSE[ ]	/* Else */
MIRP[10100]	/* MoveIndirectRelPt */
EIF[ ]	/* EndIf */
PUSHB[ ]	/* 3 values pushed */
5 7 26 
SRP1[ ]	/* SetRefPoint1 */
SRP2[ ]	/* SetRefPoint2 */
IP[ ]	/* InterpolatePts */
PUSHB[ ]	/* 1 value pushed */
13 
SRP0[ ]	/* SetRefPoint0 */
PUSHB[ ]	/* 1 value pushed */
17 
MDRP[10000]	/* MoveDirectRelPt */
PUSHB[ ]	/* 1 value pushed */
13 
SRP0[ ]	/* SetRefPoint0 */
PUSHB[ ]	/* 2 values pushed */
20 1 
PUSHB[ ]	/* 1 value pushed */
10 
CALL[ ]	/* CallFunction */
IF[ ]	/* If */
POP[ ]	/* PopTopStack */
MDRP[11000]	/* MoveDirectRelPt */
ELSE[ ]	/* Else */
MIRP[10100]	/* MoveIndirectRelPt */
EIF[ ]	/* EndIf */
PUSHB[ ]	/* 1 value pushed */
7 
SRP0[ ]	/* SetRefPoint0 */
PUSHB[ ]	/* 1 value pushed */
29 
MDRP[10000]	/* MoveDirectRelPt */
IUP[0]	/* InterpolateUntPts */
IUP[1]	/* InterpolateUntPts */";
};
width = 1121;
}
);
note = uni0035;
unicode = 0035;
},
{
glyphname = six;
lastChange = "2020-12-09 01:06:40 +0000";
layers = (
{
layerId = "A9B054E9-1A63-4AEF-9EE1-561B1DFE8422";
paths = (
{
closed = 1;
nodes = (
"1038.486 -18.026 OFFCURVE",
"1103 410 OFFCURVE",
"1103 480 CURVE SMOOTH",
"1103 776 OFFCURVE",
"942.333 974 OFFCURVE",
"689 974 CURVE SMOOTH",
"571 974 OFFCURVE",
"473.333 934.667 OFFCURVE",
"396 856 CURVE",
"428 1090.667 OFFCURVE",
"593.667 1229 OFFCURVE",
"855 1233 CURVE SMOOTH",
"883 1233 LINE",
"883 1471 LINE",
"378 1469 OFFCURVE",
"100 1144 OFFCURVE",
"100 671 CURVE SMOOTH",
"100 567 LINE SMOOTH",
"100 211 OFFCURVE",
"306.333 -20 OFFCURVE",
"613 -20 CURVE SMOOTH"
);
},
{
closed = 1;
nodes = (
"469.667 213 OFFCURVE",
"390 327.667 OFFCURVE",
"390 521 CURVE SMOOTH",
"390 609 LINE",
"426 689 OFFCURVE",
"507.667 742 OFFCURVE",
"601 742 CURVE SMOOTH",
"731.667 742 OFFCURVE",
"815 635.667 OFFCURVE",
"815 477 CURVE SMOOTH",
"815 321 OFFCURVE",
"731 213 OFFCURVE",
"607 213 CURVE SMOOTH"
);
}
);
userData = {
assembly = "SVTCA[0]	/* SetFreedomAndProjectionVectorToAxis */
PUSHB[ ]	/* 1 value pushed */
0 
RCVT[ ]	/* ReadCVT */
IF[ ]	/* If */
PUSHB[ ]	/* 1 value pushed */
0 
MDAP[1]	/* MoveDirectAbsPt */
ELSE[ ]	/* Else */
PUSHB[ ]	/* 2 values pushed */
0 30 
MIAP[0]	/* MoveIndirectAbsPt */
EIF[ ]	/* EndIf */
PUSHB[ ]	/* 1 value pushed */
0 
RCVT[ ]	/* ReadCVT */
IF[ ]	/* If */
PUSHB[ ]	/* 1 value pushed */
13 
MDAP[1]	/* MoveDirectAbsPt */
ELSE[ ]	/* Else */
PUSHB[ ]	/* 2 values pushed */
13 18 
MIAP[0]	/* MoveIndirectAbsPt */
EIF[ ]	/* EndIf */
PUSHB[ ]	/* 1 value pushed */
0 
SRP0[ ]	/* SetRefPoint0 */
PUSHB[ ]	/* 2 values pushed */
1 1 
PUSHB[ ]	/* 1 value pushed */
10 
CALL[ ]	/* CallFunction */
IF[ ]	/* If */
POP[ ]	/* PopTopStack */
MDRP[11000]	/* MoveDirectRelPt */
ELSE[ ]	/* Else */
MIRP[10100]	/* MoveIndirectRelPt */
EIF[ ]	/* EndIf */
PUSHB[ ]	/* 3 values pushed */
7 13 0 
SRP1[ ]	/* SetRefPoint1 */
SRP2[ ]	/* SetRefPoint2 */
IP[ ]	/* InterpolatePts */
PUSHB[ ]	/* 1 value pushed */
7 
MDAP[1]	/* MoveDirectAbsPt */
PUSHB[ ]	/* 2 values pushed */
21 1 
PUSHB[ ]	/* 1 value pushed */
10 
CALL[ ]	/* CallFunction */
IF[ ]	/* If */
POP[ ]	/* PopTopStack */
MDRP[11000]	/* MoveDirectRelPt */
ELSE[ ]	/* Else */
MIRP[10100]	/* MoveIndirectRelPt */
EIF[ ]	/* EndIf */
PUSHB[ ]	/* 1 value pushed */
13 
SRP0[ ]	/* SetRefPoint0 */
PUSHB[ ]	/* 2 values pushed */
28 1 
PUSHB[ ]	/* 1 value pushed */
10 
CALL[ ]	/* CallFunction */
IF[ ]	/* If */
POP[ ]	/* PopTopStack */
MDRP[11000]	/* MoveDirectRelPt */
ELSE[ ]	/* Else */
MIRP[10100]	/* MoveIndirectRelPt */
EIF[ ]	/* EndIf */
IUP[0]	/* InterpolateUntPts */
IUP[1]	/* InterpolateUntPts */";
};
width = 1175;
},
{
layerId = m002;
paths = (
{
closed = 1;
nodes = (
"875.667 -20 OFFCURVE",
"1052 175 OFFCURVE",
"1052 475 CURVE SMOOTH",
"1052 757.667 OFFCURVE",
"888.333 955 OFFCURVE",
"635 955 CURVE SMOOTH",
"502.333 955 OFFCURVE",
"397.667 911 OFFCURVE",
"321 823 CURVE",
"347.667 1123 OFFCURVE",
"525 1294.667 OFFCURVE",
"813 1300 CURVE SMOOTH",
"847 1300 LINE",
"847 1457 LINE {name = \"❌\";}",
"362 1450.333 OFFCURVE",
"132 1161 OFFCURVE",
"132 625 CURVE SMOOTH",
"132 554 LINE SMOOTH",
"132 216.667 OFFCURVE",
"322.333 -20 OFFCURVE",
"601 -20 CURVE SMOOTH"
);
},
{
closed = 1;
nodes = (
"439.667 133 OFFCURVE",
"318 293 OFFCURVE",
"318 533 CURVE SMOOTH",
"318 601 LINE",
"359.333 715.667 OFFCURVE",
"477.333 801 OFFCURVE",
"604 801 CURVE SMOOTH",
"764 801 OFFCURVE",
"869 666 OFFCURVE",
"869 466 CURVE SMOOTH",
"869 267.333 OFFCURVE",
"767.667 133 OFFCURVE",
"601 133 CURVE SMOOTH"
);
}
);
userData = {
assembly = "SVTCA[0]	/* SetFreedomAndProjectionVectorToAxis */
PUSHB[ ]	/* 1 value pushed */
0 
RCVT[ ]	/* ReadCVT */
IF[ ]	/* If */
PUSHB[ ]	/* 1 value pushed */
0 
MDAP[1]	/* MoveDirectAbsPt */
ELSE[ ]	/* Else */
PUSHB[ ]	/* 2 values pushed */
0 30 
MIAP[0]	/* MoveIndirectAbsPt */
EIF[ ]	/* EndIf */
PUSHB[ ]	/* 1 value pushed */
0 
RCVT[ ]	/* ReadCVT */
IF[ ]	/* If */
PUSHB[ ]	/* 1 value pushed */
13 
MDAP[1]	/* MoveDirectAbsPt */
ELSE[ ]	/* Else */
PUSHB[ ]	/* 2 values pushed */
13 18 
MIAP[0]	/* MoveIndirectAbsPt */
EIF[ ]	/* EndIf */
PUSHB[ ]	/* 1 value pushed */
0 
SRP0[ ]	/* SetRefPoint0 */
PUSHB[ ]	/* 2 values pushed */
1 1 
PUSHB[ ]	/* 1 value pushed */
10 
CALL[ ]	/* CallFunction */
IF[ ]	/* If */
POP[ ]	/* PopTopStack */
MDRP[11000]	/* MoveDirectRelPt */
ELSE[ ]	/* Else */
MIRP[10100]	/* MoveIndirectRelPt */
EIF[ ]	/* EndIf */
PUSHB[ ]	/* 3 values pushed */
7 13 0 
SRP1[ ]	/* SetRefPoint1 */
SRP2[ ]	/* SetRefPoint2 */
IP[ ]	/* InterpolatePts */
PUSHB[ ]	/* 1 value pushed */
7 
MDAP[1]	/* MoveDirectAbsPt */
PUSHB[ ]	/* 2 values pushed */
21 1 
PUSHB[ ]	/* 1 value pushed */
10 
CALL[ ]	/* CallFunction */
IF[ ]	/* If */
POP[ ]	/* PopTopStack */
MDRP[11000]	/* MoveDirectRelPt */
ELSE[ ]	/* Else */
MIRP[10100]	/* MoveIndirectRelPt */
EIF[ ]	/* EndIf */
PUSHB[ ]	/* 1 value pushed */
13 
SRP0[ ]	/* SetRefPoint0 */
PUSHB[ ]	/* 2 values pushed */
28 1 
PUSHB[ ]	/* 1 value pushed */
10 
CALL[ ]	/* CallFunction */
IF[ ]	/* If */
POP[ ]	/* PopTopStack */
MDRP[11000]	/* MoveDirectRelPt */
ELSE[ ]	/* Else */
MIRP[10100]	/* MoveIndirectRelPt */
EIF[ ]	/* EndIf */
IUP[0]	/* InterpolateUntPts */
IUP[1]	/* InterpolateUntPts */";
};
width = 1150;
},
{
layerId = m003;
paths = (
{
closed = 1;
nodes = (
"860 -20 OFFCURVE",
"1013 217 OFFCURVE",
"1013 480 CURVE SMOOTH",
"1013 766.667 OFFCURVE",
"848 957 OFFCURVE",
"592 957 CURVE SMOOTH",
"417.333 957 OFFCURVE",
"260.333 870.333 OFFCURVE",
"183 733 CURVE",
"200 1153 OFFCURVE",
"416 1404 OFFCURVE",
"797 1421 CURVE SMOOTH",
"840 1422 LINE",
"840 1476 LINE",
"379 1476 OFFCURVE",
"128 1177 OFFCURVE",
"128 660 CURVE SMOOTH",
"128 481 LINE SMOOTH",
"136.071 47.139 OFFCURVE",
"533 -20 OFFCURVE",
"602 -20 CURVE SMOOTH"
);
},
{
closed = 1;
nodes = (
"354 33 OFFCURVE",
"182 218.333 OFFCURVE",
"182 493 CURVE SMOOTH",
"182 621 LINE",
"222 782.333 OFFCURVE",
"398.333 903 OFFCURVE",
"585 903 CURVE SMOOTH",
"817 903 OFFCURVE",
"959 738.667 OFFCURVE",
"959 480 CURVE SMOOTH",
"959 229.333 OFFCURVE",
"808.667 33 OFFCURVE",
"602 33 CURVE SMOOTH"
);
}
);
userData = {
assembly = "SVTCA[0]	/* SetFreedomAndProjectionVectorToAxis */
PUSHB[ ]	/* 1 value pushed */
0 
RCVT[ ]	/* ReadCVT */
IF[ ]	/* If */
PUSHB[ ]	/* 1 value pushed */
0 
MDAP[1]	/* MoveDirectAbsPt */
ELSE[ ]	/* Else */
PUSHB[ ]	/* 2 values pushed */
0 30 
MIAP[0]	/* MoveIndirectAbsPt */
EIF[ ]	/* EndIf */
PUSHB[ ]	/* 1 value pushed */
0 
RCVT[ ]	/* ReadCVT */
IF[ ]	/* If */
PUSHB[ ]	/* 1 value pushed */
13 
MDAP[1]	/* MoveDirectAbsPt */
ELSE[ ]	/* Else */
PUSHB[ ]	/* 2 values pushed */
13 18 
MIAP[0]	/* MoveIndirectAbsPt */
EIF[ ]	/* EndIf */
PUSHB[ ]	/* 1 value pushed */
0 
SRP0[ ]	/* SetRefPoint0 */
PUSHB[ ]	/* 2 values pushed */
1 1 
PUSHB[ ]	/* 1 value pushed */
10 
CALL[ ]	/* CallFunction */
IF[ ]	/* If */
POP[ ]	/* PopTopStack */
MDRP[11000]	/* MoveDirectRelPt */
ELSE[ ]	/* Else */
MIRP[10100]	/* MoveIndirectRelPt */
EIF[ ]	/* EndIf */
PUSHB[ ]	/* 3 values pushed */
7 13 0 
SRP1[ ]	/* SetRefPoint1 */
SRP2[ ]	/* SetRefPoint2 */
IP[ ]	/* InterpolatePts */
PUSHB[ ]	/* 1 value pushed */
7 
MDAP[1]	/* MoveDirectAbsPt */
PUSHB[ ]	/* 2 values pushed */
21 1 
PUSHB[ ]	/* 1 value pushed */
10 
CALL[ ]	/* CallFunction */
IF[ ]	/* If */
POP[ ]	/* PopTopStack */
MDRP[11000]	/* MoveDirectRelPt */
ELSE[ ]	/* Else */
MIRP[10100]	/* MoveIndirectRelPt */
EIF[ ]	/* EndIf */
PUSHB[ ]	/* 1 value pushed */
13 
SRP0[ ]	/* SetRefPoint0 */
PUSHB[ ]	/* 2 values pushed */
28 1 
PUSHB[ ]	/* 1 value pushed */
10 
CALL[ ]	/* CallFunction */
IF[ ]	/* If */
POP[ ]	/* PopTopStack */
MDRP[11000]	/* MoveDirectRelPt */
ELSE[ ]	/* Else */
MIRP[10100]	/* MoveIndirectRelPt */
EIF[ ]	/* EndIf */
IUP[0]	/* InterpolateUntPts */
IUP[1]	/* InterpolateUntPts */";
};
width = 1121;
}
);
note = uni0036;
unicode = 0036;
},
{
glyphname = seven;
lastChange = "2020-12-06 18:37:18 +0000";
layers = (
{
layerId = "A9B054E9-1A63-4AEF-9EE1-561B1DFE8422";
paths = (
{
closed = 1;
nodes = (
"526 0 LINE",
"1089 1294 LINE",
"1089 1456 LINE",
"61 1456 LINE",
"61 1222 LINE",
"785 1222 LINE",
"221 0 LINE"
);
}
);
userData = {
assembly = "SVTCA[0]	/* SetFreedomAndProjectionVectorToAxis */
PUSHB[ ]	/* 1 value pushed */
0 
RCVT[ ]	/* ReadCVT */
IF[ ]	/* If */
PUSHB[ ]	/* 1 value pushed */
5 
MDAP[1]	/* MoveDirectAbsPt */
ELSE[ ]	/* Else */
PUSHB[ ]	/* 2 values pushed */
5 30 
MIAP[0]	/* MoveIndirectAbsPt */
EIF[ ]	/* EndIf */
PUSHB[ ]	/* 1 value pushed */
0 
RCVT[ ]	/* ReadCVT */
IF[ ]	/* If */
PUSHB[ ]	/* 1 value pushed */
1 
MDAP[1]	/* MoveDirectAbsPt */
ELSE[ ]	/* Else */
PUSHB[ ]	/* 2 values pushed */
1 18 
MIAP[0]	/* MoveIndirectAbsPt */
EIF[ ]	/* EndIf */
PUSHB[ ]	/* 1 value pushed */
5 
SRP0[ ]	/* SetRefPoint0 */
PUSHB[ ]	/* 2 values pushed */
3 1 
PUSHB[ ]	/* 1 value pushed */
10 
CALL[ ]	/* CallFunction */
IF[ ]	/* If */
POP[ ]	/* PopTopStack */
MDRP[11000]	/* MoveDirectRelPt */
ELSE[ ]	/* Else */
MIRP[10100]	/* MoveIndirectRelPt */
EIF[ ]	/* EndIf */
PUSHB[ ]	/* 3 values pushed */
0 3 5 
SRP1[ ]	/* SetRefPoint1 */
SRP2[ ]	/* SetRefPoint2 */
IP[ ]	/* InterpolatePts */
IUP[0]	/* InterpolateUntPts */
IUP[1]	/* InterpolateUntPts */";
};
width = 1175;
},
{
layerId = m002;
paths = (
{
closed = 1;
nodes = (
"458 0 LINE",
"1061 1352 LINE",
"1061 1456 LINE",
"77 1456 LINE",
"77 1304 LINE",
"865 1304 LINE",
"264 0 LINE"
);
}
);
userData = {
assembly = "SVTCA[0]	/* SetFreedomAndProjectionVectorToAxis */
PUSHB[ ]	/* 1 value pushed */
0 
RCVT[ ]	/* ReadCVT */
IF[ ]	/* If */
PUSHB[ ]	/* 1 value pushed */
5 
MDAP[1]	/* MoveDirectAbsPt */
ELSE[ ]	/* Else */
PUSHB[ ]	/* 2 values pushed */
5 30 
MIAP[0]	/* MoveIndirectAbsPt */
EIF[ ]	/* EndIf */
PUSHB[ ]	/* 1 value pushed */
0 
RCVT[ ]	/* ReadCVT */
IF[ ]	/* If */
PUSHB[ ]	/* 1 value pushed */
1 
MDAP[1]	/* MoveDirectAbsPt */
ELSE[ ]	/* Else */
PUSHB[ ]	/* 2 values pushed */
1 18 
MIAP[0]	/* MoveIndirectAbsPt */
EIF[ ]	/* EndIf */
PUSHB[ ]	/* 1 value pushed */
5 
SRP0[ ]	/* SetRefPoint0 */
PUSHB[ ]	/* 2 values pushed */
3 1 
PUSHB[ ]	/* 1 value pushed */
10 
CALL[ ]	/* CallFunction */
IF[ ]	/* If */
POP[ ]	/* PopTopStack */
MDRP[11000]	/* MoveDirectRelPt */
ELSE[ ]	/* Else */
MIRP[10100]	/* MoveIndirectRelPt */
EIF[ ]	/* EndIf */
PUSHB[ ]	/* 3 values pushed */
0 3 5 
SRP1[ ]	/* SetRefPoint1 */
SRP2[ ]	/* SetRefPoint2 */
IP[ ]	/* InterpolatePts */
IUP[0]	/* InterpolateUntPts */
IUP[1]	/* InterpolateUntPts */";
};
width = 1150;
},
{
layerId = m003;
paths = (
{
closed = 1;
nodes = (
"366 0 LINE",
"1007 1422 LINE",
"1007 1456 LINE",
"77 1456 LINE",
"77 1402 LINE",
"945 1402 LINE",
"311 0 LINE"
);
}
);
userData = {
assembly = "SVTCA[0]	/* SetFreedomAndProjectionVectorToAxis */
PUSHB[ ]	/* 1 value pushed */
0 
RCVT[ ]	/* ReadCVT */
IF[ ]	/* If */
PUSHB[ ]	/* 1 value pushed */
5 
MDAP[1]	/* MoveDirectAbsPt */
ELSE[ ]	/* Else */
PUSHB[ ]	/* 2 values pushed */
5 30 
MIAP[0]	/* MoveIndirectAbsPt */
EIF[ ]	/* EndIf */
PUSHB[ ]	/* 1 value pushed */
0 
RCVT[ ]	/* ReadCVT */
IF[ ]	/* If */
PUSHB[ ]	/* 1 value pushed */
1 
MDAP[1]	/* MoveDirectAbsPt */
ELSE[ ]	/* Else */
PUSHB[ ]	/* 2 values pushed */
1 18 
MIAP[0]	/* MoveIndirectAbsPt */
EIF[ ]	/* EndIf */
PUSHB[ ]	/* 1 value pushed */
5 
SRP0[ ]	/* SetRefPoint0 */
PUSHB[ ]	/* 2 values pushed */
3 1 
PUSHB[ ]	/* 1 value pushed */
10 
CALL[ ]	/* CallFunction */
IF[ ]	/* If */
POP[ ]	/* PopTopStack */
MDRP[11000]	/* MoveDirectRelPt */
ELSE[ ]	/* Else */
MIRP[10100]	/* MoveIndirectRelPt */
EIF[ ]	/* EndIf */
PUSHB[ ]	/* 3 values pushed */
0 3 5 
SRP1[ ]	/* SetRefPoint1 */
SRP2[ ]	/* SetRefPoint2 */
IP[ ]	/* InterpolatePts */
IUP[0]	/* InterpolateUntPts */
IUP[1]	/* InterpolateUntPts */";
};
width = 1121;
}
);
note = uni0037;
unicode = 0037;
},
{
glyphname = eight;
lastChange = "2020-12-11 04:50:29 +0000";
layers = (
{
layerId = "A9B054E9-1A63-4AEF-9EE1-561B1DFE8422";
paths = (
{
closed = 1;
nodes = (
"890.667 -20 OFFCURVE",
"1079 140.333 OFFCURVE",
"1079 399 CURVE SMOOTH",
"1079 560.333 OFFCURVE",
"990.333 682 OFFCURVE",
"849 750 CURVE",
"973 815.333 OFFCURVE",
"1048 927.667 OFFCURVE",
"1048 1069 CURVE SMOOTH",
"1048 1319.667 OFFCURVE",
"869.667 1476 OFFCURVE",
"587 1476 CURVE SMOOTH",
"303 1476 OFFCURVE",
"126 1317 OFFCURVE",
"126 1069 CURVE SMOOTH",
"126 927.667 OFFCURVE",
"200 815.333 OFFCURVE",
"324 750 CURVE",
"184 683.333 OFFCURVE",
"95 560.333 OFFCURVE",
"95 399 CURVE SMOOTH",
"95 141.667 OFFCURVE",
"285.333 -20 OFFCURVE",
"588 -20 CURVE SMOOTH"
);
},
{
closed = 1;
nodes = (
"460 213 OFFCURVE",
"384 296 OFFCURVE",
"384 420 CURVE SMOOTH",
"384 548 OFFCURVE",
"463.333 629 OFFCURVE",
"586 629 CURVE SMOOTH",
"710 629 OFFCURVE",
"789 546.667 OFFCURVE",
"789 420 CURVE SMOOTH",
"789 290.667 OFFCURVE",
"713.333 213 OFFCURVE",
"588 213 CURVE SMOOTH"
);
},
{
closed = 1;
nodes = (
"478.667 862 OFFCURVE",
"416 939 OFFCURVE",
"416 1055 CURVE SMOOTH",
"416 1172.333 OFFCURVE",
"479 1243 OFFCURVE",
"587 1243 CURVE SMOOTH",
"696.333 1243 OFFCURVE",
"759 1168.333 OFFCURVE",
"759 1055 CURVE SMOOTH",
"759 939 OFFCURVE",
"697.333 862 OFFCURVE",
"588 862 CURVE SMOOTH"
);
}
);
userData = {
assembly = "SVTCA[0]	/* SetFreedomAndProjectionVectorToAxis */
PUSHB[ ]	/* 1 value pushed */
0 
RCVT[ ]	/* ReadCVT */
IF[ ]	/* If */
PUSHB[ ]	/* 1 value pushed */
21 
MDAP[1]	/* MoveDirectAbsPt */
ELSE[ ]	/* Else */
PUSHB[ ]	/* 2 values pushed */
21 30 
MIAP[0]	/* MoveIndirectAbsPt */
EIF[ ]	/* EndIf */
PUSHB[ ]	/* 1 value pushed */
0 
RCVT[ ]	/* ReadCVT */
IF[ ]	/* If */
PUSHB[ ]	/* 1 value pushed */
9 
MDAP[1]	/* MoveDirectAbsPt */
ELSE[ ]	/* Else */
PUSHB[ ]	/* 2 values pushed */
9 18 
MIAP[0]	/* MoveIndirectAbsPt */
EIF[ ]	/* EndIf */
PUSHB[ ]	/* 3 values pushed */
39 9 21 
SRP1[ ]	/* SetRefPoint1 */
SRP2[ ]	/* SetRefPoint2 */
IP[ ]	/* InterpolatePts */
PUSHB[ ]	/* 1 value pushed */
39 
MDAP[1]	/* MoveDirectAbsPt */
PUSHB[ ]	/* 3 values pushed */
207 39 1 
DELTAP1[ ]	/* DeltaExceptionP1 */
PUSHB[ ]	/* 2 values pushed */
26 1 
PUSHB[ ]	/* 1 value pushed */
10 
CALL[ ]	/* CallFunction */
IF[ ]	/* If */
POP[ ]	/* PopTopStack */
MDRP[11000]	/* MoveDirectRelPt */
ELSE[ ]	/* Else */
MIRP[10100]	/* MoveIndirectRelPt */
EIF[ ]	/* EndIf */
PUSHB[ ]	/* 3 values pushed */
3 26 39 
SRP1[ ]	/* SetRefPoint1 */
SRP2[ ]	/* SetRefPoint2 */
IP[ ]	/* InterpolatePts */
PUSHB[ ]	/* 3 values pushed */
15 39 26 
SRP1[ ]	/* SetRefPoint1 */
SRP2[ ]	/* SetRefPoint2 */
IP[ ]	/* InterpolatePts */
PUSHB[ ]	/* 1 value pushed */
9 
SRP0[ ]	/* SetRefPoint0 */
PUSHB[ ]	/* 2 values pushed */
31 1 
PUSHB[ ]	/* 1 value pushed */
10 
CALL[ ]	/* CallFunction */
IF[ ]	/* If */
POP[ ]	/* PopTopStack */
MDRP[11000]	/* MoveDirectRelPt */
ELSE[ ]	/* Else */
MIRP[10100]	/* MoveIndirectRelPt */
EIF[ ]	/* EndIf */
PUSHB[ ]	/* 1 value pushed */
21 
SRP0[ ]	/* SetRefPoint0 */
PUSHB[ ]	/* 2 values pushed */
34 1 
PUSHB[ ]	/* 1 value pushed */
10 
CALL[ ]	/* CallFunction */
IF[ ]	/* If */
POP[ ]	/* PopTopStack */
MDRP[11000]	/* MoveDirectRelPt */
ELSE[ ]	/* Else */
MIRP[10100]	/* MoveIndirectRelPt */
EIF[ ]	/* EndIf */
IUP[0]	/* InterpolateUntPts */
IUP[1]	/* InterpolateUntPts */";
};
width = 1175;
},
{
layerId = m002;
paths = (
{
closed = 1;
nodes = (
"852.333 -20 OFFCURVE",
"1038 141 OFFCURVE",
"1038 393 CURVE SMOOTH",
"1038 551.667 OFFCURVE",
"943 683.667 OFFCURVE",
"791 749 CURVE",
"921.667 813 OFFCURVE",
"1004 930.667 OFFCURVE",
"1004 1076 CURVE SMOOTH",
"1004 1321.333 OFFCURVE",
"831 1476 OFFCURVE",
"575 1476 CURVE SMOOTH",
"317.667 1476 OFFCURVE",
"146 1321.333 OFFCURVE",
"146 1076 CURVE SMOOTH",
"146 932 OFFCURVE",
"225.667 814 OFFCURVE",
"355 750 CURVE",
"203 684.667 OFFCURVE",
"112 550.333 OFFCURVE",
"112 393 CURVE SMOOTH",
"112 142.333 OFFCURVE",
"295 -20 OFFCURVE",
"575 -20 CURVE SMOOTH"
);
},
{
closed = 1;
nodes = (
"400.333 131 OFFCURVE",
"297 231.667 OFFCURVE",
"297 397 CURVE SMOOTH",
"297 562.333 OFFCURVE",
"406.333 673 OFFCURVE",
"573 673 CURVE SMOOTH",
"739.667 673 OFFCURVE",
"853 559.667 OFFCURVE",
"853 397 CURVE SMOOTH",
"853 233 OFFCURVE",
"748.333 131 OFFCURVE",
"575 131 CURVE SMOOTH"
);
},
{
closed = 1;
nodes = (
"427 825 OFFCURVE",
"331 925 OFFCURVE",
"331 1073 CURVE SMOOTH",
"331 1227.667 OFFCURVE",
"429.667 1324 OFFCURVE",
"575 1324 CURVE SMOOTH",
"716.333 1324 OFFCURVE",
"819 1221 OFFCURVE",
"819 1073 CURVE SMOOTH",
"819 925 OFFCURVE",
"723 825 OFFCURVE",
"575 825 CURVE SMOOTH"
);
}
);
userData = {
assembly = "SVTCA[0]	/* SetFreedomAndProjectionVectorToAxis */
PUSHB[ ]	/* 1 value pushed */
0 
RCVT[ ]	/* ReadCVT */
IF[ ]	/* If */
PUSHB[ ]	/* 1 value pushed */
21 
MDAP[1]	/* MoveDirectAbsPt */
ELSE[ ]	/* Else */
PUSHB[ ]	/* 2 values pushed */
21 30 
MIAP[0]	/* MoveIndirectAbsPt */
EIF[ ]	/* EndIf */
PUSHB[ ]	/* 1 value pushed */
0 
RCVT[ ]	/* ReadCVT */
IF[ ]	/* If */
PUSHB[ ]	/* 1 value pushed */
9 
MDAP[1]	/* MoveDirectAbsPt */
ELSE[ ]	/* Else */
PUSHB[ ]	/* 2 values pushed */
9 18 
MIAP[0]	/* MoveIndirectAbsPt */
EIF[ ]	/* EndIf */
PUSHB[ ]	/* 3 values pushed */
39 9 21 
SRP1[ ]	/* SetRefPoint1 */
SRP2[ ]	/* SetRefPoint2 */
IP[ ]	/* InterpolatePts */
PUSHB[ ]	/* 1 value pushed */
39 
MDAP[1]	/* MoveDirectAbsPt */
PUSHB[ ]	/* 3 values pushed */
207 39 1 
DELTAP1[ ]	/* DeltaExceptionP1 */
PUSHB[ ]	/* 2 values pushed */
26 1 
PUSHB[ ]	/* 1 value pushed */
10 
CALL[ ]	/* CallFunction */
IF[ ]	/* If */
POP[ ]	/* PopTopStack */
MDRP[11000]	/* MoveDirectRelPt */
ELSE[ ]	/* Else */
MIRP[10100]	/* MoveIndirectRelPt */
EIF[ ]	/* EndIf */
PUSHB[ ]	/* 3 values pushed */
3 26 39 
SRP1[ ]	/* SetRefPoint1 */
SRP2[ ]	/* SetRefPoint2 */
IP[ ]	/* InterpolatePts */
PUSHB[ ]	/* 3 values pushed */
15 39 26 
SRP1[ ]	/* SetRefPoint1 */
SRP2[ ]	/* SetRefPoint2 */
IP[ ]	/* InterpolatePts */
PUSHB[ ]	/* 1 value pushed */
9 
SRP0[ ]	/* SetRefPoint0 */
PUSHB[ ]	/* 2 values pushed */
31 1 
PUSHB[ ]	/* 1 value pushed */
10 
CALL[ ]	/* CallFunction */
IF[ ]	/* If */
POP[ ]	/* PopTopStack */
MDRP[11000]	/* MoveDirectRelPt */
ELSE[ ]	/* Else */
MIRP[10100]	/* MoveIndirectRelPt */
EIF[ ]	/* EndIf */
PUSHB[ ]	/* 1 value pushed */
21 
SRP0[ ]	/* SetRefPoint0 */
PUSHB[ ]	/* 2 values pushed */
34 1 
PUSHB[ ]	/* 1 value pushed */
10 
CALL[ ]	/* CallFunction */
IF[ ]	/* If */
POP[ ]	/* PopTopStack */
MDRP[11000]	/* MoveDirectRelPt */
ELSE[ ]	/* Else */
MIRP[10100]	/* MoveIndirectRelPt */
EIF[ ]	/* EndIf */
IUP[0]	/* InterpolateUntPts */
IUP[1]	/* InterpolateUntPts */";
};
width = 1150;
},
{
layerId = m003;
paths = (
{
closed = 1;
nodes = (
"845 -20 OFFCURVE",
"1028 132.333 OFFCURVE",
"1028 379 CURVE SMOOTH",
"1028 549.667 OFFCURVE",
"905.667 694.333 OFFCURVE",
"715 745 CURVE",
"875 793 OFFCURVE",
"986 923.333 OFFCURVE",
"986 1086 CURVE SMOOTH",
"986 1320.667 OFFCURVE",
"814.333 1476 OFFCURVE",
"561 1476 CURVE SMOOTH",
"309 1476 OFFCURVE",
"141 1326 OFFCURVE",
"141 1086 CURVE SMOOTH",
"141 923.333 OFFCURVE",
"248 793 OFFCURVE",
"408 745 CURVE",
"217.333 694.333 OFFCURVE",
"100 551 OFFCURVE",
"100 379 CURVE SMOOTH",
"100 132.333 OFFCURVE",
"279.667 -20 OFFCURVE",
"565 -20 CURVE SMOOTH"
);
},
{
closed = 1;
nodes = (
"314.333 34 OFFCURVE",
"154 168.667 OFFCURVE",
"154 374 CURVE SMOOTH",
"154 575.333 OFFCURVE",
"321.667 718 OFFCURVE",
"563 718 CURVE SMOOTH",
"803 718 OFFCURVE",
"973 574 OFFCURVE",
"973 374 CURVE SMOOTH",
"973 170 OFFCURVE",
"810.333 34 OFFCURVE",
"565 34 CURVE SMOOTH"
);
},
{
closed = 1;
nodes = (
"344.333 772 OFFCURVE",
"195 901.667 OFFCURVE",
"195 1091 CURVE SMOOTH",
"195 1289.667 OFFCURVE",
"346.333 1422 OFFCURVE",
"561 1422 CURVE SMOOTH",
"770.333 1422 OFFCURVE",
"932 1280.333 OFFCURVE",
"932 1091 CURVE SMOOTH",
"932 904.333 OFFCURVE",
"779 772 OFFCURVE",
"563 772 CURVE SMOOTH"
);
}
);
userData = {
assembly = "SVTCA[0]	/* SetFreedomAndProjectionVectorToAxis */
PUSHB[ ]	/* 1 value pushed */
0 
RCVT[ ]	/* ReadCVT */
IF[ ]	/* If */
PUSHB[ ]	/* 1 value pushed */
21 
MDAP[1]	/* MoveDirectAbsPt */
ELSE[ ]	/* Else */
PUSHB[ ]	/* 2 values pushed */
21 30 
MIAP[0]	/* MoveIndirectAbsPt */
EIF[ ]	/* EndIf */
PUSHB[ ]	/* 1 value pushed */
0 
RCVT[ ]	/* ReadCVT */
IF[ ]	/* If */
PUSHB[ ]	/* 1 value pushed */
9 
MDAP[1]	/* MoveDirectAbsPt */
ELSE[ ]	/* Else */
PUSHB[ ]	/* 2 values pushed */
9 18 
MIAP[0]	/* MoveIndirectAbsPt */
EIF[ ]	/* EndIf */
PUSHB[ ]	/* 3 values pushed */
39 9 21 
SRP1[ ]	/* SetRefPoint1 */
SRP2[ ]	/* SetRefPoint2 */
IP[ ]	/* InterpolatePts */
PUSHB[ ]	/* 1 value pushed */
39 
MDAP[1]	/* MoveDirectAbsPt */
PUSHB[ ]	/* 3 values pushed */
207 39 1 
DELTAP1[ ]	/* DeltaExceptionP1 */
PUSHB[ ]	/* 2 values pushed */
26 1 
PUSHB[ ]	/* 1 value pushed */
10 
CALL[ ]	/* CallFunction */
IF[ ]	/* If */
POP[ ]	/* PopTopStack */
MDRP[11000]	/* MoveDirectRelPt */
ELSE[ ]	/* Else */
MIRP[10100]	/* MoveIndirectRelPt */
EIF[ ]	/* EndIf */
PUSHB[ ]	/* 3 values pushed */
3 26 39 
SRP1[ ]	/* SetRefPoint1 */
SRP2[ ]	/* SetRefPoint2 */
IP[ ]	/* InterpolatePts */
PUSHB[ ]	/* 3 values pushed */
15 39 26 
SRP1[ ]	/* SetRefPoint1 */
SRP2[ ]	/* SetRefPoint2 */
IP[ ]	/* InterpolatePts */
PUSHB[ ]	/* 1 value pushed */
9 
SRP0[ ]	/* SetRefPoint0 */
PUSHB[ ]	/* 2 values pushed */
31 1 
PUSHB[ ]	/* 1 value pushed */
10 
CALL[ ]	/* CallFunction */
IF[ ]	/* If */
POP[ ]	/* PopTopStack */
MDRP[11000]	/* MoveDirectRelPt */
ELSE[ ]	/* Else */
MIRP[10100]	/* MoveIndirectRelPt */
EIF[ ]	/* EndIf */
PUSHB[ ]	/* 1 value pushed */
21 
SRP0[ ]	/* SetRefPoint0 */
PUSHB[ ]	/* 2 values pushed */
34 1 
PUSHB[ ]	/* 1 value pushed */
10 
CALL[ ]	/* CallFunction */
IF[ ]	/* If */
POP[ ]	/* PopTopStack */
MDRP[11000]	/* MoveDirectRelPt */
ELSE[ ]	/* Else */
MIRP[10100]	/* MoveIndirectRelPt */
EIF[ ]	/* EndIf */
IUP[0]	/* InterpolateUntPts */
IUP[1]	/* InterpolateUntPts */";
};
width = 1121;
}
);
note = uni0038;
unicode = 0038;
},
{
glyphname = nine;
lastChange = "2020-12-09 02:40:31 +0000";
layers = (
{
layerId = "A9B054E9-1A63-4AEF-9EE1-561B1DFE8422";
paths = (
{
closed = 1;
nodes = (
"374 -13 LINE SMOOTH",
"816.667 5.667 OFFCURVE",
"1068 295.667 OFFCURVE",
"1068 781 CURVE SMOOTH",
"1068 888 LINE SMOOTH",
"1066 1213 OFFCURVE",
"892 1476 OFFCURVE",
"575 1476 CURVE SMOOTH",
"324 1476 OFFCURVE",
"200 1324 OFFCURVE",
"140 1185 CURVE SMOOTH",
"95 1079 OFFCURVE",
"86 980 OFFCURVE",
"86 961 CURVE SMOOTH",
"86 661 OFFCURVE",
"253.667 471 OFFCURVE",
"511 471 CURVE SMOOTH",
"611.667 471 OFFCURVE",
"699.667 508 OFFCURVE",
"775 582 CURVE",
"754.333 357.333 OFFCURVE",
"618.333 239.333 OFFCURVE",
"367 228 CURVE SMOOTH",
"303 227 LINE",
"303 -14 LINE"
);
},
{
closed = 1;
nodes = (
"450 692 OFFCURVE",
"374 805.333 OFFCURVE",
"374 964 CURVE SMOOTH",
"374 1124 OFFCURVE",
"457 1243 OFFCURVE",
"573 1243 CURVE SMOOTH",
"698.333 1243 OFFCURVE",
"779 1130 OFFCURVE",
"779 934 CURVE SMOOTH",
"779 815 LINE",
"744.333 747 OFFCURVE",
"675.333 692 OFFCURVE",
"582 692 CURVE SMOOTH"
);
}
);
userData = {
assembly = "SVTCA[0]	/* SetFreedomAndProjectionVectorToAxis */
PUSHB[ ]	/* 1 value pushed */
0 
RCVT[ ]	/* ReadCVT */
IF[ ]	/* If */
PUSHB[ ]	/* 1 value pushed */
11 
MDAP[1]	/* MoveDirectAbsPt */
ELSE[ ]	/* Else */
PUSHB[ ]	/* 2 values pushed */
11 30 
MIAP[0]	/* MoveIndirectAbsPt */
EIF[ ]	/* EndIf */
PUSHB[ ]	/* 1 value pushed */
0 
RCVT[ ]	/* ReadCVT */
IF[ ]	/* If */
PUSHB[ ]	/* 1 value pushed */
19 
MDAP[1]	/* MoveDirectAbsPt */
ELSE[ ]	/* Else */
PUSHB[ ]	/* 2 values pushed */
19 18 
MIAP[0]	/* MoveIndirectAbsPt */
EIF[ ]	/* EndIf */
PUSHB[ ]	/* 3 values pushed */
3 19 11 
SRP1[ ]	/* SetRefPoint1 */
SRP2[ ]	/* SetRefPoint2 */
IP[ ]	/* InterpolatePts */
PUSHB[ ]	/* 1 value pushed */
3 
MDAP[1]	/* MoveDirectAbsPt */
PUSHB[ ]	/* 3 values pushed */
0 3 11 
SRP1[ ]	/* SetRefPoint1 */
SRP2[ ]	/* SetRefPoint2 */
IP[ ]	/* InterpolatePts */
PUSHB[ ]	/* 1 value pushed */
19 
SRP0[ ]	/* SetRefPoint0 */
PUSHB[ ]	/* 2 values pushed */
20 1 
PUSHB[ ]	/* 1 value pushed */
10 
CALL[ ]	/* CallFunction */
IF[ ]	/* If */
POP[ ]	/* PopTopStack */
MDRP[11000]	/* MoveDirectRelPt */
ELSE[ ]	/* Else */
MIRP[10100]	/* MoveIndirectRelPt */
EIF[ ]	/* EndIf */
PUSHB[ ]	/* 1 value pushed */
3 
SRP0[ ]	/* SetRefPoint0 */
PUSHB[ ]	/* 2 values pushed */
24 1 
PUSHB[ ]	/* 1 value pushed */
10 
CALL[ ]	/* CallFunction */
IF[ ]	/* If */
POP[ ]	/* PopTopStack */
MDRP[11000]	/* MoveDirectRelPt */
ELSE[ ]	/* Else */
MIRP[10100]	/* MoveIndirectRelPt */
EIF[ ]	/* EndIf */
PUSHB[ ]	/* 1 value pushed */
11 
SRP0[ ]	/* SetRefPoint0 */
PUSHB[ ]	/* 2 values pushed */
31 1 
PUSHB[ ]	/* 1 value pushed */
10 
CALL[ ]	/* CallFunction */
IF[ ]	/* If */
POP[ ]	/* PopTopStack */
MDRP[11000]	/* MoveDirectRelPt */
ELSE[ ]	/* Else */
MIRP[10100]	/* MoveIndirectRelPt */
EIF[ ]	/* EndIf */
IUP[0]	/* InterpolateUntPts */
IUP[1]	/* InterpolateUntPts */";
};
width = 1175;
},
{
layerId = m002;
paths = (
{
closed = 1;
nodes = (
"341 -1 LINE SMOOTH {name = \"❌\";}",
"793 5.667 OFFCURVE",
"1016 253.333 OFFCURVE",
"1016 820 CURVE SMOOTH",
"1016 874 LINE SMOOTH",
"1016 1246 OFFCURVE",
"839 1476 OFFCURVE",
"551 1476 CURVE SMOOTH",
"369.667 1476 OFFCURVE",
"229.5 1391 OFFCURVE",
"155.5 1235 CURVE SMOOTH",
"118.5 1157 OFFCURVE",
"100 1069 OFFCURVE",
"100 972 CURVE SMOOTH",
"100 704 OFFCURVE",
"251 487 OFFCURVE",
"515 487 CURVE SMOOTH",
"643 487 OFFCURVE",
"752.667 548 OFFCURVE",
"830 640 CURVE",
"815.333 306.667 OFFCURVE",
"649.333 160.333 OFFCURVE",
"344 155 CURVE SMOOTH",
"305 155 LINE",
"305 -1 LINE {name = \"❌\";}"
);
},
{
closed = 1;
nodes = (
"385 640 OFFCURVE",
"282 783.333 OFFCURVE",
"282 982 CURVE SMOOTH",
"282 1186 OFFCURVE",
"389.333 1322 OFFCURVE",
"552 1322 CURVE SMOOTH",
"713.333 1322 OFFCURVE",
"831 1154.667 OFFCURVE",
"831 912 CURVE SMOOTH",
"831 838 LINE",
"783 726 OFFCURVE",
"669 640 OFFCURVE",
"545 640 CURVE SMOOTH"
);
}
);
userData = {
assembly = "SVTCA[0]	/* SetFreedomAndProjectionVectorToAxis */
PUSHB[ ]	/* 1 value pushed */
0 
RCVT[ ]	/* ReadCVT */
IF[ ]	/* If */
PUSHB[ ]	/* 1 value pushed */
11 
MDAP[1]	/* MoveDirectAbsPt */
ELSE[ ]	/* Else */
PUSHB[ ]	/* 2 values pushed */
11 30 
MIAP[0]	/* MoveIndirectAbsPt */
EIF[ ]	/* EndIf */
PUSHB[ ]	/* 1 value pushed */
0 
RCVT[ ]	/* ReadCVT */
IF[ ]	/* If */
PUSHB[ ]	/* 1 value pushed */
19 
MDAP[1]	/* MoveDirectAbsPt */
ELSE[ ]	/* Else */
PUSHB[ ]	/* 2 values pushed */
19 18 
MIAP[0]	/* MoveIndirectAbsPt */
EIF[ ]	/* EndIf */
PUSHB[ ]	/* 3 values pushed */
3 19 11 
SRP1[ ]	/* SetRefPoint1 */
SRP2[ ]	/* SetRefPoint2 */
IP[ ]	/* InterpolatePts */
PUSHB[ ]	/* 1 value pushed */
3 
MDAP[1]	/* MoveDirectAbsPt */
PUSHB[ ]	/* 3 values pushed */
0 3 11 
SRP1[ ]	/* SetRefPoint1 */
SRP2[ ]	/* SetRefPoint2 */
IP[ ]	/* InterpolatePts */
PUSHB[ ]	/* 1 value pushed */
19 
SRP0[ ]	/* SetRefPoint0 */
PUSHB[ ]	/* 2 values pushed */
20 1 
PUSHB[ ]	/* 1 value pushed */
10 
CALL[ ]	/* CallFunction */
IF[ ]	/* If */
POP[ ]	/* PopTopStack */
MDRP[11000]	/* MoveDirectRelPt */
ELSE[ ]	/* Else */
MIRP[10100]	/* MoveIndirectRelPt */
EIF[ ]	/* EndIf */
PUSHB[ ]	/* 1 value pushed */
3 
SRP0[ ]	/* SetRefPoint0 */
PUSHB[ ]	/* 2 values pushed */
24 1 
PUSHB[ ]	/* 1 value pushed */
10 
CALL[ ]	/* CallFunction */
IF[ ]	/* If */
POP[ ]	/* PopTopStack */
MDRP[11000]	/* MoveDirectRelPt */
ELSE[ ]	/* Else */
MIRP[10100]	/* MoveIndirectRelPt */
EIF[ ]	/* EndIf */
PUSHB[ ]	/* 1 value pushed */
11 
SRP0[ ]	/* SetRefPoint0 */
PUSHB[ ]	/* 2 values pushed */
31 1 
PUSHB[ ]	/* 1 value pushed */
10 
CALL[ ]	/* CallFunction */
IF[ ]	/* If */
POP[ ]	/* PopTopStack */
MDRP[11000]	/* MoveDirectRelPt */
ELSE[ ]	/* Else */
MIRP[10100]	/* MoveIndirectRelPt */
EIF[ ]	/* EndIf */
IUP[0]	/* InterpolateUntPts */
IUP[1]	/* InterpolateUntPts */";
};
width = 1150;
},
{
layerId = m003;
paths = (
{
closed = 1;
nodes = (
"346 -20 LINE SMOOTH",
"771.333 -14.667 OFFCURVE",
"993 248 OFFCURVE",
"993 740 CURVE SMOOTH",
"993 907 LINE SMOOTH",
"991.667 1275 OFFCURVE",
"831 1476 OFFCURVE",
"531 1476 CURVE SMOOTH",
"371 1476 OFFCURVE",
"231.333 1379.833 OFFCURVE",
"158 1220.5 CURVE SMOOTH",
"121.333 1140.833 OFFCURVE",
"103 1053.333 OFFCURVE",
"103 958 CURVE SMOOTH",
"103 700 OFFCURVE",
"265 468 OFFCURVE",
"523 468 CURVE SMOOTH",
"709.667 468 OFFCURVE",
"868.333 570.667 OFFCURVE",
"939 724 CURVE",
"939 274.667 OFFCURVE",
"732.333 38 OFFCURVE",
"343 34 CURVE SMOOTH",
"300 34 LINE",
"298 -20 LINE"
);
},
{
closed = 1;
nodes = (
"292 522 OFFCURVE",
"157 732 OFFCURVE",
"157 958 CURVE SMOOTH",
"157 1192 OFFCURVE",
"303 1422 OFFCURVE",
"535 1422 CURVE SMOOTH",
"795 1422 OFFCURVE",
"939 1239.333 OFFCURVE",
"939 902 CURVE SMOOTH",
"939 840 LINE",
"885.667 648 OFFCURVE",
"720.333 522 OFFCURVE",
"523 522 CURVE SMOOTH"
);
}
);
userData = {
assembly = "SVTCA[0]	/* SetFreedomAndProjectionVectorToAxis */
PUSHB[ ]	/* 1 value pushed */
0 
RCVT[ ]	/* ReadCVT */
IF[ ]	/* If */
PUSHB[ ]	/* 1 value pushed */
11 
MDAP[1]	/* MoveDirectAbsPt */
ELSE[ ]	/* Else */
PUSHB[ ]	/* 2 values pushed */
11 30 
MIAP[0]	/* MoveIndirectAbsPt */
EIF[ ]	/* EndIf */
PUSHB[ ]	/* 1 value pushed */
0 
RCVT[ ]	/* ReadCVT */
IF[ ]	/* If */
PUSHB[ ]	/* 1 value pushed */
19 
MDAP[1]	/* MoveDirectAbsPt */
ELSE[ ]	/* Else */
PUSHB[ ]	/* 2 values pushed */
19 18 
MIAP[0]	/* MoveIndirectAbsPt */
EIF[ ]	/* EndIf */
PUSHB[ ]	/* 3 values pushed */
3 19 11 
SRP1[ ]	/* SetRefPoint1 */
SRP2[ ]	/* SetRefPoint2 */
IP[ ]	/* InterpolatePts */
PUSHB[ ]	/* 1 value pushed */
3 
MDAP[1]	/* MoveDirectAbsPt */
PUSHB[ ]	/* 3 values pushed */
0 3 11 
SRP1[ ]	/* SetRefPoint1 */
SRP2[ ]	/* SetRefPoint2 */
IP[ ]	/* InterpolatePts */
PUSHB[ ]	/* 1 value pushed */
19 
SRP0[ ]	/* SetRefPoint0 */
PUSHB[ ]	/* 2 values pushed */
20 1 
PUSHB[ ]	/* 1 value pushed */
10 
CALL[ ]	/* CallFunction */
IF[ ]	/* If */
POP[ ]	/* PopTopStack */
MDRP[11000]	/* MoveDirectRelPt */
ELSE[ ]	/* Else */
MIRP[10100]	/* MoveIndirectRelPt */
EIF[ ]	/* EndIf */
PUSHB[ ]	/* 1 value pushed */
3 
SRP0[ ]	/* SetRefPoint0 */
PUSHB[ ]	/* 2 values pushed */
24 1 
PUSHB[ ]	/* 1 value pushed */
10 
CALL[ ]	/* CallFunction */
IF[ ]	/* If */
POP[ ]	/* PopTopStack */
MDRP[11000]	/* MoveDirectRelPt */
ELSE[ ]	/* Else */
MIRP[10100]	/* MoveIndirectRelPt */
EIF[ ]	/* EndIf */
PUSHB[ ]	/* 1 value pushed */
11 
SRP0[ ]	/* SetRefPoint0 */
PUSHB[ ]	/* 2 values pushed */
31 1 
PUSHB[ ]	/* 1 value pushed */
10 
CALL[ ]	/* CallFunction */
IF[ ]	/* If */
POP[ ]	/* PopTopStack */
MDRP[11000]	/* MoveDirectRelPt */
ELSE[ ]	/* Else */
MIRP[10100]	/* MoveIndirectRelPt */
EIF[ ]	/* EndIf */
IUP[0]	/* InterpolateUntPts */
IUP[1]	/* InterpolateUntPts */";
};
width = 1121;
}
);
note = uni0039;
unicode = 0039;
},
{
glyphname = less;
lastChange = "2020-12-06 18:37:18 +0000";
layers = (
{
layerId = "A9B054E9-1A63-4AEF-9EE1-561B1DFE8422";
paths = (
{
closed = 1;
nodes = (
"915 417 LINE",
"345 618 LINE",
"915 823 LINE",
"915 1103 LINE",
"54 738 LINE",
"54 502 LINE",
"915 137 LINE"
);
}
);
userData = {
assembly = "SVTCA[0]	/* SetFreedomAndProjectionVectorToAxis */
PUSHB[ ]	/* 1 value pushed */
0 
RCVT[ ]	/* ReadCVT */
IF[ ]	/* If */
PUSHB[ ]	/* 1 value pushed */
5 
MDAP[1]	/* MoveDirectAbsPt */
ELSE[ ]	/* Else */
PUSHB[ ]	/* 2 values pushed */
5 26 
MIAP[0]	/* MoveIndirectAbsPt */
EIF[ ]	/* EndIf */
PUSHB[ ]	/* 1 value pushed */
2 
MDRP[10000]	/* MoveDirectRelPt */
PUSHB[ ]	/* 1 value pushed */
2 
MDAP[1]	/* MoveDirectAbsPt */
IUP[0]	/* InterpolateUntPts */
IUP[1]	/* InterpolateUntPts */";
};
width = 1042;
},
{
layerId = m002;
paths = (
{
closed = 1;
nodes = (
"890 391 LINE",
"264 644 LINE",
"890 902 LINE",
"890 1098 LINE",
"72 720 LINE",
"72 574 LINE",
"890 195 LINE"
);
}
);
userData = {
assembly = "SVTCA[0]	/* SetFreedomAndProjectionVectorToAxis */
PUSHB[ ]	/* 1 value pushed */
0 
RCVT[ ]	/* ReadCVT */
IF[ ]	/* If */
PUSHB[ ]	/* 1 value pushed */
5 
MDAP[1]	/* MoveDirectAbsPt */
ELSE[ ]	/* Else */
PUSHB[ ]	/* 2 values pushed */
5 26 
MIAP[0]	/* MoveIndirectAbsPt */
EIF[ ]	/* EndIf */
PUSHB[ ]	/* 1 value pushed */
2 
MDRP[10000]	/* MoveDirectRelPt */
PUSHB[ ]	/* 1 value pushed */
2 
MDAP[1]	/* MoveDirectAbsPt */
IUP[0]	/* InterpolateUntPts */
IUP[1]	/* InterpolateUntPts */";
};
width = 1041;
},
{
layerId = m003;
paths = (
{
closed = 1;
nodes = (
"919 321 LINE",
"155 666 LINE",
"919 1011 LINE",
"919 1069 LINE",
"82 691 LINE",
"82 641 LINE",
"919 262 LINE"
);
}
);
userData = {
assembly = "SVTCA[0]	/* SetFreedomAndProjectionVectorToAxis */
PUSHB[ ]	/* 1 value pushed */
0 
RCVT[ ]	/* ReadCVT */
IF[ ]	/* If */
PUSHB[ ]	/* 1 value pushed */
5 
MDAP[1]	/* MoveDirectAbsPt */
ELSE[ ]	/* Else */
PUSHB[ ]	/* 2 values pushed */
5 26 
MIAP[0]	/* MoveIndirectAbsPt */
EIF[ ]	/* EndIf */
PUSHB[ ]	/* 1 value pushed */
2 
MDRP[10000]	/* MoveDirectRelPt */
PUSHB[ ]	/* 1 value pushed */
2 
MDAP[1]	/* MoveDirectAbsPt */
IUP[0]	/* InterpolateUntPts */
IUP[1]	/* InterpolateUntPts */";
};
width = 1053;
}
);
note = uni003C;
unicode = 003C;
},
{
glyphname = equal;
lastChange = "2020-12-06 18:37:19 +0000";
layers = (
{
layerId = "A9B054E9-1A63-4AEF-9EE1-561B1DFE8422";
paths = (
{
closed = 1;
nodes = (
"1030 746 LINE",
"1030 982 LINE",
"136 982 LINE",
"136 746 LINE"
);
},
{
closed = 1;
nodes = (
"1030 313 LINE",
"1030 549 LINE",
"136 549 LINE",
"136 313 LINE"
);
}
);
userData = {
assembly = "SVTCA[0]	/* SetFreedomAndProjectionVectorToAxis */
PUSHB[ ]	/* 1 value pushed */
7 
MDAP[1]	/* MoveDirectAbsPt */
PUSHB[ ]	/* 1 value pushed */
3 
MDRP[10000]	/* MoveDirectRelPt */
PUSHB[ ]	/* 1 value pushed */
3 
MDAP[1]	/* MoveDirectAbsPt */
PUSHB[ ]	/* 2 values pushed */
0 1 
PUSHB[ ]	/* 1 value pushed */
10 
CALL[ ]	/* CallFunction */
IF[ ]	/* If */
POP[ ]	/* PopTopStack */
MDRP[11000]	/* MoveDirectRelPt */
ELSE[ ]	/* Else */
MIRP[10100]	/* MoveIndirectRelPt */
EIF[ ]	/* EndIf */
PUSHB[ ]	/* 1 value pushed */
7 
SRP0[ ]	/* SetRefPoint0 */
PUSHB[ ]	/* 2 values pushed */
4 1 
PUSHB[ ]	/* 1 value pushed */
10 
CALL[ ]	/* CallFunction */
IF[ ]	/* If */
POP[ ]	/* PopTopStack */
MDRP[11000]	/* MoveDirectRelPt */
ELSE[ ]	/* Else */
MIRP[10100]	/* MoveIndirectRelPt */
EIF[ ]	/* EndIf */
IUP[0]	/* InterpolateUntPts */
IUP[1]	/* InterpolateUntPts */";
};
width = 1172;
},
{
layerId = m002;
paths = (
{
closed = 1;
nodes = (
"986 814 LINE",
"986 975 LINE",
"152 975 LINE",
"152 814 LINE"
);
},
{
closed = 1;
nodes = (
"986 399 LINE",
"986 559 LINE",
"152 559 LINE",
"152 399 LINE"
);
}
);
userData = {
assembly = "SVTCA[0]	/* SetFreedomAndProjectionVectorToAxis */
PUSHB[ ]	/* 1 value pushed */
7 
MDAP[1]	/* MoveDirectAbsPt */
PUSHB[ ]	/* 1 value pushed */
3 
MDRP[10000]	/* MoveDirectRelPt */
PUSHB[ ]	/* 1 value pushed */
3 
MDAP[1]	/* MoveDirectAbsPt */
PUSHB[ ]	/* 2 values pushed */
0 1 
PUSHB[ ]	/* 1 value pushed */
10 
CALL[ ]	/* CallFunction */
IF[ ]	/* If */
POP[ ]	/* PopTopStack */
MDRP[11000]	/* MoveDirectRelPt */
ELSE[ ]	/* Else */
MIRP[10100]	/* MoveIndirectRelPt */
EIF[ ]	/* EndIf */
PUSHB[ ]	/* 1 value pushed */
7 
SRP0[ ]	/* SetRefPoint0 */
PUSHB[ ]	/* 2 values pushed */
4 1 
PUSHB[ ]	/* 1 value pushed */
10 
CALL[ ]	/* CallFunction */
IF[ ]	/* If */
POP[ ]	/* PopTopStack */
MDRP[11000]	/* MoveDirectRelPt */
ELSE[ ]	/* Else */
MIRP[10100]	/* MoveIndirectRelPt */
EIF[ ]	/* EndIf */
IUP[0]	/* InterpolateUntPts */
IUP[1]	/* InterpolateUntPts */";
};
width = 1124;
},
{
layerId = m003;
paths = (
{
closed = 1;
nodes = (
"981 843 LINE",
"981 897 LINE",
"147 897 LINE",
"147 843 LINE"
);
},
{
closed = 1;
nodes = (
"981 436 LINE",
"981 490 LINE",
"147 490 LINE",
"147 436 LINE"
);
}
);
userData = {
assembly = "SVTCA[0]	/* SetFreedomAndProjectionVectorToAxis */
PUSHB[ ]	/* 1 value pushed */
7 
MDAP[1]	/* MoveDirectAbsPt */
PUSHB[ ]	/* 1 value pushed */
3 
MDRP[10000]	/* MoveDirectRelPt */
PUSHB[ ]	/* 1 value pushed */
3 
MDAP[1]	/* MoveDirectAbsPt */
PUSHB[ ]	/* 2 values pushed */
0 1 
PUSHB[ ]	/* 1 value pushed */
10 
CALL[ ]	/* CallFunction */
IF[ ]	/* If */
POP[ ]	/* PopTopStack */
MDRP[11000]	/* MoveDirectRelPt */
ELSE[ ]	/* Else */
MIRP[10100]	/* MoveIndirectRelPt */
EIF[ ]	/* EndIf */
PUSHB[ ]	/* 1 value pushed */
7 
SRP0[ ]	/* SetRefPoint0 */
PUSHB[ ]	/* 2 values pushed */
4 1 
PUSHB[ ]	/* 1 value pushed */
10 
CALL[ ]	/* CallFunction */
IF[ ]	/* If */
POP[ ]	/* PopTopStack */
MDRP[11000]	/* MoveDirectRelPt */
ELSE[ ]	/* Else */
MIRP[10100]	/* MoveIndirectRelPt */
EIF[ ]	/* EndIf */
IUP[0]	/* InterpolateUntPts */
IUP[1]	/* InterpolateUntPts */";
};
width = 1142;
}
);
note = uni003D;
unicode = 003D;
},
{
glyphname = greater;
lastChange = "2020-12-06 18:37:18 +0000";
layers = (
{
layerId = "A9B054E9-1A63-4AEF-9EE1-561B1DFE8422";
paths = (
{
closed = 1;
nodes = (
"991 502 LINE",
"991 737 LINE",
"120 1102 LINE",
"120 824 LINE",
"701 621 LINE",
"120 415 LINE",
"120 136 LINE"
);
}
);
userData = {
assembly = "SVTCA[0]	/* SetFreedomAndProjectionVectorToAxis */
PUSHB[ ]	/* 1 value pushed */
0 
RCVT[ ]	/* ReadCVT */
IF[ ]	/* If */
PUSHB[ ]	/* 1 value pushed */
2 
MDAP[1]	/* MoveDirectAbsPt */
ELSE[ ]	/* Else */
PUSHB[ ]	/* 2 values pushed */
2 26 
MIAP[0]	/* MoveIndirectAbsPt */
EIF[ ]	/* EndIf */
PUSHB[ ]	/* 1 value pushed */
5 
MDRP[10000]	/* MoveDirectRelPt */
PUSHB[ ]	/* 1 value pushed */
5 
MDAP[1]	/* MoveDirectAbsPt */
IUP[0]	/* InterpolateUntPts */
IUP[1]	/* InterpolateUntPts */";
};
width = 1058;
},
{
layerId = m002;
paths = (
{
closed = 1;
nodes = (
"988 575 LINE",
"988 721 LINE",
"134 1099 LINE",
"134 909 LINE",
"795 650 LINE",
"134 388 LINE",
"134 196 LINE"
);
}
);
userData = {
assembly = "SVTCA[0]	/* SetFreedomAndProjectionVectorToAxis */
PUSHB[ ]	/* 1 value pushed */
0 
RCVT[ ]	/* ReadCVT */
IF[ ]	/* If */
PUSHB[ ]	/* 1 value pushed */
2 
MDAP[1]	/* MoveDirectAbsPt */
ELSE[ ]	/* Else */
PUSHB[ ]	/* 2 values pushed */
2 26 
MIAP[0]	/* MoveIndirectAbsPt */
EIF[ ]	/* EndIf */
PUSHB[ ]	/* 1 value pushed */
5 
MDRP[10000]	/* MoveDirectRelPt */
PUSHB[ ]	/* 1 value pushed */
5 
MDAP[1]	/* MoveDirectAbsPt */
IUP[0]	/* InterpolateUntPts */
IUP[1]	/* InterpolateUntPts */";
};
width = 1070;
},
{
layerId = m003;
paths = (
{
closed = 1;
nodes = (
"950 644 LINE",
"950 694 LINE",
"114 1072 LINE",
"114 1013 LINE",
"872 668 LINE",
"114 324 LINE",
"114 265 LINE"
);
}
);
userData = {
assembly = "SVTCA[0]	/* SetFreedomAndProjectionVectorToAxis */
PUSHB[ ]	/* 1 value pushed */
0 
RCVT[ ]	/* ReadCVT */
IF[ ]	/* If */
PUSHB[ ]	/* 1 value pushed */
2 
MDAP[1]	/* MoveDirectAbsPt */
ELSE[ ]	/* Else */
PUSHB[ ]	/* 2 values pushed */
2 26 
MIAP[0]	/* MoveIndirectAbsPt */
EIF[ ]	/* EndIf */
PUSHB[ ]	/* 1 value pushed */
5 
MDRP[10000]	/* MoveDirectRelPt */
PUSHB[ ]	/* 1 value pushed */
5 
MDAP[1]	/* MoveDirectAbsPt */
IUP[0]	/* InterpolateUntPts */
IUP[1]	/* InterpolateUntPts */";
};
width = 1053;
}
);
note = uni003E;
unicode = 003E;
},
{
glyphname = question;
lastChange = "2020-12-09 02:45:10 +0000";
layers = (
{
layerId = "A9B054E9-1A63-4AEF-9EE1-561B1DFE8422";
paths = (
{
closed = 1;
nodes = (
"603 447 LINE",
"614.333 573.333 OFFCURVE",
"643 630 OFFCURVE",
"694 679 CURVE SMOOTH",
"902 879 OFFCURVE",
"946 970.667 OFFCURVE",
"946 1084 CURVE SMOOTH",
"946 1333.333 OFFCURVE",
"782.667 1476 OFFCURVE",
"500 1476 CURVE SMOOTH",
"220 1476 OFFCURVE",
"47.667 1323.667 OFFCURVE",
"45 1069 CURVE",
"335 1069 LINE",
"337.667 1175.667 OFFCURVE",
"401.333 1240 OFFCURVE",
"500 1240 CURVE SMOOTH",
"604 1240 OFFCURVE",
"656 1183.667 OFFCURVE",
"656 1071 CURVE SMOOTH",
"656 996.333 OFFCURVE",
"626.167 940.833 OFFCURVE",
"505.5 833.5 CURVE SMOOTH",
"384.833 726.167 OFFCURVE",
"347 633.667 OFFCURVE",
"347 447 CURVE"
);
},
{
closed = 1;
nodes = (
"577.333 -12 OFFCURVE",
"642 52 OFFCURVE",
"642 140 CURVE SMOOTH",
"642 229.333 OFFCURVE",
"574.667 294 OFFCURVE",
"480 294 CURVE SMOOTH",
"385.333 294 OFFCURVE",
"318 229.333 OFFCURVE",
"318 140 CURVE SMOOTH",
"318 52 OFFCURVE",
"382.667 -12 OFFCURVE",
"480 -12 CURVE SMOOTH"
);
}
);
userData = {
assembly = "SVTCA[0]	/* SetFreedomAndProjectionVectorToAxis */
PUSHB[ ]	/* 1 value pushed */
0 
RCVT[ ]	/* ReadCVT */
IF[ ]	/* If */
PUSHB[ ]	/* 1 value pushed */
16 
MDAP[1]	/* MoveDirectAbsPt */
ELSE[ ]	/* Else */
PUSHB[ ]	/* 2 values pushed */
16 30 
MIAP[0]	/* MoveIndirectAbsPt */
EIF[ ]	/* EndIf */
PUSHB[ ]	/* 1 value pushed */
0 
RCVT[ ]	/* ReadCVT */
IF[ ]	/* If */
PUSHB[ ]	/* 1 value pushed */
32 
MDAP[1]	/* MoveDirectAbsPt */
ELSE[ ]	/* Else */
PUSHB[ ]	/* 2 values pushed */
32 18 
MIAP[0]	/* MoveIndirectAbsPt */
EIF[ ]	/* EndIf */
PUSHB[ ]	/* 2 values pushed */
27 5 
PUSHB[ ]	/* 1 value pushed */
10 
CALL[ ]	/* CallFunction */
IF[ ]	/* If */
POP[ ]	/* PopTopStack */
MDRP[11000]	/* MoveDirectRelPt */
ELSE[ ]	/* Else */
MIRP[10100]	/* MoveIndirectRelPt */
EIF[ ]	/* EndIf */
PUSHB[ ]	/* 3 values pushed */
0 27 16 
SRP1[ ]	/* SetRefPoint1 */
SRP2[ ]	/* SetRefPoint2 */
IP[ ]	/* InterpolatePts */
PUSHB[ ]	/* 3 values pushed */
4 16 0 
SRP1[ ]	/* SetRefPoint1 */
SRP2[ ]	/* SetRefPoint2 */
IP[ ]	/* InterpolatePts */
PUSHB[ ]	/* 1 value pushed */
16 
SRP0[ ]	/* SetRefPoint0 */
PUSHB[ ]	/* 2 values pushed */
9 1 
PUSHB[ ]	/* 1 value pushed */
10 
CALL[ ]	/* CallFunction */
IF[ ]	/* If */
POP[ ]	/* PopTopStack */
MDRP[11000]	/* MoveDirectRelPt */
ELSE[ ]	/* Else */
MIRP[10100]	/* MoveIndirectRelPt */
EIF[ ]	/* EndIf */
PUSHB[ ]	/* 1 value pushed */
16 
SRP0[ ]	/* SetRefPoint0 */
PUSHB[ ]	/* 1 value pushed */
12 
MDRP[10000]	/* MoveDirectRelPt */
PUSHB[ ]	/* 3 values pushed */
21 0 16 
SRP1[ ]	/* SetRefPoint1 */
SRP2[ ]	/* SetRefPoint2 */
IP[ ]	/* InterpolatePts */
IUP[0]	/* InterpolateUntPts */
IUP[1]	/* InterpolateUntPts */";
};
width = 1019;
},
{
layerId = m002;
paths = (
{
closed = 1;
nodes = (
"542 410 LINE",
"542 511.333 OFFCURVE",
"566.333 589 OFFCURVE",
"724 751 CURVE SMOOTH",
"832 864.333 OFFCURVE",
"886 979.333 OFFCURVE",
"886 1096 CURVE SMOOTH",
"886 1332 OFFCURVE",
"738 1476 OFFCURVE",
"486 1476 CURVE SMOOTH",
"243.333 1476 OFFCURVE",
"77.667 1331 OFFCURVE",
"75 1115 CURVE",
"260 1115 LINE",
"260 1236.333 OFFCURVE",
"350 1314 OFFCURVE",
"486 1314 CURVE SMOOTH",
"626 1314 OFFCURVE",
"701 1230 OFFCURVE",
"701 1090 CURVE SMOOTH",
"701 1017.333 OFFCURVE",
"673 950 OFFCURVE",
"486 751 CURVE SMOOTH",
"382 640 OFFCURVE",
"359.667 568.667 OFFCURVE",
"357 410 CURVE"
);
},
{
closed = 1;
nodes = (
"530 -11 OFFCURVE",
"568 33 OFFCURVE",
"568 93 CURVE SMOOTH",
"568 153 OFFCURVE",
"530 199 OFFCURVE",
"458 199 CURVE SMOOTH",
"386 199 OFFCURVE",
"349 153 OFFCURVE",
"349 93 CURVE SMOOTH",
"349 33 OFFCURVE",
"386 -11 OFFCURVE",
"458 -11 CURVE SMOOTH"
);
}
);
userData = {
assembly = "SVTCA[0]	/* SetFreedomAndProjectionVectorToAxis */
PUSHB[ ]	/* 1 value pushed */
0 
RCVT[ ]	/* ReadCVT */
IF[ ]	/* If */
PUSHB[ ]	/* 1 value pushed */
16 
MDAP[1]	/* MoveDirectAbsPt */
ELSE[ ]	/* Else */
PUSHB[ ]	/* 2 values pushed */
16 30 
MIAP[0]	/* MoveIndirectAbsPt */
EIF[ ]	/* EndIf */
PUSHB[ ]	/* 1 value pushed */
0 
RCVT[ ]	/* ReadCVT */
IF[ ]	/* If */
PUSHB[ ]	/* 1 value pushed */
32 
MDAP[1]	/* MoveDirectAbsPt */
ELSE[ ]	/* Else */
PUSHB[ ]	/* 2 values pushed */
32 18 
MIAP[0]	/* MoveIndirectAbsPt */
EIF[ ]	/* EndIf */
PUSHB[ ]	/* 2 values pushed */
27 5 
PUSHB[ ]	/* 1 value pushed */
10 
CALL[ ]	/* CallFunction */
IF[ ]	/* If */
POP[ ]	/* PopTopStack */
MDRP[11000]	/* MoveDirectRelPt */
ELSE[ ]	/* Else */
MIRP[10100]	/* MoveIndirectRelPt */
EIF[ ]	/* EndIf */
PUSHB[ ]	/* 3 values pushed */
0 27 16 
SRP1[ ]	/* SetRefPoint1 */
SRP2[ ]	/* SetRefPoint2 */
IP[ ]	/* InterpolatePts */
PUSHB[ ]	/* 3 values pushed */
4 16 0 
SRP1[ ]	/* SetRefPoint1 */
SRP2[ ]	/* SetRefPoint2 */
IP[ ]	/* InterpolatePts */
PUSHB[ ]	/* 1 value pushed */
16 
SRP0[ ]	/* SetRefPoint0 */
PUSHB[ ]	/* 2 values pushed */
9 1 
PUSHB[ ]	/* 1 value pushed */
10 
CALL[ ]	/* CallFunction */
IF[ ]	/* If */
POP[ ]	/* PopTopStack */
MDRP[11000]	/* MoveDirectRelPt */
ELSE[ ]	/* Else */
MIRP[10100]	/* MoveIndirectRelPt */
EIF[ ]	/* EndIf */
PUSHB[ ]	/* 1 value pushed */
16 
SRP0[ ]	/* SetRefPoint0 */
PUSHB[ ]	/* 1 value pushed */
12 
MDRP[10000]	/* MoveDirectRelPt */
PUSHB[ ]	/* 3 values pushed */
21 0 16 
SRP1[ ]	/* SetRefPoint1 */
SRP2[ ]	/* SetRefPoint2 */
IP[ ]	/* InterpolatePts */
IUP[0]	/* InterpolateUntPts */
IUP[1]	/* InterpolateUntPts */";
};
width = 967;
},
{
layerId = m003;
paths = (
{
closed = 1;
nodes = (
"449 400 LINE",
"449 530 OFFCURVE",
"493 629.333 OFFCURVE",
"581 698 CURVE",
"754.333 855.333 OFFCURVE",
"801 956.667 OFFCURVE",
"801 1110 CURVE SMOOTH",
"801 1334 OFFCURVE",
"667.333 1476 OFFCURVE",
"458 1476 CURVE SMOOTH",
"248.667 1476 OFFCURVE",
"95.667 1332 OFFCURVE",
"93 1116 CURVE",
"147 1116 LINE",
"149.667 1296 OFFCURVE",
"266 1423 OFFCURVE",
"458 1423 CURVE SMOOTH",
"638 1423 OFFCURVE",
"747 1305.333 OFFCURVE",
"747 1112 CURVE SMOOTH",
"747 933 OFFCURVE",
"676 854 OFFCURVE",
"552 739 CURVE SMOOTH",
"432 627 OFFCURVE",
"397.667 549.333 OFFCURVE",
"395 400 CURVE"
);
},
{
closed = 1;
nodes = (
"456.667 -6 OFFCURVE",
"482 18.333 OFFCURVE",
"482 49 CURVE SMOOTH",
"482 79.667 OFFCURVE",
"456.667 105 OFFCURVE",
"426 105 CURVE SMOOTH",
"395.333 105 OFFCURVE",
"371 79.667 OFFCURVE",
"371 49 CURVE SMOOTH",
"371 18.333 OFFCURVE",
"395.333 -6 OFFCURVE",
"426 -6 CURVE SMOOTH"
);
}
);
userData = {
assembly = "SVTCA[0]	/* SetFreedomAndProjectionVectorToAxis */
PUSHB[ ]	/* 1 value pushed */
0 
RCVT[ ]	/* ReadCVT */
IF[ ]	/* If */
PUSHB[ ]	/* 1 value pushed */
16 
MDAP[1]	/* MoveDirectAbsPt */
ELSE[ ]	/* Else */
PUSHB[ ]	/* 2 values pushed */
16 30 
MIAP[0]	/* MoveIndirectAbsPt */
EIF[ ]	/* EndIf */
PUSHB[ ]	/* 1 value pushed */
0 
RCVT[ ]	/* ReadCVT */
IF[ ]	/* If */
PUSHB[ ]	/* 1 value pushed */
32 
MDAP[1]	/* MoveDirectAbsPt */
ELSE[ ]	/* Else */
PUSHB[ ]	/* 2 values pushed */
32 18 
MIAP[0]	/* MoveIndirectAbsPt */
EIF[ ]	/* EndIf */
PUSHB[ ]	/* 2 values pushed */
27 5 
PUSHB[ ]	/* 1 value pushed */
10 
CALL[ ]	/* CallFunction */
IF[ ]	/* If */
POP[ ]	/* PopTopStack */
MDRP[11000]	/* MoveDirectRelPt */
ELSE[ ]	/* Else */
MIRP[10100]	/* MoveIndirectRelPt */
EIF[ ]	/* EndIf */
PUSHB[ ]	/* 3 values pushed */
0 27 16 
SRP1[ ]	/* SetRefPoint1 */
SRP2[ ]	/* SetRefPoint2 */
IP[ ]	/* InterpolatePts */
PUSHB[ ]	/* 3 values pushed */
4 16 0 
SRP1[ ]	/* SetRefPoint1 */
SRP2[ ]	/* SetRefPoint2 */
IP[ ]	/* InterpolatePts */
PUSHB[ ]	/* 1 value pushed */
16 
SRP0[ ]	/* SetRefPoint0 */
PUSHB[ ]	/* 2 values pushed */
9 1 
PUSHB[ ]	/* 1 value pushed */
10 
CALL[ ]	/* CallFunction */
IF[ ]	/* If */
POP[ ]	/* PopTopStack */
MDRP[11000]	/* MoveDirectRelPt */
ELSE[ ]	/* Else */
MIRP[10100]	/* MoveIndirectRelPt */
EIF[ ]	/* EndIf */
PUSHB[ ]	/* 1 value pushed */
16 
SRP0[ ]	/* SetRefPoint0 */
PUSHB[ ]	/* 1 value pushed */
12 
MDRP[10000]	/* MoveDirectRelPt */
PUSHB[ ]	/* 3 values pushed */
21 0 16 
SRP1[ ]	/* SetRefPoint1 */
SRP2[ ]	/* SetRefPoint2 */
IP[ ]	/* InterpolatePts */
IUP[0]	/* InterpolateUntPts */
IUP[1]	/* InterpolateUntPts */";
};
width = 893;
}
);
note = uni003F;
unicode = 003F;
},
{
glyphname = at;
lastChange = "2020-12-09 22:12:54 +0000";
layers = (
{
layerId = "A9B054E9-1A63-4AEF-9EE1-561B1DFE8422";
paths = (
{
closed = 1;
nodes = (
"1034 -453 OFFCURVE",
"1185.667 -417.333 OFFCURVE",
"1267 -364 CURVE",
"1229 -210 LINE",
"1141 -251.333 OFFCURVE",
"1008.667 -278 OFFCURVE",
"898 -278 CURVE SMOOTH",
"478 -278 OFFCURVE",
"261.667 -9 OFFCURVE",
"283 463 CURVE SMOOTH",
"297.667 773.667 OFFCURVE",
"417.667 1024.333 OFFCURVE",
"619 1155 CURVE SMOOTH",
"719.667 1220.333 OFFCURVE",
"834.333 1253 OFFCURVE",
"963 1253 CURVE SMOOTH",
"1375 1253 OFFCURVE",
"1592.667 994.333 OFFCURVE",
"1570 529 CURVE SMOOTH",
"1562 297 OFFCURVE",
"1470.667 140 OFFCURVE",
"1348 140 CURVE SMOOTH",
"1268 140 OFFCURVE",
"1229.667 197.667 OFFCURVE",
"1243 303 CURVE",
"1294 881 LINE",
"1163.667 968 OFFCURVE",
"1082.333 990 OFFCURVE",
"987 990 CURVE SMOOTH",
"832.333 990 OFFCURVE",
"692.833 894.833 OFFCURVE",
"605.5 723.5 CURVE SMOOTH",
"561.833 637.833 OFFCURVE",
"534 540 OFFCURVE",
"522 430 CURVE SMOOTH",
"495.333 160.667 OFFCURVE",
"613.333 -18 OFFCURVE",
"808 -18 CURVE SMOOTH",
"915.333 -18 OFFCURVE",
"1002.333 28.667 OFFCURVE",
"1069 122 CURVE",
"1111.667 30 OFFCURVE",
"1197.333 -21 OFFCURVE",
"1312 -21 CURVE SMOOTH",
"1572 -21 OFFCURVE",
"1734.333 194.667 OFFCURVE",
"1749 536 CURVE SMOOTH",
"1777.543 1265.23 OFFCURVE",
"1167 1416 OFFCURVE",
"967 1416 CURVE SMOOTH",
"637.667 1416 OFFCURVE",
"365 1250 OFFCURVE",
"213 958 CURVE SMOOTH",
"137 812 OFFCURVE",
"95 647 OFFCURVE",
"87 463 CURVE SMOOTH",
"71 79 OFFCURVE",
"196 -204.5 OFFCURVE",
"444 -346.5 CURVE SMOOTH",
"568 -417.5 OFFCURVE",
"718 -453 OFFCURVE",
"894 -453 CURVE SMOOTH"
);
},
{
closed = 1;
nodes = (
"775.667 161 OFFCURVE",
"729.333 254 OFFCURVE",
"744 430 CURVE SMOOTH",
"769.333 680.667 OFFCURVE",
"852 814 OFFCURVE",
"1005 814 CURVE SMOOTH",
"1032 814 OFFCURVE",
"1059 810 OFFCURVE",
"1085 801 CURVE",
"1043 328 LINE",
"1004.333 220 OFFCURVE",
"942.333 161 OFFCURVE",
"877 161 CURVE SMOOTH"
);
}
);
userData = {
assembly = "SVTCA[0]	/* SetFreedomAndProjectionVectorToAxis */
PUSHB[ ]	/* 1 value pushed */
50 
MDAP[1]	/* MoveDirectAbsPt */
PUSHB[ ]	/* 1 value pushed */
0 
RCVT[ ]	/* ReadCVT */
IF[ ]	/* If */
PUSHB[ ]	/* 1 value pushed */
8 
MDAP[1]	/* MoveDirectAbsPt */
ELSE[ ]	/* Else */
PUSHB[ ]	/* 2 values pushed */
8 18 
MIAP[0]	/* MoveIndirectAbsPt */
EIF[ ]	/* EndIf */
PUSHB[ ]	/* 1 value pushed */
3 
MDRP[10000]	/* MoveDirectRelPt */
PUSHB[ ]	/* 3 values pushed */
15 50 8 
SRP1[ ]	/* SetRefPoint1 */
SRP2[ ]	/* SetRefPoint2 */
IP[ ]	/* InterpolatePts */
PUSHB[ ]	/* 1 value pushed */
15 
MDAP[1]	/* MoveDirectAbsPt */
PUSHB[ ]	/* 3 values pushed */
5 8 15 
SRP1[ ]	/* SetRefPoint1 */
SRP2[ ]	/* SetRefPoint2 */
IP[ ]	/* InterpolatePts */
PUSHB[ ]	/* 1 value pushed */
8 
SRP0[ ]	/* SetRefPoint0 */
PUSHB[ ]	/* 2 values pushed */
57 2 
PUSHB[ ]	/* 1 value pushed */
10 
CALL[ ]	/* CallFunction */
IF[ ]	/* If */
POP[ ]	/* PopTopStack */
MDRP[11000]	/* MoveDirectRelPt */
ELSE[ ]	/* Else */
MIRP[10100]	/* MoveIndirectRelPt */
EIF[ ]	/* EndIf */
PUSHB[ ]	/* 1 value pushed */
21 
MDRP[10000]	/* MoveDirectRelPt */
PUSHB[ ]	/* 1 value pushed */
50 
SRP0[ ]	/* SetRefPoint0 */
PUSHB[ ]	/* 2 values pushed */
27 2 
PUSHB[ ]	/* 1 value pushed */
10 
CALL[ ]	/* CallFunction */
IF[ ]	/* If */
POP[ ]	/* PopTopStack */
MDRP[11000]	/* MoveDirectRelPt */
ELSE[ ]	/* Else */
MIRP[10100]	/* MoveIndirectRelPt */
EIF[ ]	/* EndIf */
PUSHB[ ]	/* 1 value pushed */
8 
SRP0[ ]	/* SetRefPoint0 */
PUSHB[ ]	/* 1 value pushed */
42 
MDRP[10000]	/* MoveDirectRelPt */
PUSHB[ ]	/* 1 value pushed */
42 
MDAP[1]	/* MoveDirectAbsPt */
PUSHB[ ]	/* 2 values pushed */
35 2 
PUSHB[ ]	/* 1 value pushed */
10 
CALL[ ]	/* CallFunction */
IF[ ]	/* If */
POP[ ]	/* PopTopStack */
MDRP[11000]	/* MoveDirectRelPt */
ELSE[ ]	/* Else */
MIRP[10100]	/* MoveIndirectRelPt */
EIF[ ]	/* EndIf */
PUSHB[ ]	/* 1 value pushed */
15 
SRP0[ ]	/* SetRefPoint0 */
PUSHB[ ]	/* 2 values pushed */
64 2 
PUSHB[ ]	/* 1 value pushed */
10 
CALL[ ]	/* CallFunction */
IF[ ]	/* If */
POP[ ]	/* PopTopStack */
MDRP[11000]	/* MoveDirectRelPt */
ELSE[ ]	/* Else */
MIRP[10100]	/* MoveIndirectRelPt */
EIF[ ]	/* EndIf */
IUP[0]	/* InterpolateUntPts */
IUP[1]	/* InterpolateUntPts */";
};
width = 1833;
},
{
layerId = m002;
paths = (
{
closed = 1;
nodes = (
"1035 -453 OFFCURVE",
"1184.333 -416 OFFCURVE",
"1267 -364 CURVE",
"1230 -249 LINE",
"1150 -295.667 OFFCURVE",
"1019 -328 OFFCURVE",
"899 -328 CURVE SMOOTH",
"443 -328 OFFCURVE",
"241 20 OFFCURVE",
"263 478 CURVE SMOOTH",
"277.667 806 OFFCURVE",
"402 1066.833 OFFCURVE",
"610 1199.5 CURVE SMOOTH",
"714 1265.833 OFFCURVE",
"833 1299 OFFCURVE",
"967 1299 CURVE SMOOTH",
"1412.333 1299 OFFCURVE",
"1634.333 1020.667 OFFCURVE",
"1609 502 CURVE SMOOTH",
"1601 262 OFFCURVE",
"1500.667 98 OFFCURVE",
"1350 98 CURVE SMOOTH",
"1252 98 OFFCURVE",
"1209.333 175 OFFCURVE",
"1222 329 CURVE SMOOTH",
"1274 883 LINE",
"1167.333 967 OFFCURVE",
"1093 989 OFFCURVE",
"985 989 CURVE SMOOTH",
"845 989 OFFCURVE",
"709.167 884.167 OFFCURVE",
"628.5 711.5 CURVE SMOOTH",
"588.167 625.167 OFFCURVE",
"563 527 OFFCURVE",
"553 417 CURVE SMOOTH",
"527.667 143.667 OFFCURVE",
"632.667 -20 OFFCURVE",
"822 -20 CURVE SMOOTH",
"920.667 -20 OFFCURVE",
"1017 34.667 OFFCURVE",
"1089 148 CURVE",
"1124.333 36 OFFCURVE",
"1204.333 -20 OFFCURVE",
"1329 -20 CURVE SMOOTH",
"1570.333 -20 OFFCURVE",
"1722 179.333 OFFCURVE",
"1738 502 CURVE SMOOTH",
"1754 879.333 OFFCURVE",
"1635.333 1169.667 OFFCURVE",
"1398 1319 CURVE SMOOTH",
"1279.333 1393.667 OFFCURVE",
"1137 1431 OFFCURVE",
"971 1431 CURVE SMOOTH",
"652.333 1431 OFFCURVE",
"389 1265.167 OFFCURVE",
"241 972.5 CURVE SMOOTH",
"167 826.167 OFFCURVE",
"126 661.333 OFFCURVE",
"118 478 CURVE SMOOTH",
"95 -59 OFFCURVE",
"358 -453 OFFCURVE",
"895 -453 CURVE SMOOTH"
);
},
{
closed = 1;
nodes = (
"749.667 123 OFFCURVE",
"693.333 227.667 OFFCURVE",
"712 417 CURVE SMOOTH",
"737.333 691.667 OFFCURVE",
"845 861 OFFCURVE",
"1001 861 CURVE SMOOTH",
"1043.667 861 OFFCURVE",
"1083.667 851.333 OFFCURVE",
"1121 832 CURVE",
"1074 320 LINE",
"1026 193.333 OFFCURVE",
"947 123 OFFCURVE",
"867 123 CURVE SMOOTH"
);
}
);
userData = {
assembly = "SVTCA[0]	/* SetFreedomAndProjectionVectorToAxis */
PUSHB[ ]	/* 1 value pushed */
50 
MDAP[1]	/* MoveDirectAbsPt */
PUSHB[ ]	/* 1 value pushed */
0 
RCVT[ ]	/* ReadCVT */
IF[ ]	/* If */
PUSHB[ ]	/* 1 value pushed */
8 
MDAP[1]	/* MoveDirectAbsPt */
ELSE[ ]	/* Else */
PUSHB[ ]	/* 2 values pushed */
8 18 
MIAP[0]	/* MoveIndirectAbsPt */
EIF[ ]	/* EndIf */
PUSHB[ ]	/* 1 value pushed */
3 
MDRP[10000]	/* MoveDirectRelPt */
PUSHB[ ]	/* 3 values pushed */
15 50 8 
SRP1[ ]	/* SetRefPoint1 */
SRP2[ ]	/* SetRefPoint2 */
IP[ ]	/* InterpolatePts */
PUSHB[ ]	/* 1 value pushed */
15 
MDAP[1]	/* MoveDirectAbsPt */
PUSHB[ ]	/* 3 values pushed */
5 8 15 
SRP1[ ]	/* SetRefPoint1 */
SRP2[ ]	/* SetRefPoint2 */
IP[ ]	/* InterpolatePts */
PUSHB[ ]	/* 1 value pushed */
8 
SRP0[ ]	/* SetRefPoint0 */
PUSHB[ ]	/* 2 values pushed */
57 2 
PUSHB[ ]	/* 1 value pushed */
10 
CALL[ ]	/* CallFunction */
IF[ ]	/* If */
POP[ ]	/* PopTopStack */
MDRP[11000]	/* MoveDirectRelPt */
ELSE[ ]	/* Else */
MIRP[10100]	/* MoveIndirectRelPt */
EIF[ ]	/* EndIf */
PUSHB[ ]	/* 1 value pushed */
21 
MDRP[10000]	/* MoveDirectRelPt */
PUSHB[ ]	/* 1 value pushed */
50 
SRP0[ ]	/* SetRefPoint0 */
PUSHB[ ]	/* 2 values pushed */
27 2 
PUSHB[ ]	/* 1 value pushed */
10 
CALL[ ]	/* CallFunction */
IF[ ]	/* If */
POP[ ]	/* PopTopStack */
MDRP[11000]	/* MoveDirectRelPt */
ELSE[ ]	/* Else */
MIRP[10100]	/* MoveIndirectRelPt */
EIF[ ]	/* EndIf */
PUSHB[ ]	/* 1 value pushed */
8 
SRP0[ ]	/* SetRefPoint0 */
PUSHB[ ]	/* 1 value pushed */
42 
MDRP[10000]	/* MoveDirectRelPt */
PUSHB[ ]	/* 1 value pushed */
42 
MDAP[1]	/* MoveDirectAbsPt */
PUSHB[ ]	/* 2 values pushed */
35 2 
PUSHB[ ]	/* 1 value pushed */
10 
CALL[ ]	/* CallFunction */
IF[ ]	/* If */
POP[ ]	/* PopTopStack */
MDRP[11000]	/* MoveDirectRelPt */
ELSE[ ]	/* Else */
MIRP[10100]	/* MoveIndirectRelPt */
EIF[ ]	/* EndIf */
PUSHB[ ]	/* 1 value pushed */
15 
SRP0[ ]	/* SetRefPoint0 */
PUSHB[ ]	/* 2 values pushed */
64 2 
PUSHB[ ]	/* 1 value pushed */
10 
CALL[ ]	/* CallFunction */
IF[ ]	/* If */
POP[ ]	/* PopTopStack */
MDRP[11000]	/* MoveDirectRelPt */
ELSE[ ]	/* Else */
MIRP[10100]	/* MoveIndirectRelPt */
EIF[ ]	/* EndIf */
IUP[0]	/* InterpolateUntPts */
IUP[1]	/* InterpolateUntPts */";
};
width = 1839;
},
{
layerId = m003;
paths = (
{
closed = 1;
nodes = (
"1030.333 -453 OFFCURVE",
"1181.667 -420 OFFCURVE",
"1267 -364 CURVE",
"1243 -318 LINE",
"1157.667 -367.333 OFFCURVE",
"1033 -398 OFFCURVE",
"913 -398 CURVE SMOOTH",
"419 -398 OFFCURVE",
"164 -10 OFFCURVE",
"187 478 CURVE SMOOTH",
"204.333 814 OFFCURVE",
"349 1092.667 OFFCURVE",
"593 1242 CURVE SMOOTH",
"715 1316.667 OFFCURVE",
"850.667 1354 OFFCURVE",
"1000 1354 CURVE SMOOTH",
"1494.667 1354 OFFCURVE",
"1742.333 1071 OFFCURVE",
"1713 523 CURVE SMOOTH",
"1698.333 216.333 OFFCURVE",
"1581.667 35 OFFCURVE",
"1403 35 CURVE SMOOTH",
"1272.333 35 OFFCURVE",
"1204.333 129 OFFCURVE",
"1219 293 CURVE SMOOTH",
"1268 878 LINE",
"1160.667 966 OFFCURVE",
"1094.667 988 OFFCURVE",
"1018 988 CURVE SMOOTH",
"945 988 OFFCURVE",
"878 966 OFFCURVE",
"819 925 CURVE SMOOTH",
"692 838 OFFCURVE",
"603 664 OFFCURVE",
"581 436 CURVE SMOOTH",
"557 160 OFFCURVE",
"650.667 -20 OFFCURVE",
"832 -20 CURVE SMOOTH",
"980.667 -20 OFFCURVE",
"1091.667 56.667 OFFCURVE",
"1165 210 CURVE",
"1179.667 66 OFFCURVE",
"1266.667 -20 OFFCURVE",
"1400 -20 CURVE SMOOTH",
"1654 -20 OFFCURVE",
"1762 277 OFFCURVE",
"1770 523 CURVE SMOOTH",
"1795.333 1095 OFFCURVE",
"1526.667 1411 OFFCURVE",
"1004 1411 CURVE SMOOTH",
"672 1411 OFFCURVE",
"403 1252.667 OFFCURVE",
"255 970 CURVE SMOOTH",
"181 828.667 OFFCURVE",
"140 664.667 OFFCURVE",
"132 478 CURVE SMOOTH",
"116 100.667 OFFCURVE",
"239 -190.5 OFFCURVE",
"479 -340.5 CURVE SMOOTH",
"599 -415.5 OFFCURVE",
"742.333 -453 OFFCURVE",
"909 -453 CURVE SMOOTH"
);
},
{
closed = 1;
nodes = (
"616 34 OFFCURVE",
"608 346 OFFCURVE",
"655 557 CURVE SMOOTH",
"708.333 791.667 OFFCURVE",
"845.667 933 OFFCURVE",
"1015 933 CURVE SMOOTH",
"1099.667 933 OFFCURVE",
"1165 905.667 OFFCURVE",
"1211 851 CURVE",
"1168 344 LINE",
"1100 137.333 OFFCURVE",
"996.667 34 OFFCURVE",
"830 34 CURVE SMOOTH"
);
}
);
userData = {
assembly = "SVTCA[0]	/* SetFreedomAndProjectionVectorToAxis */
PUSHB[ ]	/* 1 value pushed */
50 
MDAP[1]	/* MoveDirectAbsPt */
PUSHB[ ]	/* 1 value pushed */
0 
RCVT[ ]	/* ReadCVT */
IF[ ]	/* If */
PUSHB[ ]	/* 1 value pushed */
8 
MDAP[1]	/* MoveDirectAbsPt */
ELSE[ ]	/* Else */
PUSHB[ ]	/* 2 values pushed */
8 18 
MIAP[0]	/* MoveIndirectAbsPt */
EIF[ ]	/* EndIf */
PUSHB[ ]	/* 1 value pushed */
3 
MDRP[10000]	/* MoveDirectRelPt */
PUSHB[ ]	/* 3 values pushed */
15 50 8 
SRP1[ ]	/* SetRefPoint1 */
SRP2[ ]	/* SetRefPoint2 */
IP[ ]	/* InterpolatePts */
PUSHB[ ]	/* 1 value pushed */
15 
MDAP[1]	/* MoveDirectAbsPt */
PUSHB[ ]	/* 3 values pushed */
5 8 15 
SRP1[ ]	/* SetRefPoint1 */
SRP2[ ]	/* SetRefPoint2 */
IP[ ]	/* InterpolatePts */
PUSHB[ ]	/* 1 value pushed */
8 
SRP0[ ]	/* SetRefPoint0 */
PUSHB[ ]	/* 2 values pushed */
57 2 
PUSHB[ ]	/* 1 value pushed */
10 
CALL[ ]	/* CallFunction */
IF[ ]	/* If */
POP[ ]	/* PopTopStack */
MDRP[11000]	/* MoveDirectRelPt */
ELSE[ ]	/* Else */
MIRP[10100]	/* MoveIndirectRelPt */
EIF[ ]	/* EndIf */
PUSHB[ ]	/* 1 value pushed */
21 
MDRP[10000]	/* MoveDirectRelPt */
PUSHB[ ]	/* 1 value pushed */
50 
SRP0[ ]	/* SetRefPoint0 */
PUSHB[ ]	/* 2 values pushed */
27 2 
PUSHB[ ]	/* 1 value pushed */
10 
CALL[ ]	/* CallFunction */
IF[ ]	/* If */
POP[ ]	/* PopTopStack */
MDRP[11000]	/* MoveDirectRelPt */
ELSE[ ]	/* Else */
MIRP[10100]	/* MoveIndirectRelPt */
EIF[ ]	/* EndIf */
PUSHB[ ]	/* 1 value pushed */
8 
SRP0[ ]	/* SetRefPoint0 */
PUSHB[ ]	/* 1 value pushed */
42 
MDRP[10000]	/* MoveDirectRelPt */
PUSHB[ ]	/* 1 value pushed */
42 
MDAP[1]	/* MoveDirectAbsPt */
PUSHB[ ]	/* 2 values pushed */
35 2 
PUSHB[ ]	/* 1 value pushed */
10 
CALL[ ]	/* CallFunction */
IF[ ]	/* If */
POP[ ]	/* PopTopStack */
MDRP[11000]	/* MoveDirectRelPt */
ELSE[ ]	/* Else */
MIRP[10100]	/* MoveIndirectRelPt */
EIF[ ]	/* EndIf */
PUSHB[ ]	/* 1 value pushed */
15 
SRP0[ ]	/* SetRefPoint0 */
PUSHB[ ]	/* 2 values pushed */
64 2 
PUSHB[ ]	/* 1 value pushed */
10 
CALL[ ]	/* CallFunction */
IF[ ]	/* If */
POP[ ]	/* PopTopStack */
MDRP[11000]	/* MoveDirectRelPt */
ELSE[ ]	/* Else */
MIRP[10100]	/* MoveIndirectRelPt */
EIF[ ]	/* EndIf */
IUP[0]	/* InterpolateUntPts */
IUP[1]	/* InterpolateUntPts */";
};
width = 1902;
}
);
note = uni0040;
unicode = 0040;
},
{
glyphname = A;
lastChange = "2020-12-06 18:37:19 +0000";
layers = (
{
layerId = "A9B054E9-1A63-4AEF-9EE1-561B1DFE8422";
paths = (
{
closed = 1;
nodes = (
"326 0 LINE",
"426 300 LINE",
"952 300 LINE",
"1053 0 LINE",
"1372 0 LINE",
"827 1456 LINE",
"549 1456 LINE",
"7 0 LINE"
);
},
{
closed = 1;
nodes = (
"688 1088 LINE",
"871 543 LINE",
"507 543 LINE"
);
}
);
userData = {
assembly = "PUSHB[ ]	/* 3 values pushed */
10 11 12 
SRP1[ ]	/* SetRefPoint1 */
SRP2[ ]	/* SetRefPoint2 */
IP[ ]	/* InterpolatePts */
PUSHB[ ]	/* 1 value pushed */
10 
SRP0[ ]	/* SetRefPoint0 */
PUSHB[ ]	/* 1 value pushed */
4 
MDRP[10000]	/* MoveDirectRelPt */
SVTCA[0]	/* SetFreedomAndProjectionVectorToAxis */
PUSHB[ ]	/* 1 value pushed */
0 
RCVT[ ]	/* ReadCVT */
IF[ ]	/* If */
PUSHB[ ]	/* 1 value pushed */
4 
MDAP[1]	/* MoveDirectAbsPt */
ELSE[ ]	/* Else */
PUSHB[ ]	/* 2 values pushed */
4 30 
MIAP[0]	/* MoveIndirectAbsPt */
EIF[ ]	/* EndIf */
PUSHB[ ]	/* 1 value pushed */
0 
RCVT[ ]	/* ReadCVT */
IF[ ]	/* If */
PUSHB[ ]	/* 1 value pushed */
2 
MDAP[1]	/* MoveDirectAbsPt */
ELSE[ ]	/* Else */
PUSHB[ ]	/* 2 values pushed */
2 18 
MIAP[0]	/* MoveIndirectAbsPt */
EIF[ ]	/* EndIf */
PUSHB[ ]	/* 1 value pushed */
0 
RCVT[ ]	/* ReadCVT */
IF[ ]	/* If */
PUSHB[ ]	/* 1 value pushed */
6 
MDAP[1]	/* MoveDirectAbsPt */
ELSE[ ]	/* Else */
PUSHB[ ]	/* 2 values pushed */
6 18 
MIAP[0]	/* MoveIndirectAbsPt */
EIF[ ]	/* EndIf */
PUSHB[ ]	/* 3 values pushed */
8 4 2 
SRP1[ ]	/* SetRefPoint1 */
SRP2[ ]	/* SetRefPoint2 */
IP[ ]	/* InterpolatePts */
PUSHB[ ]	/* 1 value pushed */
8 
MDAP[1]	/* MoveDirectAbsPt */
PUSHB[ ]	/* 2 values pushed */
0 1 
PUSHB[ ]	/* 1 value pushed */
10 
CALL[ ]	/* CallFunction */
IF[ ]	/* If */
POP[ ]	/* PopTopStack */
MDRP[11000]	/* MoveDirectRelPt */
ELSE[ ]	/* Else */
MIRP[10100]	/* MoveIndirectRelPt */
EIF[ ]	/* EndIf */
PUSHB[ ]	/* 3 values pushed */
10 4 2 
SRP1[ ]	/* SetRefPoint1 */
SRP2[ ]	/* SetRefPoint2 */
IP[ ]	/* InterpolatePts */
IUP[0]	/* InterpolateUntPts */
IUP[1]	/* InterpolateUntPts */";
};
width = 1378;
},
{
layerId = m002;
paths = (
{
closed = 1;
nodes = (
"226 0 LINE",
"363 380 LINE",
"973 380 LINE",
"1112 0 LINE",
"1309 0 LINE",
"752 1456 LINE",
"584 1456 LINE",
"28 0 LINE"
);
},
{
closed = 1;
nodes = (
"668 1219 LINE",
"916 538 LINE",
"421 538 LINE"
);
}
);
userData = {
assembly = "PUSHB[ ]	/* 3 values pushed */
10 11 12 
SRP1[ ]	/* SetRefPoint1 */
SRP2[ ]	/* SetRefPoint2 */
IP[ ]	/* InterpolatePts */
PUSHB[ ]	/* 1 value pushed */
10 
SRP0[ ]	/* SetRefPoint0 */
PUSHB[ ]	/* 1 value pushed */
4 
MDRP[10000]	/* MoveDirectRelPt */
SVTCA[0]	/* SetFreedomAndProjectionVectorToAxis */
PUSHB[ ]	/* 1 value pushed */
0 
RCVT[ ]	/* ReadCVT */
IF[ ]	/* If */
PUSHB[ ]	/* 1 value pushed */
4 
MDAP[1]	/* MoveDirectAbsPt */
ELSE[ ]	/* Else */
PUSHB[ ]	/* 2 values pushed */
4 30 
MIAP[0]	/* MoveIndirectAbsPt */
EIF[ ]	/* EndIf */
PUSHB[ ]	/* 1 value pushed */
0 
RCVT[ ]	/* ReadCVT */
IF[ ]	/* If */
PUSHB[ ]	/* 1 value pushed */
2 
MDAP[1]	/* MoveDirectAbsPt */
ELSE[ ]	/* Else */
PUSHB[ ]	/* 2 values pushed */
2 18 
MIAP[0]	/* MoveIndirectAbsPt */
EIF[ ]	/* EndIf */
PUSHB[ ]	/* 1 value pushed */
0 
RCVT[ ]	/* ReadCVT */
IF[ ]	/* If */
PUSHB[ ]	/* 1 value pushed */
6 
MDAP[1]	/* MoveDirectAbsPt */
ELSE[ ]	/* Else */
PUSHB[ ]	/* 2 values pushed */
6 18 
MIAP[0]	/* MoveIndirectAbsPt */
EIF[ ]	/* EndIf */
PUSHB[ ]	/* 3 values pushed */
8 4 2 
SRP1[ ]	/* SetRefPoint1 */
SRP2[ ]	/* SetRefPoint2 */
IP[ ]	/* InterpolatePts */
PUSHB[ ]	/* 1 value pushed */
8 
MDAP[1]	/* MoveDirectAbsPt */
PUSHB[ ]	/* 2 values pushed */
0 1 
PUSHB[ ]	/* 1 value pushed */
10 
CALL[ ]	/* CallFunction */
IF[ ]	/* If */
POP[ ]	/* PopTopStack */
MDRP[11000]	/* MoveDirectRelPt */
ELSE[ ]	/* Else */
MIRP[10100]	/* MoveIndirectRelPt */
EIF[ ]	/* EndIf */
PUSHB[ ]	/* 3 values pushed */
10 4 2 
SRP1[ ]	/* SetRefPoint1 */
SRP2[ ]	/* SetRefPoint2 */
IP[ ]	/* InterpolatePts */
IUP[0]	/* InterpolateUntPts */
IUP[1]	/* InterpolateUntPts */";
};
width = 1336;
},
{
layerId = m003;
paths = (
{
closed = 1;
nodes = (
"92 0 LINE",
"254 435 LINE",
"967 435 LINE",
"1130 0 LINE",
"1189 0 LINE",
"644 1456 LINE",
"578 1456 LINE",
"33 0 LINE"
);
},
{
closed = 1;
nodes = (
"611 1391 LINE",
"947 489 LINE",
"274 489 LINE"
);
}
);
userData = {
assembly = "PUSHB[ ]	/* 3 values pushed */
10 11 12 
SRP1[ ]	/* SetRefPoint1 */
SRP2[ ]	/* SetRefPoint2 */
IP[ ]	/* InterpolatePts */
PUSHB[ ]	/* 1 value pushed */
10 
SRP0[ ]	/* SetRefPoint0 */
PUSHB[ ]	/* 1 value pushed */
4 
MDRP[10000]	/* MoveDirectRelPt */
SVTCA[0]	/* SetFreedomAndProjectionVectorToAxis */
PUSHB[ ]	/* 1 value pushed */
0 
RCVT[ ]	/* ReadCVT */
IF[ ]	/* If */
PUSHB[ ]	/* 1 value pushed */
4 
MDAP[1]	/* MoveDirectAbsPt */
ELSE[ ]	/* Else */
PUSHB[ ]	/* 2 values pushed */
4 30 
MIAP[0]	/* MoveIndirectAbsPt */
EIF[ ]	/* EndIf */
PUSHB[ ]	/* 1 value pushed */
0 
RCVT[ ]	/* ReadCVT */
IF[ ]	/* If */
PUSHB[ ]	/* 1 value pushed */
2 
MDAP[1]	/* MoveDirectAbsPt */
ELSE[ ]	/* Else */
PUSHB[ ]	/* 2 values pushed */
2 18 
MIAP[0]	/* MoveIndirectAbsPt */
EIF[ ]	/* EndIf */
PUSHB[ ]	/* 1 value pushed */
0 
RCVT[ ]	/* ReadCVT */
IF[ ]	/* If */
PUSHB[ ]	/* 1 value pushed */
6 
MDAP[1]	/* MoveDirectAbsPt */
ELSE[ ]	/* Else */
PUSHB[ ]	/* 2 values pushed */
6 18 
MIAP[0]	/* MoveIndirectAbsPt */
EIF[ ]	/* EndIf */
PUSHB[ ]	/* 3 values pushed */
8 4 2 
SRP1[ ]	/* SetRefPoint1 */
SRP2[ ]	/* SetRefPoint2 */
IP[ ]	/* InterpolatePts */
PUSHB[ ]	/* 1 value pushed */
8 
MDAP[1]	/* MoveDirectAbsPt */
PUSHB[ ]	/* 2 values pushed */
0 1 
PUSHB[ ]	/* 1 value pushed */
10 
CALL[ ]	/* CallFunction */
IF[ ]	/* If */
POP[ ]	/* PopTopStack */
MDRP[11000]	/* MoveDirectRelPt */
ELSE[ ]	/* Else */
MIRP[10100]	/* MoveIndirectRelPt */
EIF[ ]	/* EndIf */
PUSHB[ ]	/* 3 values pushed */
10 4 2 
SRP1[ ]	/* SetRefPoint1 */
SRP2[ ]	/* SetRefPoint2 */
IP[ ]	/* InterpolatePts */
IUP[0]	/* InterpolateUntPts */
IUP[1]	/* InterpolateUntPts */";
};
width = 1223;
}
);
leftKerningGroup = A;
note = uni0041;
rightKerningGroup = A;
unicode = 0041;
},
